SplineFontDB: 3.2
FontName: Lato-Black
FullName: Lato Black
FamilyName: Lato Black
Weight: Black
Copyright: Copyright (c) 2011-2015 by tyPoland Lukasz Dziedzic (http://www.typoland.com/) with Reserved Font Name "Lato". Licensed under the SIL Open Font License, Version 1.1 (http://scripts.sil.org/OFL). 
Version: 2.015; 2015-08-06; http://www.latofonts.com/
ItalicAngle: 0
UnderlinePosition: -510
UnderlineWidth: 98
Ascent: 1610
Descent: 390
InvalidEm: 0
sfntRevision: 0x000203d7
LayerCount: 2
Layer: 0 1 "+BBcEMAQ0BD0EOAQ5 +BD8EOwQwBD0A" 1
Layer: 1 1 "+BB8ENQRABDUENAQ9BDgEOQAA +BD8EOwQwBD0A" 0
XUID: [1021 654 1190804148 27668]
StyleMap: 0x0040
FSType: 0
OS2Version: 4
OS2_WeightWidthSlopeOnly: 0
OS2_UseTypoMetrics: 1
CreationTime: 1438840825
ModificationTime: 1608583997
PfmFamily: 17
TTFWeight: 900
TTFWidth: 5
LineGap: 0
VLineGap: 0
Panose: 2 15 5 2 2 2 4 3 2 3
OS2TypoAscent: 1610
OS2TypoAOffset: 0
OS2TypoDescent: -390
OS2TypoDOffset: 0
OS2TypoLinegap: 400
OS2WinAscent: 1974
OS2WinAOffset: 0
OS2WinDescent: 426
OS2WinDOffset: 0
HheadAscent: 1974
HheadAOffset: 0
HheadDescent: -426
HheadDOffset: 0
OS2SubXSize: 1400
OS2SubYSize: 1300
OS2SubXOff: 0
OS2SubYOff: 280
OS2SupXSize: 1400
OS2SupYSize: 1300
OS2SupXOff: 0
OS2SupYOff: 954
OS2StrikeYSize: 98
OS2StrikeYPos: 567
OS2CapHeight: 1457
OS2XHeight: 1037
OS2Vendor: 'tyPL'
OS2CodePages: 2000019f.00000000
OS2UnicodeRanges: e10002ff.5000ecff.00000009.00000000
Lookup: 1 0 0 "'salt' Stylistic Alternatives in Latin lookup 0" { "'salt' Stylistic Alternatives in Latin lookup 0 subtable"  } ['salt' ('latn' <'ROM ' > ) ]
Lookup: 1 0 0 "'salt' Stylistic Alternatives in Cyrillic lookup 1" { "'salt' Stylistic Alternatives in Cyrillic lookup 1 subtable"  } ['salt' ('cyrl' <'SRB ' > ) ]

StartChar: .notdef
Encoding: 65536 -1 0
Width: 1123
Flags: W
LayerCount: 2
Fore
SplineSet
230 1152 m 1,0,1
 292 1200 292 1200 370 1231.5 c 128,-1,2
 448 1263 448 1263 553 1263 c 0,3,4
 631 1263 631 1263 690.5 1243 c 128,-1,5
 750 1223 750 1223 791 1187 c 128,-1,6
 832 1151 832 1151 853 1100 c 128,-1,7
 874 1049 874 1049 874 987 c 0,8,9
 874 932 874 932 861 892 c 128,-1,10
 848 852 848 852 828.5 823 c 128,-1,11
 809 794 809 794 785.5 773 c 128,-1,12
 762 752 762 752 740 734 c 128,-1,13
 718 716 718 716 701 699 c 128,-1,14
 684 682 684 682 678 661 c 2,15,-1
 651 571 l 1,16,-1
 439 571 l 1,17,-1
 417 683 l 2,18,19
 409 722 409 722 418.5 749.5 c 128,-1,20
 428 777 428 777 447 798.5 c 128,-1,21
 466 820 466 820 490.5 837.5 c 128,-1,22
 515 855 515 855 536.5 874 c 128,-1,23
 558 893 558 893 572.5 915 c 128,-1,24
 587 937 587 937 587 968 c 0,25,26
 587 991 587 991 574 1006.5 c 128,-1,27
 561 1022 561 1022 525 1022 c 0,28,29
 493 1022 493 1022 472 1017 c 128,-1,30
 451 1012 451 1012 435.5 1005.5 c 128,-1,31
 420 999 420 999 406.5 994 c 128,-1,32
 393 989 393 989 375 989 c 0,33,34
 332 989 332 989 312 1025 c 2,35,-1
 230 1152 l 1,0,1
374 331 m 256,36,37
 374 364 374 364 386 392.5 c 128,-1,38
 398 421 398 421 420 442 c 128,-1,39
 442 463 442 463 471 475 c 128,-1,40
 500 487 500 487 535 487 c 0,41,42
 568 487 568 487 597 475 c 128,-1,43
 626 463 626 463 647.5 442 c 128,-1,44
 669 421 669 421 681.5 392.5 c 128,-1,45
 694 364 694 364 694 331 c 256,46,47
 694 298 694 298 681.5 269.5 c 128,-1,48
 669 241 669 241 647.5 220 c 128,-1,49
 626 199 626 199 597 187 c 128,-1,50
 568 175 568 175 535 175 c 0,51,52
 500 175 500 175 471 187 c 128,-1,53
 442 199 442 199 420 220 c 128,-1,54
 398 241 398 241 386 269.5 c 128,-1,55
 374 298 374 298 374 331 c 256,36,37
40 1457 m 1,56,-1
 1083 1457 l 1,57,-1
 1083 0 l 1,58,-1
 40 0 l 1,59,-1
 40 1457 l 1,56,-1
117 80 m 1,60,-1
 996 80 l 1,61,-1
 996 1377 l 1,62,-1
 117 1377 l 1,63,-1
 117 80 l 1,60,-1
EndSplineSet
EndChar

StartChar: A
Encoding: 65 65 3
Width: 1422
Flags: W
AnchorPoint: "+BBEENQQ3BEsEPARPBD0EPQQ+BDUA--3" 710 1525 basechar 0
AnchorPoint: "+BBEENQQ3BEsEPARPBD0EPQQ+BDUA--2" 161 1120 basechar 0
AnchorPoint: "+BBEENQQ3BEsEPARPBD0EPQQ+BDUA--1" 706 -70 basechar 0
AnchorPoint: "+BBEENQQ3BEsEPARPBD0EPQQ+BDUA--0" 710 1525 basechar 0
LayerCount: 2
Fore
SplineSet
911 557 m 1,0,-1
 776 956 l 2,1,2
 761 994 761 994 744 1045.5 c 128,-1,3
 727 1097 727 1097 710 1157 c 1,4,5
 695 1096 695 1096 678 1044 c 128,-1,6
 661 992 661 992 646 954 c 2,7,-1
 512 557 l 1,8,-1
 911 557 l 1,0,-1
1448 0 m 1,9,-1
 1186 0 l 2,10,11
 1142 0 1142 0 1115 20.5 c 128,-1,12
 1088 41 1088 41 1074 73 c 2,13,-1
 988 327 l 1,14,-1
 434 327 l 1,15,-1
 348 73 l 2,16,17
 337 45 337 45 308.5 22.5 c 128,-1,18
 280 0 280 0 238 0 c 2,19,-1
 -26 0 l 1,20,-1
 538 1457 l 1,21,-1
 884 1457 l 1,22,-1
 1448 0 l 1,9,-1
EndSplineSet
Substitution2: "'sups' +BBIENQRABEUEPQQ4BDkA +BDgEPQQ0BDUEOgRB lookup 25 subtable" _2968
EndChar

StartChar: B
Encoding: 66 66 4
Width: 1339
Flags: W
AnchorPoint: "+BBEENQQ3BEsEPARPBD0EPQQ+BDUA--3" 604 1525 basechar 0
AnchorPoint: "+BBEENQQ3BEsEPARPBD0EPQQ+BDUA--1" 669 -70 basechar 0
AnchorPoint: "+BBEENQQ3BEsEPARPBD0EPQQ+BDUA--0" 604 1525 basechar 0
LayerCount: 2
Fore
SplineSet
717 255 m 2,0,1
 784 255 784 255 826.5 272 c 128,-1,2
 869 289 869 289 893 316 c 128,-1,3
 917 343 917 343 926 377 c 128,-1,4
 935 411 935 411 935 446 c 0,5,6
 935 486 935 486 924.5 518 c 128,-1,7
 914 550 914 550 888.5 572 c 128,-1,8
 863 594 863 594 821 606 c 128,-1,9
 779 618 779 618 715 618 c 2,10,-1
 479 618 l 1,11,-1
 479 255 l 1,12,-1
 717 255 l 2,0,1
479 1204 m 1,13,-1
 479 844 l 1,14,-1
 655 844 l 2,15,16
 711 844 711 844 756 852 c 128,-1,17
 801 860 801 860 832.5 880 c 128,-1,18
 864 900 864 900 880.5 935 c 128,-1,19
 897 970 897 970 897 1023 c 0,20,21
 897 1075 897 1075 884 1109.5 c 128,-1,22
 871 1144 871 1144 844 1165 c 128,-1,23
 817 1186 817 1186 775.5 1195 c 128,-1,24
 734 1204 734 1204 677 1204 c 2,25,-1
 479 1204 l 1,13,-1
677 1457 m 2,26,27
 828 1457 828 1457 934 1429 c 128,-1,28
 1040 1401 1040 1401 1107 1350 c 128,-1,29
 1174 1299 1174 1299 1204.5 1226 c 128,-1,30
 1235 1153 1235 1153 1235 1063 c 0,31,32
 1235 1014 1235 1014 1221 968.5 c 128,-1,33
 1207 923 1207 923 1177 883.5 c 128,-1,34
 1147 844 1147 844 1100 811 c 128,-1,35
 1053 778 1053 778 987 754 c 1,36,37
 1131 719 1131 719 1200 641 c 128,-1,38
 1269 563 1269 563 1269 439 c 0,39,40
 1269 346 1269 346 1233 266 c 128,-1,41
 1197 186 1197 186 1127.5 126.5 c 128,-1,42
 1058 67 1058 67 956 33.5 c 128,-1,43
 854 0 854 0 723 0 c 2,44,-1
 141 0 l 1,45,-1
 141 1457 l 1,46,-1
 677 1457 l 2,26,27
EndSplineSet
Substitution2: "'sups' +BBIENQRABEUEPQQ4BDkA +BDgEPQQ0BDUEOgRB lookup 25 subtable" _2969
EndChar

StartChar: C
Encoding: 67 67 5
Width: 1311
Flags: W
AnchorPoint: "+BBEENQQ3BEsEPARPBD0EPQQ+BDUA--3" 810 1525 basechar 0
AnchorPoint: "+BBEENQQ3BEsEPARPBD0EPQQ+BDUA--1" 769 -70 basechar 0
AnchorPoint: "+BBEENQQ3BEsEPARPBD0EPQQ+BDUA--0" 810 1525 basechar 0
LayerCount: 2
Fore
SplineSet
1123 377 m 0,0,1
 1135 377 1135 377 1147 372.5 c 128,-1,2
 1159 368 1159 368 1170 357 c 2,3,-1
 1304 216 l 1,4,5
 1216 101 1216 101 1083.5 42.5 c 128,-1,6
 951 -16 951 -16 770 -16 c 0,7,8
 604 -16 604 -16 472.5 40.5 c 128,-1,9
 341 97 341 97 249.5 196.5 c 128,-1,10
 158 296 158 296 109 432.5 c 128,-1,11
 60 569 60 569 60 729 c 0,12,13
 60 892 60 892 113 1028.5 c 128,-1,14
 166 1165 166 1165 262 1264 c 128,-1,15
 358 1363 358 1363 492 1418 c 128,-1,16
 626 1473 626 1473 787 1473 c 0,17,18
 869 1473 869 1473 941.5 1458.5 c 128,-1,19
 1014 1444 1014 1444 1077 1418.5 c 128,-1,20
 1140 1393 1140 1393 1193 1357 c 128,-1,21
 1246 1321 1246 1321 1287 1279 c 1,22,-1
 1173 1126 l 2,23,24
 1162 1112 1162 1112 1147 1100.5 c 128,-1,25
 1132 1089 1132 1089 1105 1089 c 0,26,27
 1087 1089 1087 1089 1071 1097 c 128,-1,28
 1055 1105 1055 1105 1037 1116.5 c 128,-1,29
 1019 1128 1019 1128 997.5 1141.5 c 128,-1,30
 976 1155 976 1155 946.5 1166.5 c 128,-1,31
 917 1178 917 1178 877.5 1186 c 128,-1,32
 838 1194 838 1194 785 1194 c 0,33,34
 701 1194 701 1194 631.5 1163 c 128,-1,35
 562 1132 562 1132 511.5 1072.5 c 128,-1,36
 461 1013 461 1013 433.5 926.5 c 128,-1,37
 406 840 406 840 406 729 c 0,38,39
 406 617 406 617 436.5 530 c 128,-1,40
 467 443 467 443 519.5 383.5 c 128,-1,41
 572 324 572 324 642 293 c 128,-1,42
 712 262 712 262 792 262 c 0,43,44
 838 262 838 262 876 266.5 c 128,-1,45
 914 271 914 271 947 281.5 c 128,-1,46
 980 292 980 292 1009 309.5 c 128,-1,47
 1038 327 1038 327 1068 354 c 0,48,49
 1080 364 1080 364 1094 370.5 c 128,-1,50
 1108 377 1108 377 1123 377 c 0,0,1
EndSplineSet
Substitution2: "'sups' +BBIENQRABEUEPQQ4BDkA +BDgEPQQ0BDUEOgRB lookup 25 subtable" _500
EndChar

StartChar: D
Encoding: 68 68 6
Width: 1522
Flags: W
AnchorPoint: "+BBEENQQ3BEsEPARPBD0EPQQ+BDUA--3" 675 1525 basechar 0
AnchorPoint: "+BBEENQQ3BEsEPARPBD0EPQQ+BDUA--1" 683 -103 basechar 0
AnchorPoint: "+BBEENQQ3BEsEPARPBD0EPQQ+BDUA--0" 675 1525 basechar 0
LayerCount: 2
Fore
SplineSet
1463 729 m 0,0,1
 1463 571 1463 571 1408.5 437.5 c 128,-1,2
 1354 304 1354 304 1255 206.5 c 128,-1,3
 1156 109 1156 109 1016.5 54.5 c 128,-1,4
 877 0 877 0 707 0 c 2,5,-1
 141 0 l 1,6,-1
 141 1457 l 1,7,-1
 707 1457 l 2,8,9
 877 1457 877 1457 1016.5 1402 c 128,-1,10
 1156 1347 1156 1347 1255 1250 c 128,-1,11
 1354 1153 1354 1153 1408.5 1019.5 c 128,-1,12
 1463 886 1463 886 1463 729 c 0,0,1
1117 729 m 0,13,14
 1117 837 1117 837 1089 924 c 128,-1,15
 1061 1011 1061 1011 1008.5 1071.5 c 128,-1,16
 956 1132 956 1132 880 1164.5 c 128,-1,17
 804 1197 804 1197 707 1197 c 2,18,-1
 481 1197 l 1,19,-1
 481 260 l 1,20,-1
 707 260 l 2,21,22
 804 260 804 260 880 292.5 c 128,-1,23
 956 325 956 325 1008.5 385.5 c 128,-1,24
 1061 446 1061 446 1089 533 c 128,-1,25
 1117 620 1117 620 1117 729 c 0,13,14
EndSplineSet
Substitution2: "'sups' +BBIENQRABEUEPQQ4BDkA +BDgEPQQ0BDUEOgRB lookup 25 subtable" _2970
EndChar

StartChar: E
Encoding: 69 69 7
Width: 1146
Flags: W
AnchorPoint: "+BBEENQQ3BEsEPARPBD0EPQQ+BDUA--3" 627 1525 basechar 0
AnchorPoint: "+BBEENQQ3BEsEPARPBD0EPQQ+BDUA--2" -119 1120 basechar 0
AnchorPoint: "+BBEENQQ3BEsEPARPBD0EPQQ+BDUA--1" 645 -70 basechar 0
AnchorPoint: "+BBEENQQ3BEsEPARPBD0EPQQ+BDUA--0" 627 1525 basechar 0
LayerCount: 2
Fore
SplineSet
481 1197 m 1,0,-1
 481 857 l 1,1,-1
 939 857 l 1,2,-1
 939 607 l 1,3,-1
 481 607 l 1,4,-1
 481 260 l 1,5,-1
 1079 260 l 1,6,-1
 1079 0 l 1,7,-1
 141 0 l 1,8,-1
 141 1457 l 1,9,-1
 1079 1457 l 1,10,-1
 1079 1197 l 1,11,-1
 481 1197 l 1,0,-1
EndSplineSet
Substitution2: "'sups' +BBIENQRABEUEPQQ4BDkA +BDgEPQQ0BDUEOgRB lookup 25 subtable" _2971
EndChar

StartChar: F
Encoding: 70 70 8
Width: 1133
Flags: W
AnchorPoint: "+BBEENQQ3BEsEPARPBD0EPQQ+BDUA--3" 625 1525 basechar 0
AnchorPoint: "+BBEENQQ3BEsEPARPBD0EPQQ+BDUA--1" 311 -70 basechar 0
AnchorPoint: "+BBEENQQ3BEsEPARPBD0EPQQ+BDUA--0" 625 1525 basechar 0
LayerCount: 2
Fore
SplineSet
481 1197 m 1,0,-1
 481 828 l 1,1,-1
 979 828 l 1,2,-1
 979 567 l 1,3,-1
 481 567 l 1,4,-1
 481 0 l 1,5,-1
 141 0 l 1,6,-1
 141 1457 l 1,7,-1
 1079 1457 l 1,8,-1
 1079 1197 l 1,9,-1
 481 1197 l 1,0,-1
EndSplineSet
Substitution2: "'sups' +BBIENQRABEUEPQQ4BDkA +BDgEPQQ0BDUEOgRB lookup 25 subtable" _501
EndChar

StartChar: G
Encoding: 71 71 9
Width: 1445
Flags: W
AnchorPoint: "+BBEENQQ3BEsEPARPBD0EPQQ+BDUA--3" 821 1525 basechar 0
AnchorPoint: "+BBEENQQ3BEsEPARPBD0EPQQ+BDUA--1" 841 -70 basechar 0
AnchorPoint: "+BBEENQQ3BEsEPARPBD0EPQQ+BDUA--0" 821 1525 basechar 0
LayerCount: 2
Fore
SplineSet
841 755 m 1,0,-1
 1359 755 l 1,1,-1
 1359 140 l 1,2,3
 1247 58 1247 58 1120.5 21 c 128,-1,4
 994 -16 994 -16 856 -16 c 0,5,6
 676 -16 676 -16 528.5 40.5 c 128,-1,7
 381 97 381 97 276 196.5 c 128,-1,8
 171 296 171 296 114 432.5 c 128,-1,9
 57 569 57 569 57 729 c 0,10,11
 57 892 57 892 111 1028.5 c 128,-1,12
 165 1165 165 1165 265.5 1264 c 128,-1,13
 366 1363 366 1363 508.5 1418 c 128,-1,14
 651 1473 651 1473 827 1473 c 0,15,16
 918 1473 918 1473 998 1458 c 128,-1,17
 1078 1443 1078 1443 1145.5 1417 c 128,-1,18
 1213 1391 1213 1391 1269 1355 c 128,-1,19
 1325 1319 1325 1319 1369 1277 c 1,20,-1
 1271 1128 l 2,21,22
 1248 1093 1248 1093 1211.5 1085 c 128,-1,23
 1175 1077 1175 1077 1133 1103 c 0,24,25
 1093 1127 1093 1127 1057.5 1144.5 c 128,-1,26
 1022 1162 1022 1162 985 1173 c 128,-1,27
 948 1184 948 1184 907 1189 c 128,-1,28
 866 1194 866 1194 815 1194 c 0,29,30
 720 1194 720 1194 644 1160.5 c 128,-1,31
 568 1127 568 1127 514.5 1066 c 128,-1,32
 461 1005 461 1005 432 919.5 c 128,-1,33
 403 834 403 834 403 729 c 0,34,35
 403 613 403 613 435 523 c 128,-1,36
 467 433 467 433 525.5 371 c 128,-1,37
 584 309 584 309 665.5 276.5 c 128,-1,38
 747 244 747 244 846 244 c 0,39,40
 907 244 907 244 956.5 256 c 128,-1,41
 1006 268 1006 268 1053 288 c 1,42,-1
 1053 509 l 1,43,-1
 909 509 l 2,44,45
 877 509 877 509 859 526 c 128,-1,46
 841 543 841 543 841 569 c 2,47,-1
 841 755 l 1,0,-1
EndSplineSet
Substitution2: "'sups' +BBIENQRABEUEPQQ4BDkA +BDgEPQQ0BDUEOgRB lookup 25 subtable" _2972
EndChar

StartChar: H
Encoding: 72 72 10
Width: 1554
Flags: W
AnchorPoint: "+BBEENQQ3BEsEPARPBD0EPQQ+BDUA--3" 777 1525 basechar 0
AnchorPoint: "+BBEENQQ3BEsEPARPBD0EPQQ+BDUA--2" -119 1120 basechar 0
AnchorPoint: "+BBEENQQ3BEsEPARPBD0EPQQ+BDUA--1" 779 -70 basechar 0
AnchorPoint: "+BBEENQQ3BEsEPARPBD0EPQQ+BDUA--0" 777 1525 basechar 0
LayerCount: 2
Fore
SplineSet
1413 1457 m 1,0,-1
 1413 0 l 1,1,-1
 1073 0 l 1,2,-1
 1073 616 l 1,3,-1
 481 616 l 1,4,-1
 481 0 l 1,5,-1
 141 0 l 1,6,-1
 141 1457 l 1,7,-1
 481 1457 l 1,8,-1
 481 848 l 1,9,-1
 1073 848 l 1,10,-1
 1073 1457 l 1,11,-1
 1413 1457 l 1,0,-1
EndSplineSet
Substitution2: "'sups' +BBIENQRABEUEPQQ4BDkA +BDgEPQQ0BDUEOgRB lookup 25 subtable" _2973
EndChar

StartChar: I
Encoding: 73 73 11
Width: 622
Flags: W
AnchorPoint: "+BBEENQQ3BEsEPARPBD0EPQQ+BDUA--3" 315 1525 basechar 0
AnchorPoint: "+BBEENQQ3BEsEPARPBD0EPQQ+BDUA--2" -139 1120 basechar 0
AnchorPoint: "+BBEENQQ3BEsEPARPBD0EPQQ+BDUA--1" 311 -70 basechar 0
AnchorPoint: "+BBEENQQ3BEsEPARPBD0EPQQ+BDUA--0" 315 1525 basechar 0
LayerCount: 2
Fore
SplineSet
481 0 m 1,0,-1
 141 0 l 1,1,-1
 141 1457 l 1,2,-1
 481 1457 l 1,3,-1
 481 0 l 1,0,-1
EndSplineSet
Substitution2: "'sups' +BBIENQRABEUEPQQ4BDkA +BDgEPQQ0BDUEOgRB lookup 25 subtable" _2974
EndChar

StartChar: J
Encoding: 74 74 12
Width: 871
Flags: W
AnchorPoint: "+BBEENQQ3BEsEPARPBD0EPQQ+BDUA--3" 574 1525 basechar 0
AnchorPoint: "+BBEENQQ3BEsEPARPBD0EPQQ+BDUA--1" 324 -70 basechar 0
AnchorPoint: "+BBEENQQ3BEsEPARPBD0EPQQ+BDUA--0" 574 1525 basechar 0
LayerCount: 2
Fore
SplineSet
744 528 m 2,0,1
 744 406 744 406 713.5 306 c 128,-1,2
 683 206 683 206 621.5 134.5 c 128,-1,3
 560 63 560 63 467 23.5 c 128,-1,4
 374 -16 374 -16 248 -16 c 0,5,6
 191 -16 191 -16 135.5 -10 c 128,-1,7
 80 -4 80 -4 20 10 c 1,8,-1
 38 207 l 2,9,10
 41 233 41 233 59 249 c 128,-1,11
 77 265 77 265 110 265 c 0,12,13
 127 265 127 265 152 259.5 c 128,-1,14
 177 254 177 254 212 254 c 0,15,16
 261 254 261 254 297.5 267.5 c 128,-1,17
 334 281 334 281 358 312.5 c 128,-1,18
 382 344 382 344 394 395 c 128,-1,19
 406 446 406 446 406 521 c 2,20,-1
 406 1457 l 1,21,-1
 744 1457 l 1,22,-1
 744 528 l 2,0,1
EndSplineSet
Substitution2: "'sups' +BBIENQRABEUEPQQ4BDkA +BDgEPQQ0BDUEOgRB lookup 25 subtable" _2975
EndChar

StartChar: K
Encoding: 75 75 13
Width: 1413
Flags: W
AnchorPoint: "+BBEENQQ3BEsEPARPBD0EPQQ+BDUA--3" 731 1525 basechar 0
AnchorPoint: "+BBEENQQ3BEsEPARPBD0EPQQ+BDUA--1" 702 -70 basechar 0
AnchorPoint: "+BBEENQQ3BEsEPARPBD0EPQQ+BDUA--0" 731 1525 basechar 0
LayerCount: 2
Fore
SplineSet
479 867 m 1,0,-1
 533 867 l 2,1,2
 608 867 608 867 641 914 c 2,3,-1
 969 1390 l 2,4,5
 998 1428 998 1428 1031.5 1442.5 c 128,-1,6
 1065 1457 1065 1457 1115 1457 c 2,7,-1
 1409 1457 l 1,8,-1
 977 868 l 2,9,10
 931 807 931 807 878 780 c 1,11,12
 916 766 916 766 947 741 c 128,-1,13
 978 716 978 716 1005 676 c 2,14,-1
 1445 0 l 1,15,-1
 1143 0 l 2,16,17
 1114 0 1114 0 1093.5 4 c 128,-1,18
 1073 8 1073 8 1058 16 c 128,-1,19
 1043 24 1043 24 1032 35.5 c 128,-1,20
 1021 47 1021 47 1011 62 c 2,21,-1
 681 569 l 2,22,23
 663 597 663 597 635.5 608.5 c 128,-1,24
 608 620 608 620 561 620 c 2,25,-1
 479 620 l 1,26,-1
 479 0 l 1,27,-1
 141 0 l 1,28,-1
 141 1457 l 1,29,-1
 479 1457 l 1,30,-1
 479 867 l 1,0,-1
EndSplineSet
Substitution2: "'sups' +BBIENQRABEUEPQQ4BDkA +BDgEPQQ0BDUEOgRB lookup 25 subtable" _2976
EndChar

StartChar: L
Encoding: 76 76 14
Width: 1050
Flags: W
AnchorPoint: "+BBEENQQ3BEsEPARPBD0EPQQ+BDUA--3" 334 1525 basechar 0
AnchorPoint: "+BBEENQQ3BEsEPARPBD0EPQQ+BDUA--1" 555 -70 basechar 0
AnchorPoint: "+BBEENQQ3BEsEPARPBD0EPQQ+BDUA--0" 334 1525 basechar 0
LayerCount: 2
Fore
SplineSet
1019 270 m 1,0,-1
 1019 0 l 1,1,-1
 141 0 l 1,2,-1
 141 1457 l 1,3,-1
 479 1457 l 1,4,-1
 479 270 l 1,5,-1
 1019 270 l 1,0,-1
EndSplineSet
Substitution2: "'sups' +BBIENQRABEUEPQQ4BDkA +BDgEPQQ0BDUEOgRB lookup 25 subtable" _2977
EndChar

StartChar: M
Encoding: 77 77 15
Width: 1920
Flags: W
AnchorPoint: "+BBEENQQ3BEsEPARPBD0EPQQ+BDUA--3" 959 1525 basechar 0
AnchorPoint: "+BBEENQQ3BEsEPARPBD0EPQQ+BDUA--1" 960 -70 basechar 0
AnchorPoint: "+BBEENQQ3BEsEPARPBD0EPQQ+BDUA--0" 959 1525 basechar 0
LayerCount: 2
Fore
SplineSet
1779 1457 m 1,0,-1
 1779 0 l 1,1,-1
 1481 0 l 1,2,-1
 1481 838 l 2,3,4
 1481 867 1481 867 1482.5 901 c 128,-1,5
 1484 935 1484 935 1488 970 c 1,6,-1
 1101 221 l 2,7,8
 1083 186 1083 186 1052.5 168 c 128,-1,9
 1022 150 1022 150 983 150 c 2,10,-1
 937 150 l 2,11,12
 898 150 898 150 867.5 168 c 128,-1,13
 837 186 837 186 819 221 c 2,14,-1
 432 972 l 1,15,16
 435 936 435 936 437 901.5 c 128,-1,17
 439 867 439 867 439 838 c 2,18,-1
 439 0 l 1,19,-1
 141 0 l 1,20,-1
 141 1457 l 1,21,-1
 399 1457 l 2,22,23
 421 1457 421 1457 437.5 1456 c 128,-1,24
 454 1455 454 1455 467 1450 c 128,-1,25
 480 1445 480 1445 490.5 1434.5 c 128,-1,26
 501 1424 501 1424 511 1405 c 2,27,-1
 886 666 l 2,28,29
 906 628 906 628 924.5 587 c 128,-1,30
 943 546 943 546 960 503 c 1,31,32
 977 547 977 547 995.5 589 c 128,-1,33
 1014 631 1014 631 1035 669 c 2,34,-1
 1409 1405 l 2,35,36
 1419 1424 1419 1424 1429.5 1434.5 c 128,-1,37
 1440 1445 1440 1445 1453 1450 c 128,-1,38
 1466 1455 1466 1455 1482.5 1456 c 128,-1,39
 1499 1457 1499 1457 1521 1457 c 2,40,-1
 1779 1457 l 1,0,-1
EndSplineSet
Substitution2: "'sups' +BBIENQRABEUEPQQ4BDkA +BDgEPQQ0BDUEOgRB lookup 25 subtable" _2978
EndChar

StartChar: N
Encoding: 78 78 16
Width: 1554
Flags: W
AnchorPoint: "+BBEENQQ3BEsEPARPBD0EPQQ+BDUA--3" 779 1525 basechar 0
AnchorPoint: "+BBEENQQ3BEsEPARPBD0EPQQ+BDUA--1" 777 -70 basechar 0
AnchorPoint: "+BBEENQQ3BEsEPARPBD0EPQQ+BDUA--0" 779 1525 basechar 0
LayerCount: 2
Fore
SplineSet
1413 1457 m 1,0,-1
 1413 0 l 1,1,-1
 1237 0 l 2,2,3
 1198 0 1198 0 1171.5 12.5 c 128,-1,4
 1145 25 1145 25 1119 56 c 2,5,-1
 432 925 l 1,6,7
 436 886 436 886 437.5 849.5 c 128,-1,8
 439 813 439 813 439 781 c 2,9,-1
 439 0 l 1,10,-1
 141 0 l 1,11,-1
 141 1457 l 1,12,-1
 319 1457 l 2,13,14
 341 1457 341 1457 356 1455 c 128,-1,15
 371 1453 371 1453 383 1447.5 c 128,-1,16
 395 1442 395 1442 406 1432 c 128,-1,17
 417 1422 417 1422 431 1405 c 2,18,-1
 1124 530 l 1,19,20
 1119 572 1119 572 1117 611.5 c 128,-1,21
 1115 651 1115 651 1115 686 c 2,22,-1
 1115 1457 l 1,23,-1
 1413 1457 l 1,0,-1
EndSplineSet
Substitution2: "'sups' +BBIENQRABEUEPQQ4BDkA +BDgEPQQ0BDUEOgRB lookup 25 subtable" _2979
EndChar

StartChar: O
Encoding: 79 79 17
Width: 1629
Flags: W
AnchorPoint: "+BBEENQQ3BEsEPARPBD0EPQQ+BDUA--3" 817 1525 basechar 0
AnchorPoint: "+BBEENQQ3BEsEPARPBD0EPQQ+BDUA--2" -63 1120 basechar 0
AnchorPoint: "+BBEENQQ3BEsEPARPBD0EPQQ+BDUA--1" 816 -70 basechar 0
AnchorPoint: "+BBEENQQ3BEsEPARPBD0EPQQ+BDUA--0" 817 1525 basechar 0
LayerCount: 2
Fore
SplineSet
1571 729 m 0,0,1
 1571 571 1571 571 1516.5 435 c 128,-1,2
 1462 299 1462 299 1363 198.5 c 128,-1,3
 1264 98 1264 98 1124.5 41 c 128,-1,4
 985 -16 985 -16 815 -16 c 256,5,6
 645 -16 645 -16 505 41 c 128,-1,7
 365 98 365 98 265.5 198.5 c 128,-1,8
 166 299 166 299 111.5 435 c 128,-1,9
 57 571 57 571 57 729 c 256,10,11
 57 887 57 887 111.5 1023 c 128,-1,12
 166 1159 166 1159 265.5 1259 c 128,-1,13
 365 1359 365 1359 505 1416 c 128,-1,14
 645 1473 645 1473 815 1473 c 256,15,16
 985 1473 985 1473 1124.5 1415.5 c 128,-1,17
 1264 1358 1264 1358 1363 1258 c 128,-1,18
 1462 1158 1462 1158 1516.5 1022 c 128,-1,19
 1571 886 1571 886 1571 729 c 0,0,1
1225 729 m 0,20,21
 1225 837 1225 837 1197 923.5 c 128,-1,22
 1169 1010 1169 1010 1116.5 1070 c 128,-1,23
 1064 1130 1064 1130 988 1162 c 128,-1,24
 912 1194 912 1194 815 1194 c 0,25,26
 717 1194 717 1194 640.5 1162 c 128,-1,27
 564 1130 564 1130 511.5 1070 c 128,-1,28
 459 1010 459 1010 431 923.5 c 128,-1,29
 403 837 403 837 403 729 c 0,30,31
 403 620 403 620 431 533.5 c 128,-1,32
 459 447 459 447 511.5 387 c 128,-1,33
 564 327 564 327 640.5 295.5 c 128,-1,34
 717 264 717 264 815 264 c 0,35,36
 912 264 912 264 988 295.5 c 128,-1,37
 1064 327 1064 327 1116.5 387 c 128,-1,38
 1169 447 1169 447 1197 533.5 c 128,-1,39
 1225 620 1225 620 1225 729 c 0,20,21
EndSplineSet
Substitution2: "'sups' +BBIENQRABEUEPQQ4BDkA +BDgEPQQ0BDUEOgRB lookup 25 subtable" _1305
EndChar

StartChar: P
Encoding: 80 80 18
Width: 1272
Flags: W
AnchorPoint: "+BBEENQQ3BEsEPARPBD0EPQQ+BDUA--3" 624 1525 basechar 0
AnchorPoint: "+BBEENQQ3BEsEPARPBD0EPQQ+BDUA--1" 310 -70 basechar 0
AnchorPoint: "+BBEENQQ3BEsEPARPBD0EPQQ+BDUA--0" 624 1525 basechar 0
LayerCount: 2
Fore
SplineSet
655 742 m 2,0,1
 787 742 787 742 845 805 c 128,-1,2
 903 868 903 868 903 981 c 0,3,4
 903 1031 903 1031 888 1072 c 128,-1,5
 873 1113 873 1113 842.5 1142.5 c 128,-1,6
 812 1172 812 1172 765.5 1188 c 128,-1,7
 719 1204 719 1204 655 1204 c 2,8,-1
 479 1204 l 1,9,-1
 479 742 l 1,10,-1
 655 742 l 2,0,1
655 1457 m 2,11,12
 809 1457 809 1457 919.5 1420.5 c 128,-1,13
 1030 1384 1030 1384 1101.5 1320 c 128,-1,14
 1173 1256 1173 1256 1207 1169 c 128,-1,15
 1241 1082 1241 1082 1241 981 c 0,16,17
 1241 872 1241 872 1206 781 c 128,-1,18
 1171 690 1171 690 1099 625 c 128,-1,19
 1027 560 1027 560 916.5 523.5 c 128,-1,20
 806 487 806 487 655 487 c 2,21,-1
 479 487 l 1,22,-1
 479 0 l 1,23,-1
 141 0 l 1,24,-1
 141 1457 l 1,25,-1
 655 1457 l 2,11,12
EndSplineSet
Substitution2: "'sups' +BBIENQRABEUEPQQ4BDkA +BDgEPQQ0BDUEOgRB lookup 25 subtable" _2980
EndChar

StartChar: Q
Encoding: 81 81 19
Width: 1630
Flags: W
AnchorPoint: "+BBEENQQ3BEsEPARPBD0EPQQ+BDUA--3" 815 1525 basechar 0
AnchorPoint: "+BBEENQQ3BEsEPARPBD0EPQQ+BDUA--1" 834 -421 basechar 0
AnchorPoint: "+BBEENQQ3BEsEPARPBD0EPQQ+BDUA--0" 815 1525 basechar 0
LayerCount: 2
Fore
SplineSet
404 729 m 0,0,1
 404 620 404 620 432 533.5 c 128,-1,2
 460 447 460 447 512.5 387 c 128,-1,3
 565 327 565 327 641.5 295.5 c 128,-1,4
 718 264 718 264 816 264 c 0,5,6
 913 264 913 264 989 295.5 c 128,-1,7
 1065 327 1065 327 1117.5 387 c 128,-1,8
 1170 447 1170 447 1198 533.5 c 128,-1,9
 1226 620 1226 620 1226 729 c 0,10,11
 1226 837 1226 837 1198 923.5 c 128,-1,12
 1170 1010 1170 1010 1117.5 1070 c 128,-1,13
 1065 1130 1065 1130 989 1162 c 128,-1,14
 913 1194 913 1194 816 1194 c 0,15,16
 718 1194 718 1194 641.5 1162 c 128,-1,17
 565 1130 565 1130 512.5 1070 c 128,-1,18
 460 1010 460 1010 432 923.5 c 128,-1,19
 404 837 404 837 404 729 c 0,0,1
1654 -273 m 1,20,-1
 1376 -273 l 2,21,22
 1316 -273 1316 -273 1268.5 -257.5 c 128,-1,23
 1221 -242 1221 -242 1180 -200 c 2,24,-1
 999 3 l 1,25,26
 914 -16 914 -16 816 -16 c 0,27,28
 646 -16 646 -16 506 41 c 128,-1,29
 366 98 366 98 266.5 198.5 c 128,-1,30
 167 299 167 299 112.5 435 c 128,-1,31
 58 571 58 571 58 729 c 256,32,33
 58 887 58 887 112.5 1023 c 128,-1,34
 167 1159 167 1159 266.5 1259 c 128,-1,35
 366 1359 366 1359 506 1416 c 128,-1,36
 646 1473 646 1473 816 1473 c 256,37,38
 986 1473 986 1473 1125.5 1415.5 c 128,-1,39
 1265 1358 1265 1358 1364 1258 c 128,-1,40
 1463 1158 1463 1158 1517.5 1022 c 128,-1,41
 1572 886 1572 886 1572 729 c 0,42,43
 1572 635 1572 635 1552.5 548.5 c 128,-1,44
 1533 462 1533 462 1496.5 386 c 128,-1,45
 1460 310 1460 310 1406.5 245 c 128,-1,46
 1353 180 1353 180 1285 130 c 1,47,-1
 1654 -273 l 1,20,-1
EndSplineSet
Substitution2: "'sups' +BBIENQRABEUEPQQ4BDkA +BDgEPQQ0BDUEOgRB lookup 25 subtable" _502
EndChar

StartChar: R
Encoding: 82 82 20
Width: 1315
Flags: W
AnchorPoint: "+BBEENQQ3BEsEPARPBD0EPQQ+BDUA--3" 635 1525 basechar 0
AnchorPoint: "+BBEENQQ3BEsEPARPBD0EPQQ+BDUA--1" 696 -70 basechar 0
AnchorPoint: "+BBEENQQ3BEsEPARPBD0EPQQ+BDUA--0" 635 1525 basechar 0
LayerCount: 2
Fore
SplineSet
615 772 m 2,0,1
 684 772 684 772 732.5 789.5 c 128,-1,2
 781 807 781 807 812 838 c 128,-1,3
 843 869 843 869 857 910.5 c 128,-1,4
 871 952 871 952 871 1000 c 0,5,6
 871 1096 871 1096 808.5 1150 c 128,-1,7
 746 1204 746 1204 615 1204 c 2,8,-1
 479 1204 l 1,9,-1
 479 772 l 1,10,-1
 615 772 l 2,0,1
1333 0 m 1,11,-1
 1027 0 l 2,12,13
 942 0 942 0 905 64 c 2,14,-1
 663 487 l 2,15,16
 646 514 646 514 625 526.5 c 128,-1,17
 604 539 604 539 565 539 c 2,18,-1
 479 539 l 1,19,-1
 479 0 l 1,20,-1
 141 0 l 1,21,-1
 141 1457 l 1,22,-1
 615 1457 l 2,23,24
 773 1457 773 1457 884.5 1424.5 c 128,-1,25
 996 1392 996 1392 1066.5 1334 c 128,-1,26
 1137 1276 1137 1276 1169 1197 c 128,-1,27
 1201 1118 1201 1118 1201 1025 c 0,28,29
 1201 954 1201 954 1182 891 c 128,-1,30
 1163 828 1163 828 1126 774.5 c 128,-1,31
 1089 721 1089 721 1034.5 679 c 128,-1,32
 980 637 980 637 909 610 c 1,33,34
 942 593 942 593 971 567.5 c 128,-1,35
 1000 542 1000 542 1023 507 c 2,36,-1
 1333 0 l 1,11,-1
EndSplineSet
Substitution2: "'sups' +BBIENQRABEUEPQQ4BDkA +BDgEPQQ0BDUEOgRB lookup 25 subtable" _2981
EndChar

StartChar: S
Encoding: 83 83 21
Width: 1108
Flags: W
AnchorPoint: "+BBEENQQ3BEsEPARPBD0EPQQ+BDUA--3" 598 1525 basechar 0
AnchorPoint: "+BBEENQQ3BEsEPARPBD0EPQQ+BDUA--1" 532 -70 basechar 0
AnchorPoint: "+BBEENQQ3BEsEPARPBD0EPQQ+BDUA--0" 598 1525 basechar 0
LayerCount: 2
Fore
SplineSet
946 1161 m 2,0,1
 931 1137 931 1137 914.5 1125 c 128,-1,2
 898 1113 898 1113 872 1113 c 0,3,4
 849 1113 849 1113 822.5 1127.5 c 128,-1,5
 796 1142 796 1142 762.5 1160 c 128,-1,6
 729 1178 729 1178 686 1192.5 c 128,-1,7
 643 1207 643 1207 588 1207 c 0,8,9
 493 1207 493 1207 446.5 1166.5 c 128,-1,10
 400 1126 400 1126 400 1057 c 0,11,12
 400 1013 400 1013 428 984 c 128,-1,13
 456 955 456 955 501.5 934 c 128,-1,14
 547 913 547 913 605.5 895.5 c 128,-1,15
 664 878 664 878 725 856.5 c 128,-1,16
 786 835 786 835 844.5 806 c 128,-1,17
 903 777 903 777 948.5 732 c 128,-1,18
 994 687 994 687 1022 622.5 c 128,-1,19
 1050 558 1050 558 1050 467 c 0,20,21
 1050 366 1050 366 1015 278 c 128,-1,22
 980 190 980 190 913.5 124.5 c 128,-1,23
 847 59 847 59 749.5 21.5 c 128,-1,24
 652 -16 652 -16 528 -16 c 0,25,26
 460 -16 460 -16 389.5 -2 c 128,-1,27
 319 12 319 12 253 37.5 c 128,-1,28
 187 63 187 63 129 98 c 128,-1,29
 71 133 71 133 28 176 c 1,30,-1
 128 334 l 2,31,32
 140 351 140 351 159.5 362.5 c 128,-1,33
 179 374 179 374 202 374 c 0,34,35
 232 374 232 374 262.5 355 c 128,-1,36
 293 336 293 336 331.5 313 c 128,-1,37
 370 290 370 290 420 271 c 128,-1,38
 470 252 470 252 538 252 c 0,39,40
 630 252 630 252 681 292.5 c 128,-1,41
 732 333 732 333 732 421 c 0,42,43
 732 472 732 472 704 504 c 128,-1,44
 676 536 676 536 630.5 557 c 128,-1,45
 585 578 585 578 527 594 c 128,-1,46
 469 610 469 610 408 629.5 c 128,-1,47
 347 649 347 649 289 677.5 c 128,-1,48
 231 706 231 706 185.5 752.5 c 128,-1,49
 140 799 140 799 112 868.5 c 128,-1,50
 84 938 84 938 84 1040 c 0,51,52
 84 1122 84 1122 117 1200 c 128,-1,53
 150 1278 150 1278 214 1339 c 128,-1,54
 278 1400 278 1400 371 1436.5 c 128,-1,55
 464 1473 464 1473 584 1473 c 0,56,57
 651 1473 651 1473 714.5 1462.5 c 128,-1,58
 778 1452 778 1452 835 1431.5 c 128,-1,59
 892 1411 892 1411 941.5 1382.5 c 128,-1,60
 991 1354 991 1354 1030 1318 c 1,61,-1
 946 1161 l 2,0,1
EndSplineSet
Substitution2: "'sups' +BBIENQRABEUEPQQ4BDkA +BDgEPQQ0BDUEOgRB lookup 25 subtable" _503
EndChar

StartChar: T
Encoding: 84 84 22
Width: 1218
Flags: W
AnchorPoint: "+BBEENQQ3BEsEPARPBD0EPQQ+BDUA--3" 613 1525 basechar 0
AnchorPoint: "+BBEENQQ3BEsEPARPBD0EPQQ+BDUA--1" 613 -70 basechar 0
AnchorPoint: "+BBEENQQ3BEsEPARPBD0EPQQ+BDUA--0" 613 1525 basechar 0
LayerCount: 2
Fore
SplineSet
1188 1189 m 1,0,-1
 778 1189 l 1,1,-1
 778 0 l 1,2,-1
 440 0 l 1,3,-1
 440 1189 l 1,4,-1
 30 1189 l 1,5,-1
 30 1457 l 1,6,-1
 1188 1457 l 1,7,-1
 1188 1189 l 1,0,-1
EndSplineSet
Substitution2: "'sups' +BBIENQRABEUEPQQ4BDkA +BDgEPQQ0BDUEOgRB lookup 25 subtable" _2982
EndChar

StartChar: U
Encoding: 85 85 23
Width: 1498
Flags: W
AnchorPoint: "+BBEENQQ3BEsEPARPBD0EPQQ+BDUA--3" 749 1525 basechar 0
AnchorPoint: "+BBEENQQ3BEsEPARPBD0EPQQ+BDUA--1" 749 -70 basechar 0
AnchorPoint: "+BBEENQQ3BEsEPARPBD0EPQQ+BDUA--0" 749 1525 basechar 0
LayerCount: 2
Fore
SplineSet
749 267 m 256,0,1
 817 267 817 267 870.5 289.5 c 128,-1,2
 924 312 924 312 961 354 c 128,-1,3
 998 396 998 396 1017.5 456.5 c 128,-1,4
 1037 517 1037 517 1037 594 c 2,5,-1
 1037 1457 l 1,6,-1
 1375 1457 l 1,7,-1
 1375 594 l 2,8,9
 1375 460 1375 460 1331.5 348 c 128,-1,10
 1288 236 1288 236 1207 155 c 128,-1,11
 1126 74 1126 74 1010 29 c 128,-1,12
 894 -16 894 -16 749 -16 c 0,13,14
 603 -16 603 -16 487 29 c 128,-1,15
 371 74 371 74 290 155 c 128,-1,16
 209 236 209 236 166 348 c 128,-1,17
 123 460 123 460 123 594 c 2,18,-1
 123 1457 l 1,19,-1
 461 1457 l 1,20,-1
 461 595 l 2,21,22
 461 518 461 518 480.5 457.5 c 128,-1,23
 500 397 500 397 537 354.5 c 128,-1,24
 574 312 574 312 627.5 289.5 c 128,-1,25
 681 267 681 267 749 267 c 256,0,1
EndSplineSet
Substitution2: "'sups' +BBIENQRABEUEPQQ4BDkA +BDgEPQQ0BDUEOgRB lookup 25 subtable" _2983
EndChar

StartChar: V
Encoding: 86 86 24
Width: 1422
Flags: W
AnchorPoint: "+BBEENQQ3BEsEPARPBD0EPQQ+BDUA--3" 714 1525 basechar 0
AnchorPoint: "+BBEENQQ3BEsEPARPBD0EPQQ+BDUA--1" 711 -70 basechar 0
AnchorPoint: "+BBEENQQ3BEsEPARPBD0EPQQ+BDUA--0" 714 1525 basechar 0
LayerCount: 2
Fore
SplineSet
1448 1457 m 1,0,-1
 864 0 l 1,1,-1
 558 0 l 1,2,-1
 -26 1457 l 1,3,-1
 246 1457 l 2,4,5
 290 1457 290 1457 317 1436.5 c 128,-1,6
 344 1416 344 1416 358 1384 c 2,7,-1
 640 604 l 2,8,9
 660 553 660 553 679 492.5 c 128,-1,10
 698 432 698 432 715 366 c 1,11,12
 729 432 729 432 746.5 492.5 c 128,-1,13
 764 553 764 553 784 604 c 2,14,-1
 1064 1384 l 2,15,16
 1075 1412 1075 1412 1103.5 1434.5 c 128,-1,17
 1132 1457 1132 1457 1174 1457 c 2,18,-1
 1448 1457 l 1,0,-1
EndSplineSet
Substitution2: "'sups' +BBIENQRABEUEPQQ4BDkA +BDgEPQQ0BDUEOgRB lookup 25 subtable" _504
EndChar

StartChar: W
Encoding: 87 87 25
Width: 2130
Flags: W
AnchorPoint: "+BBEENQQ3BEsEPARPBD0EPQQ+BDUA--3" 1064 1525 basechar 0
AnchorPoint: "+BBEENQQ3BEsEPARPBD0EPQQ+BDUA--1" 1065 -70 basechar 0
AnchorPoint: "+BBEENQQ3BEsEPARPBD0EPQQ+BDUA--0" 1064 1525 basechar 0
LayerCount: 2
Fore
SplineSet
2126 1457 m 1,0,-1
 1676 0 l 1,1,-1
 1370 0 l 1,2,-1
 1096 903 l 2,3,4
 1088 924 1088 924 1081 949.5 c 128,-1,5
 1074 975 1074 975 1067 1003 c 1,6,7
 1060 975 1060 975 1053 949.5 c 128,-1,8
 1046 924 1046 924 1038 903 c 2,9,-1
 760 0 l 1,10,-1
 454 0 l 1,11,-1
 4 1457 l 1,12,-1
 288 1457 l 2,13,14
 332 1457 332 1457 361.5 1437 c 128,-1,15
 391 1417 391 1417 400 1384 c 2,16,-1
 600 624 l 2,17,18
 609 588 609 588 618 545.5 c 128,-1,19
 627 503 627 503 636 457 c 1,20,21
 654 551 654 551 680 624 c 2,22,-1
 916 1384 l 2,23,24
 925 1412 925 1412 954.5 1434.5 c 128,-1,25
 984 1457 984 1457 1026 1457 c 2,26,-1
 1126 1457 l 2,27,28
 1170 1457 1170 1457 1197 1436.5 c 128,-1,29
 1224 1416 1224 1416 1238 1384 c 2,30,-1
 1472 624 l 1,31,32
 1498 554 1498 554 1516 465 c 1,33,34
 1524 510 1524 510 1532.5 549.5 c 128,-1,35
 1541 589 1541 589 1550 624 c 2,36,-1
 1750 1384 l 2,37,38
 1758 1413 1758 1413 1788 1435 c 128,-1,39
 1818 1457 1818 1457 1860 1457 c 2,40,-1
 2126 1457 l 1,0,-1
EndSplineSet
Substitution2: "'sups' +BBIENQRABEUEPQQ4BDkA +BDgEPQQ0BDUEOgRB lookup 25 subtable" _2984
EndChar

StartChar: X
Encoding: 88 88 26
Width: 1380
Flags: W
AnchorPoint: "+BBEENQQ3BEsEPARPBD0EPQQ+BDUA--3" 690 1525 basechar 0
AnchorPoint: "+BBEENQQ3BEsEPARPBD0EPQQ+BDUA--1" 690 -70 basechar 0
AnchorPoint: "+BBEENQQ3BEsEPARPBD0EPQQ+BDUA--0" 690 1525 basechar 0
LayerCount: 2
Fore
SplineSet
1391 0 m 1,0,-1
 1053 0 l 2,1,2
 1020 0 1020 0 999.5 16 c 128,-1,3
 979 32 979 32 967 54 c 2,4,-1
 675 564 l 1,5,6
 667 542 667 542 657 526 c 2,7,-1
 385 54 l 2,8,9
 371 34 371 34 352 17 c 128,-1,10
 333 0 333 0 303 0 c 2,11,-1
 -13 0 l 1,12,-1
 456 750 l 1,13,-1
 5 1457 l 1,14,-1
 343 1457 l 2,15,16
 376 1457 376 1457 391.5 1448.5 c 128,-1,17
 407 1440 407 1440 419 1420 c 2,18,-1
 709 929 l 1,19,20
 714 942 714 942 720.5 954 c 128,-1,21
 727 966 727 966 735 979 c 2,22,-1
 989 1415 l 2,23,24
 1003 1437 1003 1437 1018.5 1447 c 128,-1,25
 1034 1457 1034 1457 1057 1457 c 2,26,-1
 1381 1457 l 1,27,-1
 924 764 l 1,28,-1
 1391 0 l 1,0,-1
EndSplineSet
Substitution2: "'sups' +BBIENQRABEUEPQQ4BDkA +BDgEPQQ0BDUEOgRB lookup 25 subtable" _505
EndChar

StartChar: Y
Encoding: 89 89 27
Width: 1340
Flags: W
AnchorPoint: "+BBEENQQ3BEsEPARPBD0EPQQ+BDUA--3" 673 1525 basechar 0
AnchorPoint: "+BBEENQQ3BEsEPARPBD0EPQQ+BDUA--2" -210 1120 basechar 0
AnchorPoint: "+BBEENQQ3BEsEPARPBD0EPQQ+BDUA--1" 670 -70 basechar 0
AnchorPoint: "+BBEENQQ3BEsEPARPBD0EPQQ+BDUA--0" 673 1525 basechar 0
LayerCount: 2
Fore
SplineSet
839 554 m 1,0,-1
 839 0 l 1,1,-1
 501 0 l 1,2,-1
 501 554 l 1,3,-1
 -27 1457 l 1,4,-1
 271 1457 l 2,5,6
 315 1457 315 1457 340.5 1436.5 c 128,-1,7
 366 1416 366 1416 383 1384 c 2,8,-1
 589 960 l 2,9,10
 615 910 615 910 636 866.5 c 128,-1,11
 657 823 657 823 673 781 c 1,12,13
 688 824 688 824 707.5 867.5 c 128,-1,14
 727 911 727 911 753 960 c 2,15,-1
 957 1384 l 2,16,17
 964 1397 964 1397 974 1410 c 128,-1,18
 984 1423 984 1423 997.5 1433.5 c 128,-1,19
 1011 1444 1011 1444 1028.5 1450.5 c 128,-1,20
 1046 1457 1046 1457 1067 1457 c 2,21,-1
 1367 1457 l 1,22,-1
 839 554 l 1,0,-1
EndSplineSet
Substitution2: "'sups' +BBIENQRABEUEPQQ4BDkA +BDgEPQQ0BDUEOgRB lookup 25 subtable" _506
EndChar

StartChar: Z
Encoding: 90 90 28
Width: 1218
Flags: W
AnchorPoint: "+BBEENQQ3BEsEPARPBD0EPQQ+BDUA--3" 632 1525 basechar 0
AnchorPoint: "+BBEENQQ3BEsEPARPBD0EPQQ+BDUA--1" 636 -70 basechar 0
AnchorPoint: "+BBEENQQ3BEsEPARPBD0EPQQ+BDUA--0" 632 1525 basechar 0
LayerCount: 2
Fore
SplineSet
1174 1335 m 2,0,1
 1174 1309 1174 1309 1165.5 1284 c 128,-1,2
 1157 1259 1157 1259 1142 1237 c 2,3,-1
 458 260 l 1,4,-1
 1152 260 l 1,5,-1
 1152 0 l 1,6,-1
 28 0 l 1,7,-1
 28 130 l 2,8,9
 28 153 28 153 36 175.5 c 128,-1,10
 44 198 44 198 58 217 c 2,11,-1
 744 1197 l 1,12,-1
 84 1197 l 1,13,-1
 84 1457 l 1,14,-1
 1174 1457 l 1,15,-1
 1174 1335 l 2,0,1
EndSplineSet
Substitution2: "'sups' +BBIENQRABEUEPQQ4BDkA +BDgEPQQ0BDUEOgRB lookup 25 subtable" _507
EndChar

StartChar: a
Encoding: 97 97 29
Width: 1035
Flags: W
AnchorPoint: "+BBEENQQ3BEsEPARPBD0EPQQ+BDUA--3" 511 1120 basechar 0
AnchorPoint: "+BBEENQQ3BEsEPARPBD0EPQQ+BDUA--1" 504 -70 basechar 0
LayerCount: 2
Fore
SplineSet
640 422 m 1,0,1
 547 418 547 418 487 406 c 128,-1,2
 427 394 427 394 392 376 c 128,-1,3
 357 358 357 358 343.5 335 c 128,-1,4
 330 312 330 312 330 285 c 0,5,6
 330 232 330 232 359 210.5 c 128,-1,7
 388 189 388 189 444 189 c 0,8,9
 504 189 504 189 549 210 c 128,-1,10
 594 231 594 231 640 278 c 1,11,-1
 640 422 l 1,0,1
82 893 m 1,12,13
 176 976 176 976 290.5 1016.5 c 128,-1,14
 405 1057 405 1057 536 1057 c 0,15,16
 630 1057 630 1057 705.5 1026.5 c 128,-1,17
 781 996 781 996 833.5 941.5 c 128,-1,18
 886 887 886 887 914 812 c 128,-1,19
 942 737 942 737 942 648 c 2,20,-1
 942 0 l 1,21,-1
 800 0 l 2,22,23
 756 0 756 0 733.5 12 c 128,-1,24
 711 24 711 24 696 62 c 2,25,-1
 674 119 l 1,26,27
 635 86 635 86 599 61 c 128,-1,28
 563 36 563 36 524.5 18.5 c 128,-1,29
 486 1 486 1 442.5 -7.5 c 128,-1,30
 399 -16 399 -16 346 -16 c 0,31,32
 275 -16 275 -16 217 2.5 c 128,-1,33
 159 21 159 21 118.5 57 c 128,-1,34
 78 93 78 93 56 146.5 c 128,-1,35
 34 200 34 200 34 270 c 0,36,37
 34 326 34 326 62 383.5 c 128,-1,38
 90 441 90 441 159 488.5 c 128,-1,39
 228 536 228 536 345 568 c 128,-1,40
 462 600 462 600 640 604 c 1,41,-1
 640 648 l 2,42,43
 640 739 640 739 602.5 779.5 c 128,-1,44
 565 820 565 820 496 820 c 0,45,46
 441 820 441 820 406 808 c 128,-1,47
 371 796 371 796 343.5 781 c 128,-1,48
 316 766 316 766 290 754 c 128,-1,49
 264 742 264 742 228 742 c 0,50,51
 196 742 196 742 174 758 c 128,-1,52
 152 774 152 774 138 796 c 2,53,-1
 82 893 l 1,12,13
EndSplineSet
Substitution2: "'ordn' Ordinals in Latin lookup 29 subtable" _144
Substitution2: "'sups' +BBIENQRABEUEPQQ4BDkA +BDgEPQQ0BDUEOgRB lookup 25 subtable" _144
EndChar

StartChar: b
Encoding: 98 98 30
Width: 1149
Flags: W
AnchorPoint: "+BBEENQQ3BEsEPARPBD0EPQQ+BDUA--3" 692 1120 basechar 0
AnchorPoint: "+BBEENQQ3BEsEPARPBD0EPQQ+BDUA--1" 591 -70 basechar 0
AnchorPoint: "+BBEENQQ3BEsEPARPBD0EPQQ+BDUA--0" 337 1525 basechar 0
LayerCount: 2
Fore
SplineSet
415 282 m 1,0,1
 450 244 450 244 491 228 c 128,-1,2
 532 212 532 212 574 212 c 0,3,4
 618 212 618 212 655 228.5 c 128,-1,5
 692 245 692 245 718.5 282.5 c 128,-1,6
 745 320 745 320 760 381.5 c 128,-1,7
 775 443 775 443 775 533 c 0,8,9
 775 611 775 611 763.5 665.5 c 128,-1,10
 752 720 752 720 729.5 754.5 c 128,-1,11
 707 789 707 789 673.5 804.5 c 128,-1,12
 640 820 640 820 597 820 c 0,13,14
 540 820 540 820 498 795 c 128,-1,15
 456 770 456 770 415 722 c 1,16,-1
 415 282 l 1,0,1
415 927 m 1,17,18
 475 984 475 984 546.5 1018.5 c 128,-1,19
 618 1053 618 1053 706 1053 c 256,20,21
 794 1053 794 1053 866 1017 c 128,-1,22
 938 981 938 981 989 914.5 c 128,-1,23
 1040 848 1040 848 1067.5 754 c 128,-1,24
 1095 660 1095 660 1095 544 c 0,25,26
 1095 418 1095 418 1063 315 c 128,-1,27
 1031 212 1031 212 972.5 138.5 c 128,-1,28
 914 65 914 65 833 24.5 c 128,-1,29
 752 -16 752 -16 654 -16 c 0,30,31
 607 -16 607 -16 570 -7 c 128,-1,32
 533 2 533 2 502 18.5 c 128,-1,33
 471 35 471 35 445.5 58 c 128,-1,34
 420 81 420 81 396 108 c 1,35,-1
 385 56 l 2,36,37
 377 24 377 24 359 12 c 128,-1,38
 341 0 341 0 311 0 c 2,39,-1
 105 0 l 1,40,-1
 105 1497 l 1,41,-1
 415 1497 l 1,42,-1
 415 927 l 1,17,18
EndSplineSet
Substitution2: "'ordn' Ordinals in Latin lookup 29 subtable" _145
Substitution2: "'sups' +BBIENQRABEUEPQQ4BDkA +BDgEPQQ0BDUEOgRB lookup 25 subtable" _145
EndChar

StartChar: c
Encoding: 99 99 31
Width: 973
Flags: W
AnchorPoint: "+BBEENQQ3BEsEPARPBD0EPQQ+BDUA--3" 561 1120 basechar 0
AnchorPoint: "+BBEENQQ3BEsEPARPBD0EPQQ+BDUA--1" 547 -70 basechar 0
LayerCount: 2
Fore
SplineSet
867 791 m 2,0,1
 853 774 853 774 840 764 c 128,-1,2
 827 754 827 754 803 754 c 0,3,4
 780 754 780 754 761.5 765 c 128,-1,5
 743 776 743 776 720 789.5 c 128,-1,6
 697 803 697 803 666 814 c 128,-1,7
 635 825 635 825 589 825 c 0,8,9
 532 825 532 825 490.5 804 c 128,-1,10
 449 783 449 783 422 744 c 128,-1,11
 395 705 395 705 382 648.5 c 128,-1,12
 369 592 369 592 369 521 c 0,13,14
 369 372 369 372 426.5 292 c 128,-1,15
 484 212 484 212 585 212 c 0,16,17
 639 212 639 212 670.5 225.5 c 128,-1,18
 702 239 702 239 724 255.5 c 128,-1,19
 746 272 746 272 764.5 286 c 128,-1,20
 783 300 783 300 811 300 c 0,21,22
 848 300 848 300 867 273 c 2,23,-1
 957 162 l 1,24,25
 909 107 909 107 856 72.5 c 128,-1,26
 803 38 803 38 747.5 18.5 c 128,-1,27
 692 -1 692 -1 636 -8.5 c 128,-1,28
 580 -16 580 -16 527 -16 c 0,29,30
 432 -16 432 -16 345.5 20 c 128,-1,31
 259 56 259 56 193.5 124.5 c 128,-1,32
 128 193 128 193 89.5 293 c 128,-1,33
 51 393 51 393 51 521 c 0,34,35
 51 633 51 633 84.5 730.5 c 128,-1,36
 118 828 118 828 183.5 899.5 c 128,-1,37
 249 971 249 971 345.5 1012 c 128,-1,38
 442 1053 442 1053 569 1053 c 0,39,40
 691 1053 691 1053 783 1014 c 128,-1,41
 875 975 875 975 949 900 c 1,42,-1
 867 791 l 2,0,1
EndSplineSet
Substitution2: "'ordn' Ordinals in Latin lookup 29 subtable" _146
Substitution2: "'sups' +BBIENQRABEUEPQQ4BDkA +BDgEPQQ0BDUEOgRB lookup 25 subtable" _146
EndChar

StartChar: _051
Encoding: 65537 -1 32
Width: 2133
Flags: W
LayerCount: 2
Fore
SplineSet
1407 946 m 1,0,1
 1463 994 1463 994 1528.5 1023.5 c 128,-1,2
 1594 1053 1594 1053 1685 1053 c 0,3,4
 1770 1053 1770 1053 1835.5 1023.5 c 128,-1,5
 1901 994 1901 994 1946 941.5 c 128,-1,6
 1991 889 1991 889 2014 816.5 c 128,-1,7
 2037 744 2037 744 2037 659 c 2,8,-1
 2037 0 l 1,9,-1
 1727 0 l 1,10,-1
 1727 659 l 2,11,12
 1727 735 1727 735 1692 777.5 c 128,-1,13
 1657 820 1657 820 1589 820 c 0,14,15
 1538 820 1538 820 1493.5 798.5 c 128,-1,16
 1449 777 1449 777 1407 740 c 1,17,-1
 1407 0 l 1,18,-1
 1097 0 l 1,19,-1
 1097 1352 l 2,20,21
 1097 1369 1097 1369 1084.5 1382 c 128,-1,22
 1072 1395 1072 1395 1052 1403.5 c 128,-1,23
 1032 1412 1032 1412 1007 1416 c 128,-1,24
 982 1420 982 1420 957 1420 c 0,25,26
 908 1420 908 1420 870 1405 c 128,-1,27
 832 1390 832 1390 806.5 1363 c 128,-1,28
 781 1336 781 1336 768 1298.5 c 128,-1,29
 755 1261 755 1261 755 1216 c 0,30,31
 755 1153 755 1153 779 1093.5 c 128,-1,32
 803 1034 803 1034 845 983 c 1,33,34
 901 950 901 950 949 900 c 1,35,-1
 867 791 l 2,36,37
 853 774 853 774 840 764 c 128,-1,38
 827 754 827 754 803 754 c 0,39,40
 780 754 780 754 761.5 765 c 128,-1,41
 743 776 743 776 720 789.5 c 128,-1,42
 697 803 697 803 666 814 c 128,-1,43
 635 825 635 825 589 825 c 0,44,45
 532 825 532 825 490.5 804 c 128,-1,46
 449 783 449 783 422 744 c 128,-1,47
 395 705 395 705 382 648.5 c 128,-1,48
 369 592 369 592 369 521 c 0,49,50
 369 372 369 372 426.5 292 c 128,-1,51
 484 212 484 212 585 212 c 0,52,53
 639 212 639 212 670.5 225.5 c 128,-1,54
 702 239 702 239 724 255.5 c 128,-1,55
 746 272 746 272 764.5 286 c 128,-1,56
 783 300 783 300 811 300 c 0,57,58
 848 300 848 300 867 273 c 2,59,-1
 957 162 l 1,60,61
 909 107 909 107 856 72.5 c 128,-1,62
 803 38 803 38 747.5 18.5 c 128,-1,63
 692 -1 692 -1 636 -8.5 c 128,-1,64
 580 -16 580 -16 527 -16 c 0,65,66
 432 -16 432 -16 345.5 20 c 128,-1,67
 259 56 259 56 193.5 124.5 c 128,-1,68
 128 193 128 193 89.5 293 c 128,-1,69
 51 393 51 393 51 521 c 0,70,71
 51 633 51 633 84.5 730.5 c 128,-1,72
 118 828 118 828 183.5 899.5 c 128,-1,73
 249 971 249 971 345.5 1012 c 128,-1,74
 442 1053 442 1053 569 1053 c 0,75,76
 588 1053 588 1053 606.5 1052 c 128,-1,77
 625 1051 625 1051 642 1049 c 1,78,79
 627 1088 627 1088 619 1128.5 c 128,-1,80
 611 1169 611 1169 611 1211 c 0,81,82
 611 1288 611 1288 639.5 1353.5 c 128,-1,83
 668 1419 668 1419 722 1467 c 128,-1,84
 776 1515 776 1515 854.5 1542 c 128,-1,85
 933 1569 933 1569 1034 1569 c 0,86,87
 1102 1569 1102 1569 1155 1557.5 c 128,-1,88
 1208 1546 1208 1546 1251.5 1532.5 c 128,-1,89
 1295 1519 1295 1519 1332 1508 c 128,-1,90
 1369 1497 1369 1497 1407 1497 c 1,91,-1
 1407 946 l 1,0,1
EndSplineSet
Ligature2: "'dlig' Discretionary Ligatures in Latin lookup 32 subtable" c h
EndChar

StartChar: _052
Encoding: 65538 -1 33
Width: 2109
Flags: W
LayerCount: 2
Fore
SplineSet
867 791 m 2,0,1
 853 774 853 774 840 764 c 128,-1,2
 827 754 827 754 803 754 c 0,3,4
 780 754 780 754 761.5 765 c 128,-1,5
 743 776 743 776 720 789.5 c 128,-1,6
 697 803 697 803 666 814 c 128,-1,7
 635 825 635 825 589 825 c 0,8,9
 532 825 532 825 490.5 804 c 128,-1,10
 449 783 449 783 422 744 c 128,-1,11
 395 705 395 705 382 648.5 c 128,-1,12
 369 592 369 592 369 521 c 0,13,14
 369 372 369 372 426.5 292 c 128,-1,15
 484 212 484 212 585 212 c 0,16,17
 639 212 639 212 670.5 225.5 c 128,-1,18
 702 239 702 239 724 255.5 c 128,-1,19
 746 272 746 272 764.5 286 c 128,-1,20
 783 300 783 300 811 300 c 0,21,22
 848 300 848 300 867 273 c 2,23,-1
 957 162 l 1,24,25
 909 107 909 107 856 72.5 c 128,-1,26
 803 38 803 38 747.5 18.5 c 128,-1,27
 692 -1 692 -1 636 -8.5 c 128,-1,28
 580 -16 580 -16 527 -16 c 0,29,30
 432 -16 432 -16 345.5 20 c 128,-1,31
 259 56 259 56 193.5 124.5 c 128,-1,32
 128 193 128 193 89.5 293 c 128,-1,33
 51 393 51 393 51 521 c 0,34,35
 51 633 51 633 84.5 730.5 c 128,-1,36
 118 828 118 828 183.5 899.5 c 128,-1,37
 249 971 249 971 345.5 1012 c 128,-1,38
 442 1053 442 1053 569 1053 c 0,39,40
 588 1053 588 1053 606 1052 c 128,-1,41
 624 1051 624 1051 641 1049 c 1,42,43
 611 1125 611 1125 611 1211 c 0,44,45
 611 1288 611 1288 639.5 1353.5 c 128,-1,46
 668 1419 668 1419 722 1467 c 128,-1,47
 776 1515 776 1515 854.5 1542 c 128,-1,48
 933 1569 933 1569 1034 1569 c 0,49,50
 1100 1569 1100 1569 1152 1558 c 128,-1,51
 1204 1547 1204 1547 1246.5 1534 c 128,-1,52
 1289 1521 1289 1521 1326 1509.5 c 128,-1,53
 1363 1498 1363 1498 1399 1497 c 2,54,-1
 1407 1497 l 1,55,-1
 1407 658 l 1,56,-1
 1453 658 l 2,57,58
 1482 658 1482 658 1497 666.5 c 128,-1,59
 1512 675 1512 675 1527 695 c 2,60,-1
 1723 987 l 2,61,62
 1741 1012 1741 1012 1764 1024.5 c 128,-1,63
 1787 1037 1787 1037 1823 1037 c 2,64,-1
 2107 1037 l 1,65,-1
 1839 668 l 2,66,67
 1801 618 1801 618 1749 586 c 1,68,69
 1772 569 1772 569 1791 546.5 c 128,-1,70
 1810 524 1810 524 1827 496 c 2,71,-1
 2119 0 l 1,72,-1
 1839 0 l 2,73,74
 1804 0 1804 0 1779 11.5 c 128,-1,75
 1754 23 1754 23 1737 52 c 2,76,-1
 1541 419 l 2,77,78
 1527 444 1527 444 1512 451.5 c 128,-1,79
 1497 459 1497 459 1467 459 c 2,80,-1
 1407 459 l 1,81,-1
 1407 0 l 1,82,-1
 1097 0 l 1,83,-1
 1097 1352 l 2,84,85
 1097 1369 1097 1369 1084.5 1382 c 128,-1,86
 1072 1395 1072 1395 1052 1403.5 c 128,-1,87
 1032 1412 1032 1412 1007 1416 c 128,-1,88
 982 1420 982 1420 957 1420 c 0,89,90
 908 1420 908 1420 870 1405 c 128,-1,91
 832 1390 832 1390 806.5 1363 c 128,-1,92
 781 1336 781 1336 768 1298.5 c 128,-1,93
 755 1261 755 1261 755 1216 c 0,94,95
 755 1153 755 1153 779 1093.5 c 128,-1,96
 803 1034 803 1034 844 983 c 1,97,98
 873 966 873 966 898.5 945.5 c 128,-1,99
 924 925 924 925 949 900 c 1,100,-1
 867 791 l 2,0,1
EndSplineSet
Ligature2: "'dlig' Discretionary Ligatures in Latin lookup 32 subtable" c k
EndChar

StartChar: _053
Encoding: 65539 -1 34
Width: 1739
Flags: W
LayerCount: 2
Fore
SplineSet
1737 74 m 1,0,1
 1677 29 1677 29 1602 6.5 c 128,-1,2
 1527 -16 1527 -16 1447 -16 c 0,3,4
 1373 -16 1373 -16 1316.5 5.5 c 128,-1,5
 1260 27 1260 27 1221.5 66.5 c 128,-1,6
 1183 106 1183 106 1163 162 c 128,-1,7
 1143 218 1143 218 1143 287 c 2,8,-1
 1143 823 l 1,9,-1
 1055 823 l 2,10,11
 1031 823 1031 823 1014 838.5 c 128,-1,12
 997 854 997 854 997 884 c 2,13,-1
 997 1005 l 1,14,-1
 1182 1042 l 1,15,16
 1194 1069 1194 1069 1205 1099.5 c 128,-1,17
 1216 1130 1216 1130 1224.5 1161 c 128,-1,18
 1233 1192 1233 1192 1238 1221 c 128,-1,19
 1243 1250 1243 1250 1243 1276 c 0,20,21
 1243 1309 1243 1309 1235.5 1340.5 c 128,-1,22
 1228 1372 1228 1372 1207 1396 c 128,-1,23
 1186 1420 1186 1420 1149.5 1435 c 128,-1,24
 1113 1450 1113 1450 1055 1450 c 0,25,26
 988 1450 988 1450 936 1428.5 c 128,-1,27
 884 1407 884 1407 848 1370.5 c 128,-1,28
 812 1334 812 1334 793.5 1286 c 128,-1,29
 775 1238 775 1238 775 1186 c 0,30,31
 775 1135 775 1135 793 1082 c 128,-1,32
 811 1029 811 1029 848 981 c 1,33,34
 903 947 903 947 949 900 c 1,35,-1
 867 791 l 2,36,37
 853 774 853 774 840 764 c 128,-1,38
 827 754 827 754 803 754 c 0,39,40
 780 754 780 754 761.5 765 c 128,-1,41
 743 776 743 776 720 789.5 c 128,-1,42
 697 803 697 803 666 814 c 128,-1,43
 635 825 635 825 589 825 c 0,44,45
 532 825 532 825 490.5 804 c 128,-1,46
 449 783 449 783 422 744 c 128,-1,47
 395 705 395 705 382 648.5 c 128,-1,48
 369 592 369 592 369 521 c 0,49,50
 369 372 369 372 426.5 292 c 128,-1,51
 484 212 484 212 585 212 c 0,52,53
 639 212 639 212 670.5 225.5 c 128,-1,54
 702 239 702 239 724 255.5 c 128,-1,55
 746 272 746 272 764.5 286 c 128,-1,56
 783 300 783 300 811 300 c 0,57,58
 848 300 848 300 867 273 c 2,59,-1
 957 162 l 1,60,61
 909 107 909 107 856 72.5 c 128,-1,62
 803 38 803 38 747.5 18.5 c 128,-1,63
 692 -1 692 -1 636 -8.5 c 128,-1,64
 580 -16 580 -16 527 -16 c 0,65,66
 432 -16 432 -16 345.5 20 c 128,-1,67
 259 56 259 56 193.5 124.5 c 128,-1,68
 128 193 128 193 89.5 293 c 128,-1,69
 51 393 51 393 51 521 c 0,70,71
 51 633 51 633 84.5 730.5 c 128,-1,72
 118 828 118 828 183.5 899.5 c 128,-1,73
 249 971 249 971 345.5 1012 c 128,-1,74
 442 1053 442 1053 569 1053 c 0,75,76
 591 1053 591 1053 611.5 1051.5 c 128,-1,77
 632 1050 632 1050 652 1048 c 1,78,79
 631 1114 631 1114 631 1184 c 0,80,81
 631 1257 631 1257 656.5 1326.5 c 128,-1,82
 682 1396 682 1396 734.5 1450 c 128,-1,83
 787 1504 787 1504 867 1536.5 c 128,-1,84
 947 1569 947 1569 1055 1569 c 256,85,86
 1163 1569 1163 1569 1238.5 1539 c 128,-1,87
 1314 1509 1314 1509 1362 1460 c 128,-1,88
 1410 1411 1410 1411 1431.5 1348.5 c 128,-1,89
 1453 1286 1453 1286 1453 1222 c 2,90,-1
 1453 1035 l 1,91,-1
 1710 1035 l 1,92,-1
 1710 823 l 1,93,-1
 1453 823 l 1,94,-1
 1453 308 l 2,95,96
 1453 272 1453 272 1470.5 248.5 c 128,-1,97
 1488 225 1488 225 1521 225 c 0,98,99
 1538 225 1538 225 1549.5 228.5 c 128,-1,100
 1561 232 1561 232 1569.5 236.5 c 128,-1,101
 1578 241 1578 241 1585.5 244.5 c 128,-1,102
 1593 248 1593 248 1603 248 c 0,103,104
 1617 248 1617 248 1625.5 241.5 c 128,-1,105
 1634 235 1634 235 1643 221 c 2,106,-1
 1737 74 l 1,0,1
EndSplineSet
Ligature2: "'dlig' Discretionary Ligatures in Latin lookup 32 subtable" c t
EndChar

StartChar: _054
Encoding: 65540 -1 35
Width: 1741
Flags: W
LayerCount: 2
Fore
SplineSet
1453 1035 m 1,0,-1
 1710 1035 l 1,1,-1
 1710 823 l 1,2,-1
 1453 823 l 1,3,-1
 1453 308 l 2,4,5
 1453 272 1453 272 1470.5 248.5 c 128,-1,6
 1488 225 1488 225 1521 225 c 0,7,8
 1538 225 1538 225 1549.5 228.5 c 128,-1,9
 1561 232 1561 232 1569.5 236.5 c 128,-1,10
 1578 241 1578 241 1585.5 244.5 c 128,-1,11
 1593 248 1593 248 1603 248 c 0,12,13
 1617 248 1617 248 1625.5 241.5 c 128,-1,14
 1634 235 1634 235 1643 221 c 2,15,-1
 1737 74 l 1,16,17
 1677 29 1677 29 1602 6.5 c 128,-1,18
 1527 -16 1527 -16 1447 -16 c 0,19,20
 1373 -16 1373 -16 1316.5 5.5 c 128,-1,21
 1260 27 1260 27 1221.5 66.5 c 128,-1,22
 1183 106 1183 106 1163 162 c 128,-1,23
 1143 218 1143 218 1143 287 c 2,24,-1
 1143 823 l 1,25,-1
 1055 823 l 2,26,27
 1031 823 1031 823 1014 838.5 c 128,-1,28
 997 854 997 854 997 884 c 2,29,-1
 997 1005 l 1,30,-1
 1182 1041 l 1,31,32
 1194 1068 1194 1068 1205 1099 c 128,-1,33
 1216 1130 1216 1130 1224.5 1160.5 c 128,-1,34
 1233 1191 1233 1191 1238 1220.5 c 128,-1,35
 1243 1250 1243 1250 1243 1276 c 0,36,37
 1243 1309 1243 1309 1235.5 1340.5 c 128,-1,38
 1228 1372 1228 1372 1207 1396 c 128,-1,39
 1186 1420 1186 1420 1149.5 1435 c 128,-1,40
 1113 1450 1113 1450 1055 1450 c 0,41,42
 988 1450 988 1450 936 1428.5 c 128,-1,43
 884 1407 884 1407 848 1370.5 c 128,-1,44
 812 1334 812 1334 793.5 1286 c 128,-1,45
 775 1238 775 1238 775 1186 c 256,46,47
 775 1134 775 1134 792.5 1081.5 c 128,-1,48
 810 1029 810 1029 847 981 c 1,49,50
 875 964 875 964 900 944 c 128,-1,51
 925 924 925 924 949 900 c 1,52,-1
 867 791 l 2,53,54
 853 774 853 774 840 764 c 128,-1,55
 827 754 827 754 803 754 c 0,56,57
 780 754 780 754 761.5 765 c 128,-1,58
 743 776 743 776 720 789.5 c 128,-1,59
 697 803 697 803 666 814 c 128,-1,60
 635 825 635 825 589 825 c 0,61,62
 532 825 532 825 490.5 804 c 128,-1,63
 449 783 449 783 422 744 c 128,-1,64
 395 705 395 705 382 648.5 c 128,-1,65
 369 592 369 592 369 521 c 0,66,67
 369 372 369 372 426.5 292 c 128,-1,68
 484 212 484 212 585 212 c 0,69,70
 639 212 639 212 670.5 225.5 c 128,-1,71
 702 239 702 239 724 255.5 c 128,-1,72
 746 272 746 272 764.5 286 c 128,-1,73
 783 300 783 300 811 300 c 0,74,75
 848 300 848 300 867 273 c 2,76,-1
 957 162 l 1,77,78
 919 118 919 118 877.5 87.5 c 128,-1,79
 836 57 836 57 792.5 37 c 128,-1,80
 749 17 749 17 704.5 5.5 c 128,-1,81
 660 -6 660 -6 616 -11 c 1,82,-1
 606 -50 l 1,83,84
 654 -62 654 -62 685.5 -78 c 128,-1,85
 717 -94 717 -94 735.5 -113.5 c 128,-1,86
 754 -133 754 -133 762 -156 c 128,-1,87
 770 -179 770 -179 770 -204 c 0,88,89
 770 -239 770 -239 750.5 -267 c 128,-1,90
 731 -295 731 -295 696 -315 c 128,-1,91
 661 -335 661 -335 611.5 -345.5 c 128,-1,92
 562 -356 562 -356 502 -356 c 0,93,94
 461 -356 461 -356 426.5 -352 c 128,-1,95
 392 -348 392 -348 354 -340 c 1,96,-1
 382 -247 l 2,97,98
 388 -220 388 -220 416 -220 c 0,99,100
 431 -220 431 -220 445 -223.5 c 128,-1,101
 459 -227 459 -227 480 -227 c 0,102,103
 506 -227 506 -227 517 -218 c 128,-1,104
 528 -209 528 -209 528 -198 c 0,105,106
 528 -176 528 -176 497.5 -166 c 128,-1,107
 467 -156 467 -156 394 -145 c 1,108,-1
 441 -8 l 1,109,110
 360 7 360 7 289 49 c 128,-1,111
 218 91 218 91 165 158 c 128,-1,112
 112 225 112 225 81.5 316.5 c 128,-1,113
 51 408 51 408 51 521 c 0,114,115
 51 633 51 633 84.5 730.5 c 128,-1,116
 118 828 118 828 183.5 899.5 c 128,-1,117
 249 971 249 971 345.5 1012 c 128,-1,118
 442 1053 442 1053 569 1053 c 0,119,120
 591 1053 591 1053 611.5 1051.5 c 128,-1,121
 632 1050 632 1050 652 1048 c 1,122,123
 631 1114 631 1114 631 1184 c 0,124,125
 631 1257 631 1257 656.5 1326.5 c 128,-1,126
 682 1396 682 1396 734.5 1450 c 128,-1,127
 787 1504 787 1504 867 1536.5 c 128,-1,128
 947 1569 947 1569 1055 1569 c 256,129,130
 1163 1569 1163 1569 1238.5 1539 c 128,-1,131
 1314 1509 1314 1509 1362 1460 c 128,-1,132
 1410 1411 1410 1411 1431.5 1348.5 c 128,-1,133
 1453 1286 1453 1286 1453 1222 c 2,134,-1
 1453 1035 l 1,0,-1
EndSplineSet
Ligature2: "'dlig' Discretionary Ligatures in Latin lookup 32 subtable" ccedilla t
EndChar

StartChar: d
Encoding: 100 100 36
Width: 1149
Flags: W
AnchorPoint: "+BBEENQQ3BEsEPARPBD0EPQQ+BDUA--3" 483 1120 basechar 0
AnchorPoint: "+BBEENQQ3BEsEPARPBD0EPQQ+BDUA--1" 601 -70 basechar 0
AnchorPoint: "+BBEENQQ3BEsEPARPBD0EPQQ+BDUA--0" 817 1525 basechar 0
LayerCount: 2
Fore
SplineSet
734 759 m 1,0,1
 699 798 699 798 658 813.5 c 128,-1,2
 617 829 617 829 572 829 c 0,3,4
 529 829 529 829 493 812 c 128,-1,5
 457 795 457 795 430.5 757.5 c 128,-1,6
 404 720 404 720 389 660 c 128,-1,7
 374 600 374 600 374 515 c 0,8,9
 374 433 374 433 386 377 c 128,-1,10
 398 321 398 321 419.5 286.5 c 128,-1,11
 441 252 441 252 471 237 c 128,-1,12
 501 222 501 222 538 222 c 0,13,14
 572 222 572 222 599.5 228.5 c 128,-1,15
 627 235 627 235 650 247 c 128,-1,16
 673 259 673 259 693.5 277.5 c 128,-1,17
 714 296 714 296 734 320 c 1,18,-1
 734 759 l 1,0,1
1044 1497 m 1,19,-1
 1044 0 l 1,20,-1
 852 0 l 2,21,22
 794 0 794 0 776 52 c 2,23,-1
 752 131 l 1,24,25
 721 98 721 98 687 71 c 128,-1,26
 653 44 653 44 613.5 24.5 c 128,-1,27
 574 5 574 5 528.5 -5.5 c 128,-1,28
 483 -16 483 -16 430 -16 c 0,29,30
 349 -16 349 -16 280 20 c 128,-1,31
 211 56 211 56 161 124 c 128,-1,32
 111 192 111 192 82.5 290.5 c 128,-1,33
 54 389 54 389 54 515 c 0,34,35
 54 631 54 631 86 730.5 c 128,-1,36
 118 830 118 830 176.5 902.5 c 128,-1,37
 235 975 235 975 317 1016 c 128,-1,38
 399 1057 399 1057 498 1057 c 0,39,40
 579 1057 579 1057 634 1034 c 128,-1,41
 689 1011 689 1011 734 972 c 1,42,-1
 734 1497 l 1,43,-1
 1044 1497 l 1,19,-1
EndSplineSet
Substitution2: "'ordn' Ordinals in Latin lookup 29 subtable" _147
Substitution2: "'sups' +BBIENQRABEUEPQQ4BDkA +BDgEPQQ0BDUEOgRB lookup 25 subtable" _147
EndChar

StartChar: e
Encoding: 101 101 37
Width: 1078
Flags: W
AnchorPoint: "+BBEENQQ3BEsEPARPBD0EPQQ+BDUA--3" 570 1120 basechar 0
AnchorPoint: "+BBEENQQ3BEsEPARPBD0EPQQ+BDUA--1" 575 -70 basechar 0
LayerCount: 2
Fore
SplineSet
750 643 m 1,0,1
 750 680 750 680 740.5 715 c 128,-1,2
 731 750 731 750 709.5 777.5 c 128,-1,3
 688 805 688 805 653 822 c 128,-1,4
 618 839 618 839 568 839 c 0,5,6
 480 839 480 839 430 788.5 c 128,-1,7
 380 738 380 738 364 643 c 1,8,-1
 750 643 l 1,0,1
360 463 m 1,9,10
 375 333 375 333 439 274.5 c 128,-1,11
 503 216 503 216 604 216 c 0,12,13
 658 216 658 216 697 229 c 128,-1,14
 736 242 736 242 766.5 258 c 128,-1,15
 797 274 797 274 822.5 287 c 128,-1,16
 848 300 848 300 876 300 c 0,17,18
 913 300 913 300 932 273 c 2,19,-1
 1022 162 l 1,20,21
 974 107 974 107 918.5 72.5 c 128,-1,22
 863 38 863 38 804.5 18.5 c 128,-1,23
 746 -1 746 -1 687.5 -8.5 c 128,-1,24
 629 -16 629 -16 576 -16 c 0,25,26
 467 -16 467 -16 371.5 19.5 c 128,-1,27
 276 55 276 55 204.5 125 c 128,-1,28
 133 195 133 195 91.5 299 c 128,-1,29
 50 403 50 403 50 541 c 0,30,31
 50 645 50 645 85.5 738 c 128,-1,32
 121 831 121 831 187.5 901 c 128,-1,33
 254 971 254 971 348.5 1012 c 128,-1,34
 443 1053 443 1053 562 1053 c 0,35,36
 665 1053 665 1053 750.5 1021 c 128,-1,37
 836 989 836 989 897.5 928 c 128,-1,38
 959 867 959 867 993.5 778.5 c 128,-1,39
 1028 690 1028 690 1028 578 c 0,40,41
 1028 543 1028 543 1025 521 c 128,-1,42
 1022 499 1022 499 1014 486 c 128,-1,43
 1006 473 1006 473 992.5 468 c 128,-1,44
 979 463 979 463 958 463 c 2,45,-1
 360 463 l 1,9,10
EndSplineSet
Substitution2: "'ordn' Ordinals in Latin lookup 29 subtable" _148
Substitution2: "'sups' +BBIENQRABEUEPQQ4BDkA +BDgEPQQ0BDUEOgRB lookup 25 subtable" _148
EndChar

StartChar: f
Encoding: 102 102 38
Width: 732
Flags: W
AnchorPoint: "+BBEENQQ3BEsEPARPBD0EPQQ+BDUA--3" 526 1518 basechar 0
AnchorPoint: "+BBEENQQ3BEsEPARPBD0EPQQ+BDUA--1" 337 -70 basechar 0
AnchorPoint: "+BBEENQQ3BEsEPARPBD0EPQQ+BDUA--0" 458 1525 basechar 0
LayerCount: 2
Fore
SplineSet
182 0 m 1,0,-1
 182 824 l 1,1,-1
 114 838 l 2,2,3
 79 846 79 846 57.5 863 c 128,-1,4
 36 880 36 880 36 913 c 2,5,-1
 36 1035 l 1,6,-1
 182 1035 l 1,7,-1
 182 1094 l 2,8,9
 182 1183 182 1183 210.5 1255 c 128,-1,10
 239 1327 239 1327 292.5 1378 c 128,-1,11
 346 1429 346 1429 423 1457 c 128,-1,12
 500 1485 500 1485 598 1485 c 0,13,14
 636 1485 636 1485 668 1480.5 c 128,-1,15
 700 1476 700 1476 735 1466 c 1,16,-1
 729 1315 l 2,17,18
 728 1299 728 1299 721 1288.5 c 128,-1,19
 714 1278 714 1278 702.5 1271.5 c 128,-1,20
 691 1265 691 1265 678 1262 c 128,-1,21
 665 1259 665 1259 652 1259 c 0,22,23
 611 1259 611 1259 579 1251 c 128,-1,24
 547 1243 547 1243 525.5 1222.5 c 128,-1,25
 504 1202 504 1202 493 1168.5 c 128,-1,26
 482 1135 482 1135 482 1084 c 2,27,-1
 482 1035 l 1,28,-1
 725 1035 l 1,29,-1
 725 823 l 1,30,-1
 492 823 l 1,31,-1
 492 0 l 1,32,-1
 182 0 l 1,0,-1
EndSplineSet
Substitution2: "'ordn' Ordinals in Latin lookup 29 subtable" _149
Substitution2: "'sups' +BBIENQRABEUEPQQ4BDkA +BDgEPQQ0BDUEOgRB lookup 25 subtable" _149
EndChar

StartChar: _062
Encoding: 65541 -1 39
Width: 1903
Flags: W
LayerCount: 2
Fore
SplineSet
1169 927 m 1,0,1
 1229 984 1229 984 1300.5 1018.5 c 128,-1,2
 1372 1053 1372 1053 1460 1053 c 256,3,4
 1548 1053 1548 1053 1620 1017 c 128,-1,5
 1692 981 1692 981 1743 914.5 c 128,-1,6
 1794 848 1794 848 1821.5 754 c 128,-1,7
 1849 660 1849 660 1849 544 c 0,8,9
 1849 418 1849 418 1817 315 c 128,-1,10
 1785 212 1785 212 1726.5 138.5 c 128,-1,11
 1668 65 1668 65 1587 24.5 c 128,-1,12
 1506 -16 1506 -16 1408 -16 c 0,13,14
 1361 -16 1361 -16 1324 -7 c 128,-1,15
 1287 2 1287 2 1256 18.5 c 128,-1,16
 1225 35 1225 35 1199.5 58 c 128,-1,17
 1174 81 1174 81 1150 108 c 1,18,-1
 1139 56 l 2,19,20
 1131 24 1131 24 1113 12 c 128,-1,21
 1095 0 1095 0 1065 0 c 2,22,-1
 859 0 l 1,23,-1
 859 1298 l 1,24,25
 824 1312 824 1312 785.5 1321 c 128,-1,26
 747 1330 747 1330 709 1330 c 0,27,28
 656 1330 656 1330 613.5 1312 c 128,-1,29
 571 1294 571 1294 542 1262 c 128,-1,30
 513 1230 513 1230 497.5 1186.5 c 128,-1,31
 482 1143 482 1143 482 1092 c 2,32,-1
 482 1035 l 1,33,-1
 725 1035 l 1,34,-1
 725 823 l 1,35,-1
 492 823 l 1,36,-1
 492 0 l 1,37,-1
 182 0 l 1,38,-1
 182 824 l 1,39,-1
 114 838 l 2,40,41
 79 846 79 846 57.5 863 c 128,-1,42
 36 880 36 880 36 913 c 2,43,-1
 36 1035 l 1,44,-1
 182 1035 l 1,45,-1
 182 1092 l 2,46,47
 182 1185 182 1185 212.5 1264 c 128,-1,48
 243 1343 243 1343 309 1400.5 c 128,-1,49
 375 1458 375 1458 478.5 1490.5 c 128,-1,50
 582 1523 582 1523 729 1523 c 0,51,52
 781 1523 781 1523 826.5 1519 c 128,-1,53
 872 1515 872 1515 919 1510.5 c 128,-1,54
 966 1506 966 1506 1019 1502 c 128,-1,55
 1072 1498 1072 1498 1140 1497 c 2,56,-1
 1169 1497 l 1,57,-1
 1169 927 l 1,0,1
1169 282 m 1,58,59
 1204 244 1204 244 1245 228 c 128,-1,60
 1286 212 1286 212 1328 212 c 0,61,62
 1372 212 1372 212 1409 228.5 c 128,-1,63
 1446 245 1446 245 1472.5 282.5 c 128,-1,64
 1499 320 1499 320 1514 381.5 c 128,-1,65
 1529 443 1529 443 1529 533 c 0,66,67
 1529 611 1529 611 1517.5 665.5 c 128,-1,68
 1506 720 1506 720 1483.5 754.5 c 128,-1,69
 1461 789 1461 789 1427.5 804.5 c 128,-1,70
 1394 820 1394 820 1351 820 c 0,71,72
 1294 820 1294 820 1252 795 c 128,-1,73
 1210 770 1210 770 1169 722 c 1,74,-1
 1169 282 l 1,58,59
EndSplineSet
Ligature2: "'liga' Standard Ligatures in Latin lookup 31 subtable" f b
EndChar

StartChar: _063
Encoding: 65542 -1 40
Width: 2567
Flags: W
LayerCount: 2
Fore
SplineSet
182 0 m 1,0,-1
 182 824 l 1,1,-1
 114 838 l 2,2,3
 79 846 79 846 57.5 863 c 128,-1,4
 36 880 36 880 36 913 c 2,5,-1
 36 1035 l 1,6,-1
 182 1035 l 1,7,-1
 182 1074 l 2,8,9
 182 1163 182 1163 210.5 1235.5 c 128,-1,10
 239 1308 239 1308 292.5 1359 c 128,-1,11
 346 1410 346 1410 423 1437.5 c 128,-1,12
 500 1465 500 1465 598 1465 c 0,13,14
 636 1465 636 1465 668 1460.5 c 128,-1,15
 700 1456 700 1456 735 1447 c 1,16,-1
 729 1296 l 2,17,18
 727 1264 727 1264 702.5 1251.5 c 128,-1,19
 678 1239 678 1239 652 1239 c 0,20,21
 611 1239 611 1239 579 1231 c 128,-1,22
 547 1223 547 1223 525.5 1203 c 128,-1,23
 504 1183 504 1183 493 1149.5 c 128,-1,24
 482 1116 482 1116 482 1065 c 2,25,-1
 482 1035 l 1,26,-1
 846 1035 l 1,27,-1
 846 1092 l 2,28,29
 846 1185 846 1185 876.5 1264 c 128,-1,30
 907 1343 907 1343 973 1400.5 c 128,-1,31
 1039 1458 1039 1458 1142.5 1490.5 c 128,-1,32
 1246 1523 1246 1523 1393 1523 c 0,33,34
 1445 1523 1445 1523 1490.5 1519 c 128,-1,35
 1536 1515 1536 1515 1583 1510.5 c 128,-1,36
 1630 1506 1630 1506 1683 1502 c 128,-1,37
 1736 1498 1736 1498 1804 1497 c 2,38,-1
 1833 1497 l 1,39,-1
 1833 927 l 1,40,41
 1893 984 1893 984 1964.5 1018.5 c 128,-1,42
 2036 1053 2036 1053 2124 1053 c 256,43,44
 2212 1053 2212 1053 2284 1017 c 128,-1,45
 2356 981 2356 981 2407 914.5 c 128,-1,46
 2458 848 2458 848 2485.5 754 c 128,-1,47
 2513 660 2513 660 2513 544 c 0,48,49
 2513 418 2513 418 2481 315 c 128,-1,50
 2449 212 2449 212 2390.5 138.5 c 128,-1,51
 2332 65 2332 65 2251 24.5 c 128,-1,52
 2170 -16 2170 -16 2072 -16 c 0,53,54
 2025 -16 2025 -16 1988 -7 c 128,-1,55
 1951 2 1951 2 1920 18.5 c 128,-1,56
 1889 35 1889 35 1863.5 58 c 128,-1,57
 1838 81 1838 81 1814 108 c 1,58,-1
 1803 56 l 2,59,60
 1795 24 1795 24 1777 12 c 128,-1,61
 1759 0 1759 0 1729 0 c 2,62,-1
 1523 0 l 1,63,-1
 1523 1298 l 1,64,65
 1488 1312 1488 1312 1449.5 1321 c 128,-1,66
 1411 1330 1411 1330 1373 1330 c 0,67,68
 1320 1330 1320 1330 1277.5 1312 c 128,-1,69
 1235 1294 1235 1294 1206 1262 c 128,-1,70
 1177 1230 1177 1230 1161.5 1186.5 c 128,-1,71
 1146 1143 1146 1143 1146 1092 c 2,72,-1
 1146 1035 l 1,73,-1
 1389 1035 l 1,74,-1
 1389 823 l 1,75,-1
 1156 823 l 1,76,-1
 1156 0 l 1,77,-1
 846 0 l 1,78,-1
 846 823 l 1,79,-1
 492 823 l 1,80,-1
 492 0 l 1,81,-1
 182 0 l 1,0,-1
1833 282 m 1,82,83
 1868 244 1868 244 1909 228 c 128,-1,84
 1950 212 1950 212 1992 212 c 0,85,86
 2036 212 2036 212 2073 228.5 c 128,-1,87
 2110 245 2110 245 2136.5 282.5 c 128,-1,88
 2163 320 2163 320 2178 381.5 c 128,-1,89
 2193 443 2193 443 2193 533 c 0,90,91
 2193 611 2193 611 2181.5 665.5 c 128,-1,92
 2170 720 2170 720 2147.5 754.5 c 128,-1,93
 2125 789 2125 789 2091.5 804.5 c 128,-1,94
 2058 820 2058 820 2015 820 c 0,95,96
 1958 820 1958 820 1916 795 c 128,-1,97
 1874 770 1874 770 1833 722 c 1,98,-1
 1833 282 l 1,82,83
EndSplineSet
Ligature2: "'liga' Standard Ligatures in Latin lookup 31 subtable" f f b
EndChar

StartChar: f_f
Encoding: 64256 64256 41
Width: 1396
Flags: W
AnchorPoint: "+BBEENQQ3BEsEPARPBD0EPQQ+BDUA--3" 796 1525 basechar 0
AnchorPoint: "+BBEENQQ3BEsEPARPBD0EPQQ+BDUA--1" 669 -70 basechar 0
AnchorPoint: "+BBEENQQ3BEsEPARPBD0EPQQ+BDUA--0" 796 1525 basechar 0
LayerCount: 2
Fore
SplineSet
182 0 m 1,0,-1
 182 824 l 1,1,-1
 114 838 l 2,2,3
 79 846 79 846 57.5 863 c 128,-1,4
 36 880 36 880 36 913 c 2,5,-1
 36 1035 l 1,6,-1
 182 1035 l 1,7,-1
 182 1074 l 2,8,9
 182 1163 182 1163 210.5 1235.5 c 128,-1,10
 239 1308 239 1308 292.5 1359 c 128,-1,11
 346 1410 346 1410 423 1437.5 c 128,-1,12
 500 1465 500 1465 598 1465 c 0,13,14
 636 1465 636 1465 668 1460.5 c 128,-1,15
 700 1456 700 1456 735 1447 c 1,16,-1
 729 1296 l 2,17,18
 727 1264 727 1264 702.5 1251.5 c 128,-1,19
 678 1239 678 1239 652 1239 c 0,20,21
 611 1239 611 1239 579 1231 c 128,-1,22
 547 1223 547 1223 525.5 1203 c 128,-1,23
 504 1183 504 1183 493 1149.5 c 128,-1,24
 482 1116 482 1116 482 1065 c 2,25,-1
 482 1035 l 1,26,-1
 846 1035 l 1,27,-1
 846 1113 l 2,28,29
 846 1202 846 1202 874.5 1274 c 128,-1,30
 903 1346 903 1346 956.5 1397 c 128,-1,31
 1010 1448 1010 1448 1087 1476 c 128,-1,32
 1164 1504 1164 1504 1262 1504 c 0,33,34
 1300 1504 1300 1504 1332 1499.5 c 128,-1,35
 1364 1495 1364 1495 1399 1485 c 1,36,-1
 1393 1334 l 2,37,38
 1392 1318 1392 1318 1385 1307.5 c 128,-1,39
 1378 1297 1378 1297 1366.5 1290.5 c 128,-1,40
 1355 1284 1355 1284 1342 1281 c 128,-1,41
 1329 1278 1329 1278 1316 1278 c 0,42,43
 1275 1278 1275 1278 1243 1270 c 128,-1,44
 1211 1262 1211 1262 1189.5 1241.5 c 128,-1,45
 1168 1221 1168 1221 1157 1187.5 c 128,-1,46
 1146 1154 1146 1154 1146 1103 c 2,47,-1
 1146 1035 l 1,48,-1
 1389 1035 l 1,49,-1
 1389 823 l 1,50,-1
 1156 823 l 1,51,-1
 1156 0 l 1,52,-1
 846 0 l 1,53,-1
 846 823 l 1,54,-1
 492 823 l 1,55,-1
 492 0 l 1,56,-1
 182 0 l 1,0,-1
EndSplineSet
Ligature2: "'liga' Standard Ligatures in Latin lookup 31 subtable" f f
EndChar

StartChar: _065
Encoding: 65543 -1 42
Width: 1894
Flags: W
LayerCount: 2
Fore
SplineSet
1169 946 m 1,0,1
 1225 994 1225 994 1290.5 1023.5 c 128,-1,2
 1356 1053 1356 1053 1447 1053 c 0,3,4
 1532 1053 1532 1053 1597.5 1023.5 c 128,-1,5
 1663 994 1663 994 1708 941.5 c 128,-1,6
 1753 889 1753 889 1776 816.5 c 128,-1,7
 1799 744 1799 744 1799 659 c 2,8,-1
 1799 0 l 1,9,-1
 1489 0 l 1,10,-1
 1489 659 l 2,11,12
 1489 735 1489 735 1454 777.5 c 128,-1,13
 1419 820 1419 820 1351 820 c 0,14,15
 1300 820 1300 820 1255.5 798.5 c 128,-1,16
 1211 777 1211 777 1169 740 c 1,17,-1
 1169 0 l 1,18,-1
 859 0 l 1,19,-1
 859 1298 l 1,20,21
 824 1312 824 1312 785.5 1321 c 128,-1,22
 747 1330 747 1330 709 1330 c 0,23,24
 656 1330 656 1330 613.5 1312 c 128,-1,25
 571 1294 571 1294 542 1262 c 128,-1,26
 513 1230 513 1230 497.5 1186.5 c 128,-1,27
 482 1143 482 1143 482 1092 c 2,28,-1
 482 1035 l 1,29,-1
 725 1035 l 1,30,-1
 725 823 l 1,31,-1
 492 823 l 1,32,-1
 492 0 l 1,33,-1
 182 0 l 1,34,-1
 182 824 l 1,35,-1
 114 838 l 2,36,37
 79 846 79 846 57.5 863 c 128,-1,38
 36 880 36 880 36 913 c 2,39,-1
 36 1035 l 1,40,-1
 182 1035 l 1,41,-1
 182 1092 l 2,42,43
 182 1185 182 1185 212.5 1264 c 128,-1,44
 243 1343 243 1343 309 1400.5 c 128,-1,45
 375 1458 375 1458 478.5 1490.5 c 128,-1,46
 582 1523 582 1523 729 1523 c 0,47,48
 781 1523 781 1523 826.5 1519 c 128,-1,49
 872 1515 872 1515 919 1510.5 c 128,-1,50
 966 1506 966 1506 1019 1502 c 128,-1,51
 1072 1498 1072 1498 1140 1497 c 2,52,-1
 1169 1497 l 1,53,-1
 1169 946 l 1,0,1
EndSplineSet
Ligature2: "'liga' Standard Ligatures in Latin lookup 31 subtable" f h
EndChar

StartChar: _066
Encoding: 65544 -1 43
Width: 2558
Flags: W
LayerCount: 2
Fore
SplineSet
182 0 m 1,0,-1
 182 824 l 1,1,-1
 114 838 l 2,2,3
 79 846 79 846 57.5 863 c 128,-1,4
 36 880 36 880 36 913 c 2,5,-1
 36 1035 l 1,6,-1
 182 1035 l 1,7,-1
 182 1074 l 2,8,9
 182 1163 182 1163 210.5 1235.5 c 128,-1,10
 239 1308 239 1308 292.5 1359 c 128,-1,11
 346 1410 346 1410 423 1437.5 c 128,-1,12
 500 1465 500 1465 598 1465 c 0,13,14
 636 1465 636 1465 668 1460.5 c 128,-1,15
 700 1456 700 1456 735 1447 c 1,16,-1
 729 1296 l 2,17,18
 727 1264 727 1264 702.5 1251.5 c 128,-1,19
 678 1239 678 1239 652 1239 c 0,20,21
 611 1239 611 1239 579 1231 c 128,-1,22
 547 1223 547 1223 525.5 1203 c 128,-1,23
 504 1183 504 1183 493 1149.5 c 128,-1,24
 482 1116 482 1116 482 1065 c 2,25,-1
 482 1035 l 1,26,-1
 846 1035 l 1,27,-1
 846 1092 l 2,28,29
 846 1185 846 1185 876.5 1264 c 128,-1,30
 907 1343 907 1343 973 1400.5 c 128,-1,31
 1039 1458 1039 1458 1142.5 1490.5 c 128,-1,32
 1246 1523 1246 1523 1393 1523 c 0,33,34
 1448 1523 1448 1523 1495.5 1519 c 128,-1,35
 1543 1515 1543 1515 1593.5 1510 c 128,-1,36
 1644 1505 1644 1505 1701 1501 c 128,-1,37
 1758 1497 1758 1497 1833 1497 c 1,38,-1
 1833 946 l 1,39,40
 1889 994 1889 994 1954.5 1023.5 c 128,-1,41
 2020 1053 2020 1053 2111 1053 c 0,42,43
 2196 1053 2196 1053 2261.5 1023.5 c 128,-1,44
 2327 994 2327 994 2372 941.5 c 128,-1,45
 2417 889 2417 889 2440 816.5 c 128,-1,46
 2463 744 2463 744 2463 659 c 2,47,-1
 2463 0 l 1,48,-1
 2153 0 l 1,49,-1
 2153 659 l 2,50,51
 2153 735 2153 735 2118 777.5 c 128,-1,52
 2083 820 2083 820 2015 820 c 0,53,54
 1964 820 1964 820 1919.5 798.5 c 128,-1,55
 1875 777 1875 777 1833 740 c 1,56,-1
 1833 0 l 1,57,-1
 1523 0 l 1,58,-1
 1523 1298 l 1,59,60
 1488 1312 1488 1312 1449.5 1321 c 128,-1,61
 1411 1330 1411 1330 1373 1330 c 0,62,63
 1320 1330 1320 1330 1277.5 1312 c 128,-1,64
 1235 1294 1235 1294 1206 1262 c 128,-1,65
 1177 1230 1177 1230 1161.5 1186.5 c 128,-1,66
 1146 1143 1146 1143 1146 1092 c 2,67,-1
 1146 1035 l 1,68,-1
 1389 1035 l 1,69,-1
 1389 823 l 1,70,-1
 1156 823 l 1,71,-1
 1156 0 l 1,72,-1
 846 0 l 1,73,-1
 846 823 l 1,74,-1
 492 823 l 1,75,-1
 492 0 l 1,76,-1
 182 0 l 1,0,-1
EndSplineSet
Ligature2: "'liga' Standard Ligatures in Latin lookup 31 subtable" f f h
EndChar

StartChar: fi
Encoding: 64257 64257 44
Width: 1253
Flags: W
AnchorPoint: "+BBEENQQ3BEsEPARPBD0EPQQ+BDUA--3" 594 1525 basechar 0
AnchorPoint: "+BBEENQQ3BEsEPARPBD0EPQQ+BDUA--1" 984 -70 basechar 0
AnchorPoint: "+BBEENQQ3BEsEPARPBD0EPQQ+BDUA--0" 594 1525 basechar 0
LayerCount: 2
Fore
SplineSet
182 0 m 1,0,-1
 182 824 l 1,1,-1
 114 838 l 2,2,3
 79 846 79 846 57.5 863 c 128,-1,4
 36 880 36 880 36 913 c 2,5,-1
 36 1035 l 1,6,-1
 182 1035 l 1,7,-1
 182 1050 l 2,8,9
 182 1144 182 1144 214.5 1227.5 c 128,-1,10
 247 1311 247 1311 315 1372.5 c 128,-1,11
 383 1434 383 1434 488.5 1470 c 128,-1,12
 594 1506 594 1506 740 1506 c 0,13,14
 785 1506 785 1506 833 1501.5 c 128,-1,15
 881 1497 881 1497 916 1488 c 1,16,-1
 906 1331 l 2,17,18
 904 1306 904 1306 881 1298 c 128,-1,19
 858 1290 858 1290 832 1290 c 0,20,21
 728 1290 728 1290 660 1274 c 128,-1,22
 592 1258 592 1258 552.5 1226.5 c 128,-1,23
 513 1195 513 1195 497.5 1148 c 128,-1,24
 482 1101 482 1101 482 1040 c 2,25,-1
 482 1035 l 1,26,-1
 1140 1035 l 1,27,-1
 1140 0 l 1,28,-1
 830 0 l 1,29,-1
 830 823 l 1,30,-1
 492 823 l 1,31,-1
 492 0 l 1,32,-1
 182 0 l 1,0,-1
EndSplineSet
Ligature2: "'liga' Standard Ligatures in Latin lookup 30 subtable" f i
EndChar

StartChar: _068
Encoding: 65545 -1 45
Width: 1253
Flags: W
LayerCount: 2
Fore
SplineSet
790 1506 m 0,0,1
 872 1506 872 1506 921.5 1480.5 c 128,-1,2
 971 1455 971 1455 994 1413 c 2,3,-1
 1130 1168 l 1,4,-1
 954 1168 l 2,5,6
 919 1168 919 1168 898 1177.5 c 128,-1,7
 877 1187 877 1187 854 1210 c 2,8,-1
 775 1289 l 1,9,10
 689 1286 689 1286 633 1268.5 c 128,-1,11
 577 1251 577 1251 543 1220 c 128,-1,12
 509 1189 509 1189 495.5 1143.5 c 128,-1,13
 482 1098 482 1098 482 1040 c 2,14,-1
 482 1035 l 1,15,-1
 1140 1035 l 1,16,-1
 1140 0 l 1,17,-1
 830 0 l 1,18,-1
 830 823 l 1,19,-1
 492 823 l 1,20,-1
 492 0 l 1,21,-1
 182 0 l 1,22,-1
 182 824 l 1,23,-1
 114 838 l 2,24,25
 79 846 79 846 57.5 863 c 128,-1,26
 36 880 36 880 36 913 c 2,27,-1
 36 1035 l 1,28,-1
 182 1035 l 1,29,-1
 182 1050 l 2,30,31
 182 1144 182 1144 212.5 1227.5 c 128,-1,32
 243 1311 243 1311 313.5 1372.5 c 128,-1,33
 384 1434 384 1434 500.5 1470 c 128,-1,34
 617 1506 617 1506 790 1506 c 0,0,1
EndSplineSet
Ligature2: "'liga' Standard Ligatures in Latin lookup 31 subtable" f igrave
EndChar

StartChar: _069
Encoding: 65546 -1 46
Width: 1252
Flags: W
LayerCount: 2
Fore
SplineSet
182 0 m 1,0,-1
 182 824 l 1,1,-1
 114 838 l 2,2,3
 79 846 79 846 57.5 863 c 128,-1,4
 36 880 36 880 36 913 c 2,5,-1
 36 1035 l 1,6,-1
 182 1035 l 1,7,-1
 182 1140 l 2,8,9
 182 1221 182 1221 204 1286.5 c 128,-1,10
 226 1352 226 1352 268.5 1397.5 c 128,-1,11
 311 1443 311 1443 373 1467.5 c 128,-1,12
 435 1492 435 1492 516 1492 c 0,13,14
 546 1492 546 1492 570.5 1489 c 128,-1,15
 595 1486 595 1486 619 1478 c 1,16,-1
 619 1315 l 2,17,18
 619 1292 619 1292 601.5 1283.5 c 128,-1,19
 584 1275 584 1275 563 1275 c 0,20,21
 516 1275 516 1275 499 1244.5 c 128,-1,22
 482 1214 482 1214 482 1141 c 2,23,-1
 482 1035 l 1,24,-1
 1140 1035 l 1,25,-1
 1140 0 l 1,26,-1
 830 0 l 1,27,-1
 830 823 l 1,28,-1
 492 823 l 1,29,-1
 492 0 l 1,30,-1
 182 0 l 1,0,-1
1374 1168 m 1,31,-1
 1168 1168 l 2,32,33
 1150 1168 1150 1168 1133 1173.5 c 128,-1,34
 1116 1179 1116 1179 1099 1196 c 2,35,-1
 1024 1279 l 2,36,37
 1018 1285 1018 1285 1011.5 1292 c 128,-1,38
 1005 1299 1005 1299 999 1307 c 1,39,40
 993 1299 993 1299 986.5 1292 c 128,-1,41
 980 1285 980 1285 974 1279 c 2,42,-1
 897 1196 l 2,43,44
 882 1182 882 1182 864 1175 c 128,-1,45
 846 1168 846 1168 828 1168 c 2,46,-1
 614 1168 l 1,47,-1
 848 1457 l 1,48,-1
 1140 1457 l 1,49,-1
 1374 1168 l 1,31,-1
EndSplineSet
Ligature2: "'liga' Standard Ligatures in Latin lookup 31 subtable" f icircumflex
EndChar

StartChar: _071
Encoding: 65548 -1 48
Width: 1252
Flags: W
LayerCount: 2
Fore
SplineSet
965 1295 m 0,0,1
 965 1263 965 1263 952 1235 c 128,-1,2
 939 1207 939 1207 916.5 1186.5 c 128,-1,3
 894 1166 894 1166 864.5 1154 c 128,-1,4
 835 1142 835 1142 801 1142 c 0,5,6
 769 1142 769 1142 740.5 1154 c 128,-1,7
 712 1166 712 1166 690.5 1186.5 c 128,-1,8
 669 1207 669 1207 656 1235 c 128,-1,9
 643 1263 643 1263 643 1295 c 0,10,11
 643 1328 643 1328 656 1357 c 128,-1,12
 669 1386 669 1386 690.5 1407.5 c 128,-1,13
 712 1429 712 1429 740.5 1441.5 c 128,-1,14
 769 1454 769 1454 801 1454 c 0,15,16
 835 1454 835 1454 864.5 1441.5 c 128,-1,17
 894 1429 894 1429 916.5 1407.5 c 128,-1,18
 939 1386 939 1386 952 1357 c 128,-1,19
 965 1328 965 1328 965 1295 c 0,0,1
1331 1295 m 0,20,21
 1331 1263 1331 1263 1318.5 1235 c 128,-1,22
 1306 1207 1306 1207 1284 1186.5 c 128,-1,23
 1262 1166 1262 1166 1232.5 1154 c 128,-1,24
 1203 1142 1203 1142 1169 1142 c 0,25,26
 1136 1142 1136 1142 1107 1154 c 128,-1,27
 1078 1166 1078 1166 1056 1186.5 c 128,-1,28
 1034 1207 1034 1207 1021.5 1235 c 128,-1,29
 1009 1263 1009 1263 1009 1295 c 0,30,31
 1009 1328 1009 1328 1021.5 1357 c 128,-1,32
 1034 1386 1034 1386 1056 1407.5 c 128,-1,33
 1078 1429 1078 1429 1107 1441.5 c 128,-1,34
 1136 1454 1136 1454 1169 1454 c 0,35,36
 1203 1454 1203 1454 1232.5 1441.5 c 128,-1,37
 1262 1429 1262 1429 1284 1407.5 c 128,-1,38
 1306 1386 1306 1386 1318.5 1357 c 128,-1,39
 1331 1328 1331 1328 1331 1295 c 0,20,21
182 0 m 1,40,-1
 182 824 l 1,41,-1
 114 838 l 2,42,43
 79 846 79 846 57.5 863 c 128,-1,44
 36 880 36 880 36 913 c 2,45,-1
 36 1035 l 1,46,-1
 182 1035 l 1,47,-1
 182 1140 l 2,48,49
 182 1221 182 1221 204 1286.5 c 128,-1,50
 226 1352 226 1352 268.5 1397.5 c 128,-1,51
 311 1443 311 1443 373 1467.5 c 128,-1,52
 435 1492 435 1492 516 1492 c 0,53,54
 546 1492 546 1492 570.5 1489 c 128,-1,55
 595 1486 595 1486 619 1478 c 1,56,-1
 619 1315 l 2,57,58
 619 1292 619 1292 601.5 1283.5 c 128,-1,59
 584 1275 584 1275 563 1275 c 0,60,61
 516 1275 516 1275 499 1244.5 c 128,-1,62
 482 1214 482 1214 482 1141 c 2,63,-1
 482 1035 l 1,64,-1
 1140 1035 l 1,65,-1
 1140 0 l 1,66,-1
 830 0 l 1,67,-1
 830 823 l 1,68,-1
 492 823 l 1,69,-1
 492 0 l 1,70,-1
 182 0 l 1,40,-1
EndSplineSet
Ligature2: "'liga' Standard Ligatures in Latin lookup 31 subtable" f idieresis
EndChar

StartChar: _074
Encoding: 65551 -1 51
Width: 1252
Flags: W
LayerCount: 2
Fore
SplineSet
182 0 m 1,0,-1
 182 824 l 1,1,-1
 114 838 l 2,2,3
 79 846 79 846 57.5 863 c 128,-1,4
 36 880 36 880 36 913 c 2,5,-1
 36 1035 l 1,6,-1
 182 1035 l 1,7,-1
 182 1050 l 2,8,9
 182 1144 182 1144 214.5 1227.5 c 128,-1,10
 247 1311 247 1311 315 1372.5 c 128,-1,11
 383 1434 383 1434 488.5 1470 c 128,-1,12
 594 1506 594 1506 740 1506 c 0,13,14
 785 1506 785 1506 833 1501.5 c 128,-1,15
 881 1497 881 1497 916 1488 c 1,16,-1
 906 1331 l 2,17,18
 904 1306 904 1306 881 1298 c 128,-1,19
 858 1290 858 1290 832 1290 c 0,20,21
 728 1290 728 1290 660 1274 c 128,-1,22
 592 1258 592 1258 552.5 1226.5 c 128,-1,23
 513 1195 513 1195 497.5 1148 c 128,-1,24
 482 1101 482 1101 482 1040 c 2,25,-1
 482 1035 l 1,26,-1
 1140 1035 l 1,27,-1
 1140 0 l 1,28,-1
 1103 0 l 1,29,30
 1064 -21 1064 -21 1036.5 -52.5 c 128,-1,31
 1009 -84 1009 -84 1009 -122 c 0,32,33
 1009 -146 1009 -146 1022.5 -160.5 c 128,-1,34
 1036 -175 1036 -175 1063 -175 c 0,35,36
 1078 -175 1078 -175 1087 -174 c 128,-1,37
 1096 -173 1096 -173 1102 -171.5 c 128,-1,38
 1108 -170 1108 -170 1112 -168.5 c 128,-1,39
 1116 -167 1116 -167 1121 -167 c 0,40,41
 1142 -167 1142 -167 1149 -186 c 2,42,-1
 1195 -297 l 1,43,44
 1160 -318 1160 -318 1108 -332.5 c 128,-1,45
 1056 -347 1056 -347 997 -347 c 0,46,47
 890 -347 890 -347 834.5 -305 c 128,-1,48
 779 -263 779 -263 779 -198 c 0,49,50
 779 -147 779 -147 812.5 -96 c 128,-1,51
 846 -45 846 -45 921 0 c 1,52,-1
 830 0 l 1,53,-1
 830 823 l 1,54,-1
 492 823 l 1,55,-1
 492 0 l 1,56,-1
 182 0 l 1,0,-1
EndSplineSet
Ligature2: "'liga' Standard Ligatures in Latin lookup 31 subtable" f iogonek
EndChar

StartChar: _075
Encoding: 65552 -1 52
Width: 1253
Flags: W
AnchorPoint: "+BBEENQQ3BEsEPARPBD0EPQQ+BDUA--3" 984 1120 basechar 0
AnchorPoint: "+BBEENQQ3BEsEPARPBD0EPQQ+BDUA--1" 983 -70 basechar 0
LayerCount: 2
Fore
SplineSet
182 0 m 1,0,-1
 182 824 l 1,1,-1
 114 838 l 2,2,3
 79 846 79 846 57.5 863 c 128,-1,4
 36 880 36 880 36 913 c 2,5,-1
 36 1035 l 1,6,-1
 182 1035 l 1,7,-1
 182 1140 l 2,8,9
 182 1221 182 1221 204 1286.5 c 128,-1,10
 226 1352 226 1352 268.5 1397.5 c 128,-1,11
 311 1443 311 1443 373 1467.5 c 128,-1,12
 435 1492 435 1492 516 1492 c 0,13,14
 546 1492 546 1492 570.5 1489 c 128,-1,15
 595 1486 595 1486 619 1478 c 1,16,-1
 619 1315 l 2,17,18
 619 1292 619 1292 601.5 1283.5 c 128,-1,19
 584 1275 584 1275 563 1275 c 0,20,21
 516 1275 516 1275 499 1244.5 c 128,-1,22
 482 1214 482 1214 482 1141 c 2,23,-1
 482 1035 l 1,24,-1
 1140 1035 l 1,25,-1
 1140 0 l 1,26,-1
 830 0 l 1,27,-1
 830 823 l 1,28,-1
 492 823 l 1,29,-1
 492 0 l 1,30,-1
 182 0 l 1,0,-1
EndSplineSet
Ligature2: "'liga' Standard Ligatures in Latin lookup 31 subtable" f dotlessi
EndChar

StartChar: f_f_i
Encoding: 64259 64259 53
Width: 1917
Flags: W
AnchorPoint: "+BBEENQQ3BEsEPARPBD0EPQQ+BDUA--3" 924 1525 basechar 0
AnchorPoint: "+BBEENQQ3BEsEPARPBD0EPQQ+BDUA--1" 1653 -70 basechar 0
AnchorPoint: "+BBEENQQ3BEsEPARPBD0EPQQ+BDUA--0" 924 1525 basechar 0
LayerCount: 2
Fore
SplineSet
182 0 m 1,0,-1
 182 824 l 1,1,-1
 114 838 l 2,2,3
 79 846 79 846 57.5 863 c 128,-1,4
 36 880 36 880 36 913 c 2,5,-1
 36 1035 l 1,6,-1
 182 1035 l 1,7,-1
 182 1074 l 2,8,9
 182 1163 182 1163 210.5 1235.5 c 128,-1,10
 239 1308 239 1308 292.5 1359 c 128,-1,11
 346 1410 346 1410 423 1437.5 c 128,-1,12
 500 1465 500 1465 598 1465 c 0,13,14
 636 1465 636 1465 668 1460.5 c 128,-1,15
 700 1456 700 1456 735 1447 c 1,16,-1
 729 1296 l 2,17,18
 727 1264 727 1264 702.5 1251.5 c 128,-1,19
 678 1239 678 1239 652 1239 c 0,20,21
 611 1239 611 1239 579 1231 c 128,-1,22
 547 1223 547 1223 525.5 1203 c 128,-1,23
 504 1183 504 1183 493 1149.5 c 128,-1,24
 482 1116 482 1116 482 1065 c 2,25,-1
 482 1035 l 1,26,-1
 846 1035 l 1,27,-1
 846 1050 l 2,28,29
 846 1144 846 1144 878.5 1227.5 c 128,-1,30
 911 1311 911 1311 979 1372.5 c 128,-1,31
 1047 1434 1047 1434 1152.5 1470 c 128,-1,32
 1258 1506 1258 1506 1404 1506 c 0,33,34
 1449 1506 1449 1506 1497 1501.5 c 128,-1,35
 1545 1497 1545 1497 1580 1488 c 1,36,-1
 1570 1331 l 2,37,38
 1568 1306 1568 1306 1545 1298 c 128,-1,39
 1522 1290 1522 1290 1496 1290 c 0,40,41
 1392 1290 1392 1290 1324 1274 c 128,-1,42
 1256 1258 1256 1258 1216.5 1226.5 c 128,-1,43
 1177 1195 1177 1195 1161.5 1148 c 128,-1,44
 1146 1101 1146 1101 1146 1040 c 2,45,-1
 1146 1035 l 1,46,-1
 1804 1035 l 1,47,-1
 1804 0 l 1,48,-1
 1494 0 l 1,49,-1
 1494 823 l 1,50,-1
 1156 823 l 1,51,-1
 1156 0 l 1,52,-1
 846 0 l 1,53,-1
 846 823 l 1,54,-1
 492 823 l 1,55,-1
 492 0 l 1,56,-1
 182 0 l 1,0,-1
EndSplineSet
Ligature2: "'liga' Standard Ligatures in Latin lookup 30 subtable" f f i
EndChar

StartChar: _077
Encoding: 65553 -1 54
Width: 1917
Flags: W
LayerCount: 2
Fore
SplineSet
1494 0 m 1,0,-1
 1494 823 l 1,1,-1
 1156 823 l 1,2,-1
 1156 0 l 1,3,-1
 846 0 l 1,4,-1
 846 823 l 1,5,-1
 492 823 l 1,6,-1
 492 0 l 1,7,-1
 182 0 l 1,8,-1
 182 824 l 1,9,-1
 114 838 l 2,10,11
 79 846 79 846 57.5 863 c 128,-1,12
 36 880 36 880 36 913 c 2,13,-1
 36 1035 l 1,14,-1
 182 1035 l 1,15,-1
 182 1074 l 2,16,17
 182 1163 182 1163 210.5 1235.5 c 128,-1,18
 239 1308 239 1308 292.5 1359 c 128,-1,19
 346 1410 346 1410 423 1437.5 c 128,-1,20
 500 1465 500 1465 598 1465 c 0,21,22
 636 1465 636 1465 668 1460.5 c 128,-1,23
 700 1456 700 1456 735 1447 c 1,24,-1
 729 1296 l 2,25,26
 727 1264 727 1264 702.5 1251.5 c 128,-1,27
 678 1239 678 1239 652 1239 c 0,28,29
 611 1239 611 1239 579 1231 c 128,-1,30
 547 1223 547 1223 525.5 1203 c 128,-1,31
 504 1183 504 1183 493 1149.5 c 128,-1,32
 482 1116 482 1116 482 1065 c 2,33,-1
 482 1035 l 1,34,-1
 846 1035 l 1,35,-1
 846 1113 l 2,36,37
 846 1202 846 1202 880 1274.5 c 128,-1,38
 914 1347 914 1347 983 1398 c 128,-1,39
 1052 1449 1052 1449 1158 1476.5 c 128,-1,40
 1264 1504 1264 1504 1408 1504 c 0,41,42
 1462 1504 1462 1504 1501.5 1500 c 128,-1,43
 1541 1496 1541 1496 1568 1489 c 128,-1,44
 1595 1482 1595 1482 1610.5 1471 c 128,-1,45
 1626 1460 1626 1460 1634 1447 c 2,46,-1
 1790 1168 l 1,47,-1
 1614 1168 l 2,48,49
 1579 1168 1579 1168 1558 1177.5 c 128,-1,50
 1537 1187 1537 1187 1514 1210 c 2,51,-1
 1423 1302 l 1,52,-1
 1412 1302 l 2,53,54
 1335 1302 1335 1302 1284 1289.5 c 128,-1,55
 1233 1277 1233 1277 1202.5 1252 c 128,-1,56
 1172 1227 1172 1227 1159 1189.5 c 128,-1,57
 1146 1152 1146 1152 1146 1103 c 2,58,-1
 1146 1035 l 1,59,-1
 1804 1035 l 1,60,-1
 1804 0 l 1,61,-1
 1494 0 l 1,0,-1
EndSplineSet
Ligature2: "'liga' Standard Ligatures in Latin lookup 31 subtable" f f igrave
EndChar

StartChar: _080
Encoding: 65556 -1 57
Width: 1916
Flags: W
LayerCount: 2
Fore
SplineSet
1630 1295 m 0,0,1
 1630 1263 1630 1263 1617 1235 c 128,-1,2
 1604 1207 1604 1207 1581.5 1186.5 c 128,-1,3
 1559 1166 1559 1166 1529.5 1154 c 128,-1,4
 1500 1142 1500 1142 1466 1142 c 0,5,6
 1434 1142 1434 1142 1405.5 1154 c 128,-1,7
 1377 1166 1377 1166 1355.5 1186.5 c 128,-1,8
 1334 1207 1334 1207 1321 1235 c 128,-1,9
 1308 1263 1308 1263 1308 1295 c 0,10,11
 1308 1328 1308 1328 1321 1357 c 128,-1,12
 1334 1386 1334 1386 1355.5 1407.5 c 128,-1,13
 1377 1429 1377 1429 1405.5 1441.5 c 128,-1,14
 1434 1454 1434 1454 1466 1454 c 0,15,16
 1500 1454 1500 1454 1529.5 1441.5 c 128,-1,17
 1559 1429 1559 1429 1581.5 1407.5 c 128,-1,18
 1604 1386 1604 1386 1617 1357 c 128,-1,19
 1630 1328 1630 1328 1630 1295 c 0,0,1
1996 1295 m 0,20,21
 1996 1263 1996 1263 1983.5 1235 c 128,-1,22
 1971 1207 1971 1207 1949 1186.5 c 128,-1,23
 1927 1166 1927 1166 1897.5 1154 c 128,-1,24
 1868 1142 1868 1142 1834 1142 c 0,25,26
 1801 1142 1801 1142 1772 1154 c 128,-1,27
 1743 1166 1743 1166 1721 1186.5 c 128,-1,28
 1699 1207 1699 1207 1686.5 1235 c 128,-1,29
 1674 1263 1674 1263 1674 1295 c 0,30,31
 1674 1328 1674 1328 1686.5 1357 c 128,-1,32
 1699 1386 1699 1386 1721 1407.5 c 128,-1,33
 1743 1429 1743 1429 1772 1441.5 c 128,-1,34
 1801 1454 1801 1454 1834 1454 c 0,35,36
 1868 1454 1868 1454 1897.5 1441.5 c 128,-1,37
 1927 1429 1927 1429 1949 1407.5 c 128,-1,38
 1971 1386 1971 1386 1983.5 1357 c 128,-1,39
 1996 1328 1996 1328 1996 1295 c 0,20,21
1494 0 m 1,40,-1
 1494 823 l 1,41,-1
 1156 823 l 1,42,-1
 1156 0 l 1,43,-1
 846 0 l 1,44,-1
 846 823 l 1,45,-1
 492 823 l 1,46,-1
 492 0 l 1,47,-1
 182 0 l 1,48,-1
 182 824 l 1,49,-1
 114 838 l 2,50,51
 79 846 79 846 57.5 863 c 128,-1,52
 36 880 36 880 36 913 c 2,53,-1
 36 1035 l 1,54,-1
 182 1035 l 1,55,-1
 182 1074 l 2,56,57
 182 1163 182 1163 210.5 1235.5 c 128,-1,58
 239 1308 239 1308 292.5 1359 c 128,-1,59
 346 1410 346 1410 423 1437.5 c 128,-1,60
 500 1465 500 1465 598 1465 c 0,61,62
 636 1465 636 1465 668 1460.5 c 128,-1,63
 700 1456 700 1456 735 1447 c 1,64,-1
 729 1296 l 2,65,66
 727 1264 727 1264 702.5 1251.5 c 128,-1,67
 678 1239 678 1239 652 1239 c 0,68,69
 611 1239 611 1239 579 1231 c 128,-1,70
 547 1223 547 1223 525.5 1203 c 128,-1,71
 504 1183 504 1183 493 1149.5 c 128,-1,72
 482 1116 482 1116 482 1065 c 2,73,-1
 482 1035 l 1,74,-1
 846 1035 l 1,75,-1
 846 1140 l 2,76,77
 846 1221 846 1221 868 1286.5 c 128,-1,78
 890 1352 890 1352 932.5 1397.5 c 128,-1,79
 975 1443 975 1443 1037 1467.5 c 128,-1,80
 1099 1492 1099 1492 1180 1492 c 0,81,82
 1210 1492 1210 1492 1234.5 1489 c 128,-1,83
 1259 1486 1259 1486 1283 1478 c 1,84,-1
 1283 1315 l 2,85,86
 1283 1292 1283 1292 1265.5 1283.5 c 128,-1,87
 1248 1275 1248 1275 1227 1275 c 0,88,89
 1180 1275 1180 1275 1163 1244.5 c 128,-1,90
 1146 1214 1146 1214 1146 1141 c 2,91,-1
 1146 1035 l 1,92,-1
 1804 1035 l 1,93,-1
 1804 0 l 1,94,-1
 1494 0 l 1,40,-1
EndSplineSet
Ligature2: "'liga' Standard Ligatures in Latin lookup 31 subtable" f f idieresis
EndChar

StartChar: _083
Encoding: 65559 -1 60
Width: 1916
Flags: W
LayerCount: 2
Fore
SplineSet
182 0 m 1,0,-1
 182 824 l 1,1,-1
 114 838 l 2,2,3
 79 846 79 846 57.5 863 c 128,-1,4
 36 880 36 880 36 913 c 2,5,-1
 36 1035 l 1,6,-1
 182 1035 l 1,7,-1
 182 1074 l 2,8,9
 182 1163 182 1163 210.5 1235.5 c 128,-1,10
 239 1308 239 1308 292.5 1359 c 128,-1,11
 346 1410 346 1410 423 1437.5 c 128,-1,12
 500 1465 500 1465 598 1465 c 0,13,14
 636 1465 636 1465 668 1460.5 c 128,-1,15
 700 1456 700 1456 735 1447 c 1,16,-1
 729 1296 l 2,17,18
 727 1264 727 1264 702.5 1251.5 c 128,-1,19
 678 1239 678 1239 652 1239 c 0,20,21
 611 1239 611 1239 579 1231 c 128,-1,22
 547 1223 547 1223 525.5 1203 c 128,-1,23
 504 1183 504 1183 493 1149.5 c 128,-1,24
 482 1116 482 1116 482 1065 c 2,25,-1
 482 1035 l 1,26,-1
 846 1035 l 1,27,-1
 846 1050 l 2,28,29
 846 1144 846 1144 878.5 1227.5 c 128,-1,30
 911 1311 911 1311 979 1372.5 c 128,-1,31
 1047 1434 1047 1434 1152.5 1470 c 128,-1,32
 1258 1506 1258 1506 1404 1506 c 0,33,34
 1449 1506 1449 1506 1497 1501.5 c 128,-1,35
 1545 1497 1545 1497 1580 1488 c 1,36,-1
 1570 1331 l 2,37,38
 1568 1306 1568 1306 1545 1298 c 128,-1,39
 1522 1290 1522 1290 1496 1290 c 0,40,41
 1392 1290 1392 1290 1324 1274 c 128,-1,42
 1256 1258 1256 1258 1216.5 1226.5 c 128,-1,43
 1177 1195 1177 1195 1161.5 1148 c 128,-1,44
 1146 1101 1146 1101 1146 1040 c 2,45,-1
 1146 1035 l 1,46,-1
 1804 1035 l 1,47,-1
 1804 0 l 1,48,-1
 1772 0 l 1,49,50
 1733 -21 1733 -21 1705.5 -52.5 c 128,-1,51
 1678 -84 1678 -84 1678 -122 c 0,52,53
 1678 -146 1678 -146 1691.5 -160.5 c 128,-1,54
 1705 -175 1705 -175 1732 -175 c 0,55,56
 1747 -175 1747 -175 1756 -174 c 128,-1,57
 1765 -173 1765 -173 1771 -171.5 c 128,-1,58
 1777 -170 1777 -170 1781 -168.5 c 128,-1,59
 1785 -167 1785 -167 1790 -167 c 0,60,61
 1811 -167 1811 -167 1818 -186 c 2,62,-1
 1864 -297 l 1,63,64
 1829 -318 1829 -318 1777 -332.5 c 128,-1,65
 1725 -347 1725 -347 1666 -347 c 0,66,67
 1559 -347 1559 -347 1503.5 -305 c 128,-1,68
 1448 -263 1448 -263 1448 -198 c 0,69,70
 1448 -147 1448 -147 1481.5 -96 c 128,-1,71
 1515 -45 1515 -45 1590 0 c 1,72,-1
 1494 0 l 1,73,-1
 1494 823 l 1,74,-1
 1156 823 l 1,75,-1
 1156 0 l 1,76,-1
 846 0 l 1,77,-1
 846 823 l 1,78,-1
 492 823 l 1,79,-1
 492 0 l 1,80,-1
 182 0 l 1,0,-1
EndSplineSet
Ligature2: "'liga' Standard Ligatures in Latin lookup 31 subtable" f f iogonek
EndChar

StartChar: _084
Encoding: 65560 -1 61
Width: 1917
Flags: W
AnchorPoint: "+BBEENQQ3BEsEPARPBD0EPQQ+BDUA--3" 1653 1120 basechar 0
AnchorPoint: "+BBEENQQ3BEsEPARPBD0EPQQ+BDUA--1" 1651 -70 basechar 0
LayerCount: 2
Fore
SplineSet
1494 0 m 1,0,-1
 1494 823 l 1,1,-1
 1156 823 l 1,2,-1
 1156 0 l 1,3,-1
 846 0 l 1,4,-1
 846 823 l 1,5,-1
 492 823 l 1,6,-1
 492 0 l 1,7,-1
 182 0 l 1,8,-1
 182 824 l 1,9,-1
 114 838 l 2,10,11
 79 846 79 846 57.5 863 c 128,-1,12
 36 880 36 880 36 913 c 2,13,-1
 36 1035 l 1,14,-1
 182 1035 l 1,15,-1
 182 1074 l 2,16,17
 182 1163 182 1163 210.5 1235.5 c 128,-1,18
 239 1308 239 1308 292.5 1359 c 128,-1,19
 346 1410 346 1410 423 1437.5 c 128,-1,20
 500 1465 500 1465 598 1465 c 0,21,22
 636 1465 636 1465 668 1460.5 c 128,-1,23
 700 1456 700 1456 735 1447 c 1,24,-1
 729 1296 l 2,25,26
 727 1264 727 1264 702.5 1251.5 c 128,-1,27
 678 1239 678 1239 652 1239 c 0,28,29
 611 1239 611 1239 579 1231 c 128,-1,30
 547 1223 547 1223 525.5 1203 c 128,-1,31
 504 1183 504 1183 493 1149.5 c 128,-1,32
 482 1116 482 1116 482 1065 c 2,33,-1
 482 1035 l 1,34,-1
 846 1035 l 1,35,-1
 846 1140 l 2,36,37
 846 1221 846 1221 868 1286.5 c 128,-1,38
 890 1352 890 1352 932.5 1397.5 c 128,-1,39
 975 1443 975 1443 1037 1467.5 c 128,-1,40
 1099 1492 1099 1492 1180 1492 c 0,41,42
 1210 1492 1210 1492 1234.5 1489 c 128,-1,43
 1259 1486 1259 1486 1283 1478 c 1,44,-1
 1283 1315 l 2,45,46
 1283 1292 1283 1292 1265.5 1283.5 c 128,-1,47
 1248 1275 1248 1275 1227 1275 c 0,48,49
 1180 1275 1180 1275 1163 1244.5 c 128,-1,50
 1146 1214 1146 1214 1146 1141 c 2,51,-1
 1146 1035 l 1,52,-1
 1804 1035 l 1,53,-1
 1804 0 l 1,54,-1
 1494 0 l 1,0,-1
EndSplineSet
Ligature2: "'liga' Standard Ligatures in Latin lookup 31 subtable" f f dotlessi
EndChar

StartChar: _085
Encoding: 65561 -1 62
Width: 1253
Flags: W
LayerCount: 2
Fore
SplineSet
182 0 m 1,0,-1
 182 824 l 1,1,-1
 114 838 l 2,2,3
 79 846 79 846 57.5 863 c 128,-1,4
 36 880 36 880 36 913 c 2,5,-1
 36 1035 l 1,6,-1
 182 1035 l 1,7,-1
 182 1050 l 2,8,9
 182 1144 182 1144 214.5 1227.5 c 128,-1,10
 247 1311 247 1311 315 1372.5 c 128,-1,11
 383 1434 383 1434 488.5 1470 c 128,-1,12
 594 1506 594 1506 740 1506 c 0,13,14
 785 1506 785 1506 833 1501.5 c 128,-1,15
 881 1497 881 1497 916 1488 c 1,16,-1
 906 1331 l 2,17,18
 904 1306 904 1306 881 1298 c 128,-1,19
 858 1290 858 1290 832 1290 c 0,20,21
 728 1290 728 1290 660 1274 c 128,-1,22
 592 1258 592 1258 552.5 1226.5 c 128,-1,23
 513 1195 513 1195 497.5 1148 c 128,-1,24
 482 1101 482 1101 482 1040 c 2,25,-1
 482 1035 l 1,26,-1
 1140 1035 l 1,27,-1
 1140 -2 l 2,28,29
 1140 -75 1140 -75 1121.5 -139.5 c 128,-1,30
 1103 -204 1103 -204 1060.5 -252.5 c 128,-1,31
 1018 -301 1018 -301 948.5 -329 c 128,-1,32
 879 -357 879 -357 776 -357 c 0,33,34
 738 -357 738 -357 705.5 -352.5 c 128,-1,35
 673 -348 673 -348 638 -339 c 1,36,-1
 648 -176 l 2,37,38
 650 -155 650 -155 662 -145 c 128,-1,39
 674 -135 674 -135 710 -135 c 256,40,41
 746 -135 746 -135 769 -129 c 128,-1,42
 792 -123 792 -123 805.5 -108 c 128,-1,43
 819 -93 819 -93 824.5 -67.5 c 128,-1,44
 830 -42 830 -42 830 -2 c 2,45,-1
 830 823 l 1,46,-1
 492 823 l 1,47,-1
 492 0 l 1,48,-1
 182 0 l 1,0,-1
EndSplineSet
Ligature2: "'liga' Standard Ligatures in Latin lookup 31 subtable" f j
EndChar

StartChar: _086
Encoding: 65562 -1 63
Width: 1917
Flags: W
LayerCount: 2
Fore
SplineSet
182 0 m 1,0,-1
 182 824 l 1,1,-1
 114 838 l 2,2,3
 79 846 79 846 57.5 863 c 128,-1,4
 36 880 36 880 36 913 c 2,5,-1
 36 1035 l 1,6,-1
 182 1035 l 1,7,-1
 182 1074 l 2,8,9
 182 1163 182 1163 210.5 1235.5 c 128,-1,10
 239 1308 239 1308 292.5 1359 c 128,-1,11
 346 1410 346 1410 423 1437.5 c 128,-1,12
 500 1465 500 1465 598 1465 c 0,13,14
 636 1465 636 1465 668 1460.5 c 128,-1,15
 700 1456 700 1456 735 1447 c 1,16,-1
 729 1296 l 2,17,18
 727 1264 727 1264 702.5 1251.5 c 128,-1,19
 678 1239 678 1239 652 1239 c 0,20,21
 611 1239 611 1239 579 1231 c 128,-1,22
 547 1223 547 1223 525.5 1203 c 128,-1,23
 504 1183 504 1183 493 1149.5 c 128,-1,24
 482 1116 482 1116 482 1065 c 2,25,-1
 482 1035 l 1,26,-1
 846 1035 l 1,27,-1
 846 1050 l 2,28,29
 846 1144 846 1144 878.5 1227.5 c 128,-1,30
 911 1311 911 1311 979 1372.5 c 128,-1,31
 1047 1434 1047 1434 1152.5 1470 c 128,-1,32
 1258 1506 1258 1506 1404 1506 c 0,33,34
 1449 1506 1449 1506 1497 1501.5 c 128,-1,35
 1545 1497 1545 1497 1580 1488 c 1,36,-1
 1570 1331 l 2,37,38
 1568 1306 1568 1306 1545 1298 c 128,-1,39
 1522 1290 1522 1290 1496 1290 c 0,40,41
 1392 1290 1392 1290 1324 1274 c 128,-1,42
 1256 1258 1256 1258 1216.5 1226.5 c 128,-1,43
 1177 1195 1177 1195 1161.5 1148 c 128,-1,44
 1146 1101 1146 1101 1146 1040 c 2,45,-1
 1146 1035 l 1,46,-1
 1804 1035 l 1,47,-1
 1804 -2 l 2,48,49
 1804 -75 1804 -75 1785.5 -139.5 c 128,-1,50
 1767 -204 1767 -204 1724.5 -252.5 c 128,-1,51
 1682 -301 1682 -301 1612.5 -329 c 128,-1,52
 1543 -357 1543 -357 1440 -357 c 0,53,54
 1402 -357 1402 -357 1369.5 -352.5 c 128,-1,55
 1337 -348 1337 -348 1302 -339 c 1,56,-1
 1312 -176 l 2,57,58
 1314 -155 1314 -155 1326 -145 c 128,-1,59
 1338 -135 1338 -135 1374 -135 c 256,60,61
 1410 -135 1410 -135 1433 -129 c 128,-1,62
 1456 -123 1456 -123 1469.5 -108 c 128,-1,63
 1483 -93 1483 -93 1488.5 -67.5 c 128,-1,64
 1494 -42 1494 -42 1494 -2 c 2,65,-1
 1494 823 l 1,66,-1
 1156 823 l 1,67,-1
 1156 0 l 1,68,-1
 846 0 l 1,69,-1
 846 823 l 1,70,-1
 492 823 l 1,71,-1
 492 0 l 1,72,-1
 182 0 l 1,0,-1
EndSplineSet
Ligature2: "'liga' Standard Ligatures in Latin lookup 31 subtable" f f j
EndChar

StartChar: _087
Encoding: 65563 -1 64
Width: 1871
Flags: W
LayerCount: 2
Fore
SplineSet
182 0 m 1,0,-1
 182 824 l 1,1,-1
 114 838 l 2,2,3
 79 846 79 846 57.5 863 c 128,-1,4
 36 880 36 880 36 913 c 2,5,-1
 36 1035 l 1,6,-1
 182 1035 l 1,7,-1
 182 1092 l 2,8,9
 182 1185 182 1185 212.5 1264 c 128,-1,10
 243 1343 243 1343 309 1400.5 c 128,-1,11
 375 1458 375 1458 478.5 1490.5 c 128,-1,12
 582 1523 582 1523 729 1523 c 0,13,14
 784 1523 784 1523 831.5 1519 c 128,-1,15
 879 1515 879 1515 929.5 1510 c 128,-1,16
 980 1505 980 1505 1037 1501 c 128,-1,17
 1094 1497 1094 1497 1169 1497 c 1,18,-1
 1169 658 l 1,19,-1
 1215 658 l 2,20,21
 1244 658 1244 658 1259 666.5 c 128,-1,22
 1274 675 1274 675 1289 695 c 2,23,-1
 1485 987 l 2,24,25
 1503 1012 1503 1012 1526 1024.5 c 128,-1,26
 1549 1037 1549 1037 1585 1037 c 2,27,-1
 1869 1037 l 1,28,-1
 1601 668 l 2,29,30
 1563 618 1563 618 1511 586 c 1,31,32
 1534 569 1534 569 1553 546.5 c 128,-1,33
 1572 524 1572 524 1589 496 c 2,34,-1
 1881 0 l 1,35,-1
 1601 0 l 2,36,37
 1566 0 1566 0 1541 11.5 c 128,-1,38
 1516 23 1516 23 1499 52 c 2,39,-1
 1303 419 l 2,40,41
 1289 444 1289 444 1274 451.5 c 128,-1,42
 1259 459 1259 459 1229 459 c 2,43,-1
 1169 459 l 1,44,-1
 1169 0 l 1,45,-1
 859 0 l 1,46,-1
 859 1298 l 1,47,48
 824 1312 824 1312 785.5 1321 c 128,-1,49
 747 1330 747 1330 709 1330 c 0,50,51
 656 1330 656 1330 613.5 1312 c 128,-1,52
 571 1294 571 1294 542 1262 c 128,-1,53
 513 1230 513 1230 497.5 1186.5 c 128,-1,54
 482 1143 482 1143 482 1092 c 2,55,-1
 482 1035 l 1,56,-1
 725 1035 l 1,57,-1
 725 823 l 1,58,-1
 492 823 l 1,59,-1
 492 0 l 1,60,-1
 182 0 l 1,0,-1
EndSplineSet
Ligature2: "'liga' Standard Ligatures in Latin lookup 31 subtable" f k
EndChar

StartChar: _088
Encoding: 65564 -1 65
Width: 2535
Flags: W
LayerCount: 2
Fore
SplineSet
182 0 m 1,0,-1
 182 824 l 1,1,-1
 114 838 l 2,2,3
 79 846 79 846 57.5 863 c 128,-1,4
 36 880 36 880 36 913 c 2,5,-1
 36 1035 l 1,6,-1
 182 1035 l 1,7,-1
 182 1074 l 2,8,9
 182 1163 182 1163 210.5 1235.5 c 128,-1,10
 239 1308 239 1308 292.5 1359 c 128,-1,11
 346 1410 346 1410 423 1437.5 c 128,-1,12
 500 1465 500 1465 598 1465 c 0,13,14
 636 1465 636 1465 668 1460.5 c 128,-1,15
 700 1456 700 1456 735 1447 c 1,16,-1
 729 1296 l 2,17,18
 727 1264 727 1264 702.5 1251.5 c 128,-1,19
 678 1239 678 1239 652 1239 c 0,20,21
 611 1239 611 1239 579 1231 c 128,-1,22
 547 1223 547 1223 525.5 1203 c 128,-1,23
 504 1183 504 1183 493 1149.5 c 128,-1,24
 482 1116 482 1116 482 1065 c 2,25,-1
 482 1035 l 1,26,-1
 846 1035 l 1,27,-1
 846 1092 l 2,28,29
 846 1185 846 1185 876.5 1264 c 128,-1,30
 907 1343 907 1343 973 1400.5 c 128,-1,31
 1039 1458 1039 1458 1142.5 1490.5 c 128,-1,32
 1246 1523 1246 1523 1393 1523 c 0,33,34
 1448 1523 1448 1523 1495.5 1519 c 128,-1,35
 1543 1515 1543 1515 1593.5 1510 c 128,-1,36
 1644 1505 1644 1505 1701 1501 c 128,-1,37
 1758 1497 1758 1497 1833 1497 c 1,38,-1
 1833 658 l 1,39,-1
 1879 658 l 2,40,41
 1908 658 1908 658 1923 666.5 c 128,-1,42
 1938 675 1938 675 1953 695 c 2,43,-1
 2149 987 l 2,44,45
 2167 1012 2167 1012 2190 1024.5 c 128,-1,46
 2213 1037 2213 1037 2249 1037 c 2,47,-1
 2533 1037 l 1,48,-1
 2265 668 l 2,49,50
 2227 618 2227 618 2175 586 c 1,51,52
 2198 569 2198 569 2217 546.5 c 128,-1,53
 2236 524 2236 524 2253 496 c 2,54,-1
 2545 0 l 1,55,-1
 2265 0 l 2,56,57
 2230 0 2230 0 2205 11.5 c 128,-1,58
 2180 23 2180 23 2163 52 c 2,59,-1
 1967 419 l 2,60,61
 1953 444 1953 444 1938 451.5 c 128,-1,62
 1923 459 1923 459 1893 459 c 2,63,-1
 1833 459 l 1,64,-1
 1833 0 l 1,65,-1
 1523 0 l 1,66,-1
 1523 1298 l 1,67,68
 1488 1312 1488 1312 1449.5 1321 c 128,-1,69
 1411 1330 1411 1330 1373 1330 c 0,70,71
 1320 1330 1320 1330 1277.5 1312 c 128,-1,72
 1235 1294 1235 1294 1206 1262 c 128,-1,73
 1177 1230 1177 1230 1161.5 1186.5 c 128,-1,74
 1146 1143 1146 1143 1146 1092 c 2,75,-1
 1146 1035 l 1,76,-1
 1389 1035 l 1,77,-1
 1389 823 l 1,78,-1
 1156 823 l 1,79,-1
 1156 0 l 1,80,-1
 846 0 l 1,81,-1
 846 823 l 1,82,-1
 492 823 l 1,83,-1
 492 0 l 1,84,-1
 182 0 l 1,0,-1
EndSplineSet
Ligature2: "'liga' Standard Ligatures in Latin lookup 31 subtable" f f k
EndChar

StartChar: fl
Encoding: 64258 64258 66
Width: 1265
Flags: W
AnchorPoint: "+BBEENQQ3BEsEPARPBD0EPQQ+BDUA--3" 1008 1525 basechar 0
AnchorPoint: "+BBEENQQ3BEsEPARPBD0EPQQ+BDUA--1" 671 -70 basechar 0
AnchorPoint: "+BBEENQQ3BEsEPARPBD0EPQQ+BDUA--0" 1008 1525 basechar 0
LayerCount: 2
Fore
SplineSet
182 0 m 1,0,-1
 182 824 l 1,1,-1
 114 838 l 2,2,3
 79 846 79 846 57.5 863 c 128,-1,4
 36 880 36 880 36 913 c 2,5,-1
 36 1035 l 1,6,-1
 182 1035 l 1,7,-1
 182 1071 l 2,8,9
 182 1150 182 1150 208 1225.5 c 128,-1,10
 234 1301 234 1301 288 1359.5 c 128,-1,11
 342 1418 342 1418 426 1453.5 c 128,-1,12
 510 1489 510 1489 626 1489 c 0,13,14
 724 1489 724 1489 810.5 1483 c 128,-1,15
 897 1477 897 1477 986 1477 c 2,16,-1
 1160 1477 l 1,17,-1
 1160 0 l 1,18,-1
 852 0 l 1,19,-1
 852 1269 l 1,20,21
 801 1271 801 1271 753.5 1273.5 c 128,-1,22
 706 1276 706 1276 676 1276 c 0,23,24
 581 1276 581 1276 531.5 1223.5 c 128,-1,25
 482 1171 482 1171 482 1071 c 2,26,-1
 482 1035 l 1,27,-1
 706 1035 l 1,28,-1
 706 823 l 1,29,-1
 492 823 l 1,30,-1
 492 0 l 1,31,-1
 182 0 l 1,0,-1
EndSplineSet
Ligature2: "'liga' Standard Ligatures in Latin lookup 31 subtable" f l
EndChar

StartChar: f_f_l
Encoding: 64260 64260 67
Width: 1929
Flags: W
AnchorPoint: "+BBEENQQ3BEsEPARPBD0EPQQ+BDUA--3" 1012 1525 basechar 0
AnchorPoint: "+BBEENQQ3BEsEPARPBD0EPQQ+BDUA--1" 1003 -70 basechar 0
AnchorPoint: "+BBEENQQ3BEsEPARPBD0EPQQ+BDUA--0" 1012 1525 basechar 0
LayerCount: 2
Fore
SplineSet
182 0 m 1,0,-1
 182 824 l 1,1,-1
 114 838 l 2,2,3
 79 846 79 846 57.5 863 c 128,-1,4
 36 880 36 880 36 913 c 2,5,-1
 36 1035 l 1,6,-1
 182 1035 l 1,7,-1
 182 1074 l 2,8,9
 182 1163 182 1163 210.5 1235.5 c 128,-1,10
 239 1308 239 1308 292.5 1359 c 128,-1,11
 346 1410 346 1410 423 1437.5 c 128,-1,12
 500 1465 500 1465 598 1465 c 0,13,14
 636 1465 636 1465 668 1460.5 c 128,-1,15
 700 1456 700 1456 735 1447 c 1,16,-1
 729 1296 l 2,17,18
 727 1264 727 1264 702.5 1251.5 c 128,-1,19
 678 1239 678 1239 652 1239 c 0,20,21
 611 1239 611 1239 579 1231 c 128,-1,22
 547 1223 547 1223 525.5 1203 c 128,-1,23
 504 1183 504 1183 493 1149.5 c 128,-1,24
 482 1116 482 1116 482 1065 c 2,25,-1
 482 1035 l 1,26,-1
 846 1035 l 1,27,-1
 846 1071 l 2,28,29
 846 1150 846 1150 872 1225.5 c 128,-1,30
 898 1301 898 1301 952 1359.5 c 128,-1,31
 1006 1418 1006 1418 1090 1453.5 c 128,-1,32
 1174 1489 1174 1489 1290 1489 c 0,33,34
 1380 1489 1380 1489 1461 1483.5 c 128,-1,35
 1542 1478 1542 1478 1623 1477 c 2,36,-1
 1824 1477 l 1,37,-1
 1824 0 l 1,38,-1
 1516 0 l 1,39,-1
 1516 1269 l 1,40,41
 1465 1271 1465 1271 1417.5 1273.5 c 128,-1,42
 1370 1276 1370 1276 1340 1276 c 0,43,44
 1245 1276 1245 1276 1195.5 1223.5 c 128,-1,45
 1146 1171 1146 1171 1146 1071 c 2,46,-1
 1146 1035 l 1,47,-1
 1389 1035 l 1,48,-1
 1389 823 l 1,49,-1
 1156 823 l 1,50,-1
 1156 0 l 1,51,-1
 846 0 l 1,52,-1
 846 823 l 1,53,-1
 492 823 l 1,54,-1
 492 0 l 1,55,-1
 182 0 l 1,0,-1
EndSplineSet
Ligature2: "'liga' Standard Ligatures in Latin lookup 31 subtable" f f l
EndChar

StartChar: _091
Encoding: 65565 -1 68
Width: 1457
Flags: W
LayerCount: 2
Fore
SplineSet
1171 823 m 1,0,-1
 1171 308 l 2,1,2
 1171 272 1171 272 1188.5 248.5 c 128,-1,3
 1206 225 1206 225 1239 225 c 0,4,5
 1256 225 1256 225 1267.5 228.5 c 128,-1,6
 1279 232 1279 232 1287.5 236.5 c 128,-1,7
 1296 241 1296 241 1303.5 244.5 c 128,-1,8
 1311 248 1311 248 1321 248 c 0,9,10
 1335 248 1335 248 1343.5 241.5 c 128,-1,11
 1352 235 1352 235 1361 221 c 2,12,-1
 1455 74 l 1,13,14
 1395 29 1395 29 1320 6.5 c 128,-1,15
 1245 -16 1245 -16 1165 -16 c 0,16,17
 1091 -16 1091 -16 1034.5 5.5 c 128,-1,18
 978 27 978 27 939.5 66.5 c 128,-1,19
 901 106 901 106 881 162 c 128,-1,20
 861 218 861 218 861 287 c 2,21,-1
 861 823 l 1,22,-1
 492 823 l 1,23,-1
 492 0 l 1,24,-1
 182 0 l 1,25,-1
 182 824 l 1,26,-1
 114 838 l 2,27,28
 79 846 79 846 57.5 863 c 128,-1,29
 36 880 36 880 36 913 c 2,30,-1
 36 1035 l 1,31,-1
 182 1035 l 1,32,-1
 182 1094 l 2,33,34
 182 1183 182 1183 210.5 1255 c 128,-1,35
 239 1327 239 1327 292.5 1378 c 128,-1,36
 346 1429 346 1429 423 1457 c 128,-1,37
 500 1485 500 1485 598 1485 c 0,38,39
 636 1485 636 1485 668 1480.5 c 128,-1,40
 700 1476 700 1476 735 1466 c 1,41,-1
 729 1315 l 2,42,43
 728 1299 728 1299 721 1288.5 c 128,-1,44
 714 1278 714 1278 702.5 1271.5 c 128,-1,45
 691 1265 691 1265 678 1262 c 128,-1,46
 665 1259 665 1259 652 1259 c 0,47,48
 611 1259 611 1259 579 1251 c 128,-1,49
 547 1243 547 1243 525.5 1222.5 c 128,-1,50
 504 1202 504 1202 493 1168.5 c 128,-1,51
 482 1135 482 1135 482 1084 c 2,52,-1
 482 1035 l 1,53,-1
 879 1035 l 1,54,-1
 941 1290 l 2,55,56
 953 1338 953 1338 1009 1338 c 2,57,-1
 1171 1338 l 1,58,-1
 1171 1035 l 1,59,-1
 1428 1035 l 1,60,-1
 1428 823 l 1,61,-1
 1171 823 l 1,0,-1
EndSplineSet
Ligature2: "'liga' Standard Ligatures in Latin lookup 31 subtable" f t
EndChar

StartChar: _092
Encoding: 65566 -1 69
Width: 2121
Flags: W
LayerCount: 2
Fore
SplineSet
182 0 m 1,0,-1
 182 824 l 1,1,-1
 114 838 l 2,2,3
 79 846 79 846 57.5 863 c 128,-1,4
 36 880 36 880 36 913 c 2,5,-1
 36 1035 l 1,6,-1
 182 1035 l 1,7,-1
 182 1074 l 2,8,9
 182 1163 182 1163 210.5 1235.5 c 128,-1,10
 239 1308 239 1308 292.5 1359 c 128,-1,11
 346 1410 346 1410 423 1437.5 c 128,-1,12
 500 1465 500 1465 598 1465 c 0,13,14
 636 1465 636 1465 668 1460.5 c 128,-1,15
 700 1456 700 1456 735 1447 c 1,16,-1
 729 1296 l 2,17,18
 727 1264 727 1264 702.5 1251.5 c 128,-1,19
 678 1239 678 1239 652 1239 c 0,20,21
 611 1239 611 1239 579 1231 c 128,-1,22
 547 1223 547 1223 525.5 1203 c 128,-1,23
 504 1183 504 1183 493 1149.5 c 128,-1,24
 482 1116 482 1116 482 1065 c 2,25,-1
 482 1035 l 1,26,-1
 846 1035 l 1,27,-1
 846 1094 l 2,28,29
 846 1183 846 1183 874.5 1255 c 128,-1,30
 903 1327 903 1327 956.5 1378 c 128,-1,31
 1010 1429 1010 1429 1087 1457 c 128,-1,32
 1164 1485 1164 1485 1262 1485 c 0,33,34
 1300 1485 1300 1485 1332 1480.5 c 128,-1,35
 1364 1476 1364 1476 1399 1466 c 1,36,-1
 1393 1315 l 2,37,38
 1392 1299 1392 1299 1385 1288.5 c 128,-1,39
 1378 1278 1378 1278 1366.5 1271.5 c 128,-1,40
 1355 1265 1355 1265 1342 1262 c 128,-1,41
 1329 1259 1329 1259 1316 1259 c 0,42,43
 1275 1259 1275 1259 1243 1251 c 128,-1,44
 1211 1243 1211 1243 1189.5 1222.5 c 128,-1,45
 1168 1202 1168 1202 1157 1168.5 c 128,-1,46
 1146 1135 1146 1135 1146 1084 c 2,47,-1
 1146 1035 l 1,48,-1
 1543 1035 l 1,49,-1
 1605 1290 l 2,50,51
 1617 1338 1617 1338 1673 1338 c 2,52,-1
 1835 1338 l 1,53,-1
 1835 1035 l 1,54,-1
 2092 1035 l 1,55,-1
 2092 823 l 1,56,-1
 1835 823 l 1,57,-1
 1835 308 l 2,58,59
 1835 272 1835 272 1852.5 248.5 c 128,-1,60
 1870 225 1870 225 1903 225 c 0,61,62
 1920 225 1920 225 1931.5 228.5 c 128,-1,63
 1943 232 1943 232 1951.5 236.5 c 128,-1,64
 1960 241 1960 241 1967.5 244.5 c 128,-1,65
 1975 248 1975 248 1985 248 c 0,66,67
 1999 248 1999 248 2007.5 241.5 c 128,-1,68
 2016 235 2016 235 2025 221 c 2,69,-1
 2119 74 l 1,70,71
 2059 29 2059 29 1984 6.5 c 128,-1,72
 1909 -16 1909 -16 1829 -16 c 0,73,74
 1755 -16 1755 -16 1698.5 5.5 c 128,-1,75
 1642 27 1642 27 1603.5 66.5 c 128,-1,76
 1565 106 1565 106 1545 162 c 128,-1,77
 1525 218 1525 218 1525 287 c 2,78,-1
 1525 823 l 1,79,-1
 1156 823 l 1,80,-1
 1156 0 l 1,81,-1
 846 0 l 1,82,-1
 846 823 l 1,83,-1
 492 823 l 1,84,-1
 492 0 l 1,85,-1
 182 0 l 1,0,-1
EndSplineSet
Ligature2: "'liga' Standard Ligatures in Latin lookup 31 subtable" f f t
EndChar

StartChar: g
Encoding: 103 103 70
Width: 1071
Flags: W
AnchorPoint: "+BBEENQQ3BEsEPARPBD0EPQQ+BDUA--3" 524 1120 basechar 0
AnchorPoint: "+BBEENQQ3BEsEPARPBD0EPQQ+BDUA--1" 577 -421 basechar 0
LayerCount: 2
Fore
SplineSet
500 573 m 0,0,1
 577 573 577 573 611.5 611.5 c 128,-1,2
 646 650 646 650 646 711 c 0,3,4
 646 774 646 774 611.5 810 c 128,-1,5
 577 846 577 846 500 846 c 256,6,7
 423 846 423 846 388.5 810 c 128,-1,8
 354 774 354 774 354 711 c 0,9,10
 354 681 354 681 362.5 656 c 128,-1,11
 371 631 371 631 389 612.5 c 128,-1,12
 407 594 407 594 434.5 583.5 c 128,-1,13
 462 573 462 573 500 573 c 0,0,1
740 -38 m 0,14,15
 740 -1 740 -1 707 15.5 c 128,-1,16
 674 32 674 32 621 39 c 128,-1,17
 568 46 568 46 502.5 47.5 c 128,-1,18
 437 49 437 49 372 55 c 1,19,20
 343 35 343 35 324.5 10.5 c 128,-1,21
 306 -14 306 -14 306 -45 c 0,22,23
 306 -67 306 -67 315.5 -85 c 128,-1,24
 325 -103 325 -103 349 -116 c 128,-1,25
 373 -129 373 -129 413.5 -136.5 c 128,-1,26
 454 -144 454 -144 516 -144 c 0,27,28
 583 -144 583 -144 626 -136 c 128,-1,29
 669 -128 669 -128 694.5 -114 c 128,-1,30
 720 -100 720 -100 730 -80.5 c 128,-1,31
 740 -61 740 -61 740 -38 c 0,14,15
1046 1005 m 1,32,-1
 1046 892 l 2,33,34
 1046 866 1046 866 1031.5 851 c 128,-1,35
 1017 836 1017 836 982 828 c 2,36,-1
 907 811 l 1,37,38
 913 789 913 789 916.5 766 c 128,-1,39
 920 743 920 743 920 718 c 0,40,41
 920 640 920 640 887.5 578 c 128,-1,42
 855 516 855 516 798.5 472.5 c 128,-1,43
 742 429 742 429 665 405.5 c 128,-1,44
 588 382 588 382 500 382 c 0,45,46
 476 382 476 382 453 383.5 c 128,-1,47
 430 385 430 385 408 389 c 1,48,49
 374 368 374 368 374 342 c 256,50,51
 374 316 374 316 402 304.5 c 128,-1,52
 430 293 430 293 476 288.5 c 128,-1,53
 522 284 522 284 580.5 282.5 c 128,-1,54
 639 281 639 281 700 275.5 c 128,-1,55
 761 270 761 270 819.5 257 c 128,-1,56
 878 244 878 244 924 215 c 128,-1,57
 970 186 970 186 998 137.5 c 128,-1,58
 1026 89 1026 89 1026 14 c 0,59,60
 1026 -56 1026 -56 992 -123 c 128,-1,61
 958 -190 958 -190 892 -242 c 128,-1,62
 826 -294 826 -294 730 -325.5 c 128,-1,63
 634 -357 634 -357 510 -357 c 0,64,65
 388 -357 388 -357 299.5 -334 c 128,-1,66
 211 -311 211 -311 152.5 -273.5 c 128,-1,67
 94 -236 94 -236 66 -187 c 128,-1,68
 38 -138 38 -138 38 -85 c 0,69,70
 38 -16 38 -16 78 30 c 128,-1,71
 118 76 118 76 190 104 c 1,72,73
 152 127 152 127 130 163 c 128,-1,74
 108 199 108 199 108 256 c 0,75,76
 108 279 108 279 116 304.5 c 128,-1,77
 124 330 124 330 141.5 354.5 c 128,-1,78
 159 379 159 379 185 401 c 128,-1,79
 211 423 211 423 247 440 c 1,80,81
 166 483 166 483 119 553.5 c 128,-1,82
 72 624 72 624 72 718 c 0,83,84
 72 796 72 796 105 858.5 c 128,-1,85
 138 921 138 921 195.5 964.5 c 128,-1,86
 253 1008 253 1008 331 1031.5 c 128,-1,87
 409 1055 409 1055 500 1055 c 0,88,89
 632 1055 632 1055 734 1005 c 1,90,-1
 1046 1005 l 1,32,-1
EndSplineSet
Substitution2: "'ss04' Style Set 4 lookup 39 subtable" _094
Substitution2: "'salt' Stylistic Alternatives lookup 33 subtable" _094
Substitution2: "'ordn' Ordinals in Latin lookup 29 subtable" _150
Substitution2: "'sups' +BBIENQRABEUEPQQ4BDkA +BDgEPQQ0BDUEOgRB lookup 25 subtable" _150
EndChar

StartChar: _094
Encoding: 65567 -1 71
Width: 1148
Flags: W
AnchorPoint: "+BBEENQQ3BEsEPARPBD0EPQQ+BDUA--3" 571 1120 basechar 0
LayerCount: 2
Fore
SplineSet
734 759 m 1,0,1
 699 797 699 797 658 813 c 128,-1,2
 617 829 617 829 572 829 c 0,3,4
 529 829 529 829 493 812.5 c 128,-1,5
 457 796 457 796 430.5 760 c 128,-1,6
 404 724 404 724 389 668 c 128,-1,7
 374 612 374 612 374 534 c 0,8,9
 374 384 374 384 421.5 317.5 c 128,-1,10
 469 251 469 251 557 251 c 0,11,12
 613 251 613 251 653.5 276 c 128,-1,13
 694 301 694 301 734 349 c 1,14,-1
 734 759 l 1,0,1
1044 1037 m 1,15,-1
 1044 92 l 2,16,17
 1044 -4 1044 -4 1006 -86 c 128,-1,18
 968 -168 968 -168 897.5 -227 c 128,-1,19
 827 -286 827 -286 726 -319.5 c 128,-1,20
 625 -353 625 -353 499 -353 c 0,21,22
 427 -353 427 -353 367 -342.5 c 128,-1,23
 307 -332 307 -332 257.5 -314 c 128,-1,24
 208 -296 208 -296 169 -272 c 128,-1,25
 130 -248 130 -248 100 -221 c 1,26,-1
 172 -106 l 2,27,28
 184 -86 184 -86 202.5 -75 c 128,-1,29
 221 -64 221 -64 250 -64 c 0,30,31
 277 -64 277 -64 298 -75.5 c 128,-1,32
 319 -87 319 -87 344 -101.5 c 128,-1,33
 369 -116 369 -116 403 -127.5 c 128,-1,34
 437 -139 437 -139 490 -139 c 0,35,36
 551 -139 551 -139 597 -121.5 c 128,-1,37
 643 -104 643 -104 673.5 -74 c 128,-1,38
 704 -44 704 -44 719 -5 c 128,-1,39
 734 34 734 34 734 77 c 2,40,-1
 734 124 l 1,41,42
 705 95 705 95 677 74 c 128,-1,43
 649 53 649 53 618.5 39.5 c 128,-1,44
 588 26 588 26 552.5 20 c 128,-1,45
 517 14 517 14 472 14 c 0,46,47
 375 14 375 14 297.5 51 c 128,-1,48
 220 88 220 88 166 156 c 128,-1,49
 112 224 112 224 83 320 c 128,-1,50
 54 416 54 416 54 534 c 0,51,52
 54 643 54 643 86 738.5 c 128,-1,53
 118 834 118 834 176.5 904.5 c 128,-1,54
 235 975 235 975 317 1015.5 c 128,-1,55
 399 1056 399 1056 498 1056 c 0,56,57
 545 1056 545 1056 583 1048 c 128,-1,58
 621 1040 621 1040 652.5 1025 c 128,-1,59
 684 1010 684 1010 711 989.5 c 128,-1,60
 738 969 738 969 763 944 c 1,61,-1
 776 985 l 2,62,63
 794 1037 794 1037 852 1037 c 2,64,-1
 1044 1037 l 1,15,-1
EndSplineSet
EndChar

StartChar: h
Encoding: 104 104 72
Width: 1140
Flags: W
AnchorPoint: "+BBEENQQ3BEsEPARPBD0EPQQ+BDUA--3" 336 1525 basechar 0
AnchorPoint: "+BBEENQQ3BEsEPARPBD0EPQQ+BDUA--1" 575 -70 basechar 0
AnchorPoint: "+BBEENQQ3BEsEPARPBD0EPQQ+BDUA--0" 336 1525 basechar 0
LayerCount: 2
Fore
SplineSet
415 946 m 1,0,1
 471 994 471 994 536.5 1023.5 c 128,-1,2
 602 1053 602 1053 693 1053 c 0,3,4
 778 1053 778 1053 843.5 1023.5 c 128,-1,5
 909 994 909 994 954 941.5 c 128,-1,6
 999 889 999 889 1022 816.5 c 128,-1,7
 1045 744 1045 744 1045 659 c 2,8,-1
 1045 0 l 1,9,-1
 735 0 l 1,10,-1
 735 659 l 2,11,12
 735 735 735 735 700 777.5 c 128,-1,13
 665 820 665 820 597 820 c 0,14,15
 546 820 546 820 501.5 798.5 c 128,-1,16
 457 777 457 777 415 740 c 1,17,-1
 415 0 l 1,18,-1
 105 0 l 1,19,-1
 105 1497 l 1,20,-1
 415 1497 l 1,21,-1
 415 946 l 1,0,1
EndSplineSet
Substitution2: "'ordn' Ordinals in Latin lookup 29 subtable" _151
Substitution2: "'sups' +BBIENQRABEUEPQQ4BDkA +BDgEPQQ0BDUEOgRB lookup 25 subtable" _151
EndChar

StartChar: i
Encoding: 105 105 73
Width: 534
Flags: W
AnchorPoint: "+BBEENQQ3BEsEPARPBD0EPQQ+BDUA--3" 267 1525 basechar 0
AnchorPoint: "+BBEENQQ3BEsEPARPBD0EPQQ+BDUA--1" 267 -70 basechar 0
AnchorPoint: "+BBEENQQ3BEsEPARPBD0EPQQ+BDUA--0" 267 1525 basechar 0
LayerCount: 2
Fore
SplineSet
422 1037 m 1,0,-1
 422 0 l 1,1,-1
 112 0 l 1,2,-1
 112 1037 l 1,3,-1
 422 1037 l 1,0,-1
454 1321 m 0,4,5
 454 1284 454 1284 439 1251.5 c 128,-1,6
 424 1219 424 1219 398 1194.5 c 128,-1,7
 372 1170 372 1170 337.5 1155.5 c 128,-1,8
 303 1141 303 1141 264 1141 c 0,9,10
 226 1141 226 1141 193 1155.5 c 128,-1,11
 160 1170 160 1170 134.5 1194.5 c 128,-1,12
 109 1219 109 1219 94.5 1251.5 c 128,-1,13
 80 1284 80 1284 80 1321 c 0,14,15
 80 1359 80 1359 94.5 1392 c 128,-1,16
 109 1425 109 1425 134.5 1450 c 128,-1,17
 160 1475 160 1475 193 1489 c 128,-1,18
 226 1503 226 1503 264 1503 c 0,19,20
 303 1503 303 1503 337.5 1489 c 128,-1,21
 372 1475 372 1475 398 1450 c 128,-1,22
 424 1425 424 1425 439 1392 c 128,-1,23
 454 1359 454 1359 454 1321 c 0,4,5
EndSplineSet
Substitution2: "Single Substitution lookup 40 subtable" dotlessi
Substitution2: "'ordn' Ordinals in Latin lookup 29 subtable" _152
Substitution2: "'sups' +BBIENQRABEUEPQQ4BDkA +BDgEPQQ0BDUEOgRB lookup 25 subtable" _152
EndChar

StartChar: _101
Encoding: 65568 -1 74
Width: 1089
Flags: W
LayerCount: 2
Fore
SplineSet
834 1141 m 0,0,1
 796 1141 796 1141 763 1155.5 c 128,-1,2
 730 1170 730 1170 704.5 1194.5 c 128,-1,3
 679 1219 679 1219 664.5 1251.5 c 128,-1,4
 650 1284 650 1284 650 1321 c 0,5,6
 650 1359 650 1359 664.5 1392 c 128,-1,7
 679 1425 679 1425 704.5 1450 c 128,-1,8
 730 1475 730 1475 763 1489 c 128,-1,9
 796 1503 796 1503 834 1503 c 0,10,11
 873 1503 873 1503 907.5 1489 c 128,-1,12
 942 1475 942 1475 968 1450 c 128,-1,13
 994 1425 994 1425 1009 1392 c 128,-1,14
 1024 1359 1024 1359 1024 1321 c 0,15,16
 1024 1284 1024 1284 1009 1251.5 c 128,-1,17
 994 1219 994 1219 968 1194.5 c 128,-1,18
 942 1170 942 1170 907.5 1155.5 c 128,-1,19
 873 1141 873 1141 834 1141 c 0,0,1
257 1141 m 0,20,21
 219 1141 219 1141 186 1155.5 c 128,-1,22
 153 1170 153 1170 127.5 1194.5 c 128,-1,23
 102 1219 102 1219 87.5 1251.5 c 128,-1,24
 73 1284 73 1284 73 1321 c 0,25,26
 73 1359 73 1359 87.5 1392 c 128,-1,27
 102 1425 102 1425 127.5 1450 c 128,-1,28
 153 1475 153 1475 186 1489 c 128,-1,29
 219 1503 219 1503 257 1503 c 0,30,31
 296 1503 296 1503 330.5 1489 c 128,-1,32
 365 1475 365 1475 391 1450 c 128,-1,33
 417 1425 417 1425 432 1392 c 128,-1,34
 447 1359 447 1359 447 1321 c 0,35,36
 447 1284 447 1284 432 1251.5 c 128,-1,37
 417 1219 417 1219 391 1194.5 c 128,-1,38
 365 1170 365 1170 330.5 1155.5 c 128,-1,39
 296 1141 296 1141 257 1141 c 0,20,21
675 1037 m 1,40,-1
 985 1037 l 1,41,-1
 985 43 l 2,42,43
 985 -42 985 -42 962 -114.5 c 128,-1,44
 939 -187 939 -187 888.5 -240.5 c 128,-1,45
 838 -294 838 -294 757.5 -324.5 c 128,-1,46
 677 -355 677 -355 561 -355 c 0,47,48
 523 -355 523 -355 485.5 -350.5 c 128,-1,49
 448 -346 448 -346 413 -337 c 1,50,-1
 433 -174 l 2,51,52
 435 -153 435 -153 447 -143 c 128,-1,53
 459 -133 459 -133 495 -133 c 0,54,55
 539 -133 539 -133 573 -125 c 128,-1,56
 607 -117 607 -117 629.5 -97 c 128,-1,57
 652 -77 652 -77 663.5 -43 c 128,-1,58
 675 -9 675 -9 675 43 c 2,59,-1
 675 71 l 1,60,61
 631 29 631 29 580 7.5 c 128,-1,62
 529 -14 529 -14 455 -14 c 0,63,64
 367 -14 367 -14 300 15.5 c 128,-1,65
 233 45 233 45 187.5 97 c 128,-1,66
 142 149 142 149 118.5 221 c 128,-1,67
 95 293 95 293 95 379 c 2,68,-1
 95 1037 l 1,69,-1
 405 1037 l 1,70,-1
 405 379 l 2,71,72
 405 302 405 302 445 260 c 128,-1,73
 485 218 485 218 553 218 c 0,74,75
 600 218 600 218 626 230.5 c 128,-1,76
 652 243 652 243 675 276 c 1,77,-1
 675 1037 l 1,40,-1
EndSplineSet
Ligature2: "'dlig' Discretionary Ligatures in Latin lookup 32 subtable" i j
EndChar

StartChar: j
Encoding: 106 106 75
Width: 534
Flags: W
AnchorPoint: "+BBEENQQ3BEsEPARPBD0EPQQ+BDUA--3" 267 1525 basechar 0
AnchorPoint: "+BBEENQQ3BEsEPARPBD0EPQQ+BDUA--1" 267 -421 basechar 0
AnchorPoint: "+BBEENQQ3BEsEPARPBD0EPQQ+BDUA--0" 267 1525 basechar 0
LayerCount: 2
Fore
SplineSet
422 1037 m 1,0,-1
 422 -2 l 2,1,2
 422 -75 422 -75 403.5 -139.5 c 128,-1,3
 385 -204 385 -204 342.5 -252.5 c 128,-1,4
 300 -301 300 -301 230.5 -329 c 128,-1,5
 161 -357 161 -357 58 -357 c 0,6,7
 20 -357 20 -357 -12.5 -352.5 c 128,-1,8
 -45 -348 -45 -348 -80 -339 c 1,9,-1
 -70 -176 l 2,10,11
 -68 -155 -68 -155 -56 -145 c 128,-1,12
 -44 -135 -44 -135 -8 -135 c 256,13,14
 28 -135 28 -135 51 -129 c 128,-1,15
 74 -123 74 -123 87.5 -108 c 128,-1,16
 101 -93 101 -93 106.5 -67.5 c 128,-1,17
 112 -42 112 -42 112 -2 c 2,18,-1
 112 1037 l 1,19,-1
 422 1037 l 1,0,-1
454 1321 m 0,20,21
 454 1284 454 1284 439 1251.5 c 128,-1,22
 424 1219 424 1219 398 1194.5 c 128,-1,23
 372 1170 372 1170 337.5 1155.5 c 128,-1,24
 303 1141 303 1141 264 1141 c 0,25,26
 226 1141 226 1141 193 1155.5 c 128,-1,27
 160 1170 160 1170 134.5 1194.5 c 128,-1,28
 109 1219 109 1219 94.5 1251.5 c 128,-1,29
 80 1284 80 1284 80 1321 c 0,30,31
 80 1359 80 1359 94.5 1392 c 128,-1,32
 109 1425 109 1425 134.5 1450 c 128,-1,33
 160 1475 160 1475 193 1489 c 128,-1,34
 226 1503 226 1503 264 1503 c 0,35,36
 303 1503 303 1503 337.5 1489 c 128,-1,37
 372 1475 372 1475 398 1450 c 128,-1,38
 424 1425 424 1425 439 1392 c 128,-1,39
 454 1359 454 1359 454 1321 c 0,20,21
EndSplineSet
Substitution2: "Single Substitution lookup 40 subtable" uni0237
Substitution2: "'ordn' Ordinals in Latin lookup 29 subtable" _153
Substitution2: "'sups' +BBIENQRABEUEPQQ4BDkA +BDgEPQQ0BDUEOgRB lookup 25 subtable" _153
EndChar

StartChar: k
Encoding: 107 107 76
Width: 1117
Flags: W
AnchorPoint: "+BBEENQQ3BEsEPARPBD0EPQQ+BDUA--3" 373 1525 basechar 0
AnchorPoint: "+BBEENQQ3BEsEPARPBD0EPQQ+BDUA--1" 576 -70 basechar 0
AnchorPoint: "+BBEENQQ3BEsEPARPBD0EPQQ+BDUA--0" 373 1525 basechar 0
LayerCount: 2
Fore
SplineSet
415 1497 m 1,0,-1
 415 658 l 1,1,-1
 461 658 l 2,2,3
 490 658 490 658 505 666.5 c 128,-1,4
 520 675 520 675 535 695 c 2,5,-1
 731 987 l 2,6,7
 749 1012 749 1012 772 1024.5 c 128,-1,8
 795 1037 795 1037 831 1037 c 2,9,-1
 1115 1037 l 1,10,-1
 847 668 l 2,11,12
 809 618 809 618 757 586 c 1,13,14
 780 569 780 569 799 546.5 c 128,-1,15
 818 524 818 524 835 496 c 2,16,-1
 1127 0 l 1,17,-1
 847 0 l 2,18,19
 812 0 812 0 787 11.5 c 128,-1,20
 762 23 762 23 745 52 c 2,21,-1
 549 419 l 2,22,23
 535 444 535 444 520 451.5 c 128,-1,24
 505 459 505 459 475 459 c 2,25,-1
 415 459 l 1,26,-1
 415 0 l 1,27,-1
 105 0 l 1,28,-1
 105 1497 l 1,29,-1
 415 1497 l 1,0,-1
EndSplineSet
Substitution2: "'ordn' Ordinals in Latin lookup 29 subtable" _154
Substitution2: "'sups' +BBIENQRABEUEPQQ4BDkA +BDgEPQQ0BDUEOgRB lookup 25 subtable" _154
EndChar

StartChar: m
Encoding: 109 109 77
Width: 1702
Flags: W
AnchorPoint: "+BBEENQQ3BEsEPARPBD0EPQQ+BDUA--3" 887 1120 basechar 0
AnchorPoint: "+BBEENQQ3BEsEPARPBD0EPQQ+BDUA--1" 863 -70 basechar 0
LayerCount: 2
Fore
SplineSet
105 0 m 1,0,-1
 105 1037 l 1,1,-1
 297 1037 l 2,2,3
 355 1037 355 1037 373 985 c 2,4,-1
 390 929 l 1,5,6
 416 956 416 956 444 978.5 c 128,-1,7
 472 1001 472 1001 504.5 1017.5 c 128,-1,8
 537 1034 537 1034 574.5 1043.5 c 128,-1,9
 612 1053 612 1053 657 1053 c 0,10,11
 751 1053 751 1053 812.5 1004.5 c 128,-1,12
 874 956 874 956 906 875 c 1,13,14
 932 923 932 923 969.5 957 c 128,-1,15
 1007 991 1007 991 1050.5 1012 c 128,-1,16
 1094 1033 1094 1033 1142.5 1043 c 128,-1,17
 1191 1053 1191 1053 1239 1053 c 0,18,19
 1328 1053 1328 1053 1397 1026.5 c 128,-1,20
 1466 1000 1466 1000 1512.5 949.5 c 128,-1,21
 1559 899 1559 899 1583 825.5 c 128,-1,22
 1607 752 1607 752 1607 659 c 2,23,-1
 1607 0 l 1,24,-1
 1297 0 l 1,25,-1
 1297 659 l 2,26,27
 1297 820 1297 820 1159 820 c 0,28,29
 1096 820 1096 820 1054.5 778.5 c 128,-1,30
 1013 737 1013 737 1013 659 c 2,31,-1
 1013 0 l 1,32,-1
 703 0 l 1,33,-1
 703 659 l 2,34,35
 703 748 703 748 668 784 c 128,-1,36
 633 820 633 820 565 820 c 0,37,38
 523 820 523 820 485.5 801 c 128,-1,39
 448 782 448 782 415 750 c 1,40,-1
 415 0 l 1,41,-1
 105 0 l 1,0,-1
EndSplineSet
Substitution2: "'ordn' Ordinals in Latin lookup 29 subtable" _156
Substitution2: "'sups' +BBIENQRABEUEPQQ4BDkA +BDgEPQQ0BDUEOgRB lookup 25 subtable" _156
EndChar

StartChar: n
Encoding: 110 110 78
Width: 1140
Flags: W
AnchorPoint: "+BBEENQQ3BEsEPARPBD0EPQQ+BDUA--3" 583 1120 basechar 0
AnchorPoint: "+BBEENQQ3BEsEPARPBD0EPQQ+BDUA--1" 575 -70 basechar 0
LayerCount: 2
Fore
SplineSet
391 925 m 1,0,1
 421 953 421 953 453 977 c 128,-1,2
 485 1001 485 1001 521.5 1017.5 c 128,-1,3
 558 1034 558 1034 600.5 1043.5 c 128,-1,4
 643 1053 643 1053 693 1053 c 0,5,6
 778 1053 778 1053 843.5 1023.5 c 128,-1,7
 909 994 909 994 954 941.5 c 128,-1,8
 999 889 999 889 1022 816.5 c 128,-1,9
 1045 744 1045 744 1045 659 c 2,10,-1
 1045 0 l 1,11,-1
 735 0 l 1,12,-1
 735 659 l 2,13,14
 735 735 735 735 700 777.5 c 128,-1,15
 665 820 665 820 597 820 c 0,16,17
 546 820 546 820 501.5 798.5 c 128,-1,18
 457 777 457 777 415 740 c 1,19,-1
 415 0 l 1,20,-1
 105 0 l 1,21,-1
 105 1037 l 1,22,-1
 297 1037 l 2,23,24
 355 1037 355 1037 373 985 c 2,25,-1
 391 925 l 1,0,1
EndSplineSet
Substitution2: "'ordn' Ordinals in Latin lookup 29 subtable" uni207F
Substitution2: "'sups' +BBIENQRABEUEPQQ4BDkA +BDgEPQQ0BDUEOgRB lookup 25 subtable" uni207F
Substitution2: "'dnom' Denominators lookup 20 subtable" _1223
Substitution2: "'numr' Numerators lookup 19 subtable" _1278
Substitution2: "'subs' +BB0EOAQ2BD0EOAQ5 +BDgEPQQ0BDUEOgRB lookup 18 subtable" uni208F
Substitution2: "Single Substitution lookup 15 subtable" _1223
Substitution2: "Single Substitution lookup 3 subtable" _1278
EndChar

StartChar: o
Encoding: 111 111 79
Width: 1162
Flags: W
AnchorPoint: "+BBEENQQ3BEsEPARPBD0EPQQ+BDUA--3" 583 1120 basechar 0
AnchorPoint: "+BBEENQQ3BEsEPARPBD0EPQQ+BDUA--1" 583 -70 basechar 0
LayerCount: 2
Fore
SplineSet
583 1053 m 0,0,1
 701 1053 701 1053 798 1016 c 128,-1,2
 895 979 895 979 964.5 910 c 128,-1,3
 1034 841 1034 841 1072.5 742.5 c 128,-1,4
 1111 644 1111 644 1111 521 c 0,5,6
 1111 397 1111 397 1072.5 297.5 c 128,-1,7
 1034 198 1034 198 964.5 128.5 c 128,-1,8
 895 59 895 59 798 21.5 c 128,-1,9
 701 -16 701 -16 583 -16 c 0,10,11
 464 -16 464 -16 366.5 21.5 c 128,-1,12
 269 59 269 59 198.5 128.5 c 128,-1,13
 128 198 128 198 89.5 297.5 c 128,-1,14
 51 397 51 397 51 521 c 0,15,16
 51 644 51 644 89.5 742.5 c 128,-1,17
 128 841 128 841 198.5 910 c 128,-1,18
 269 979 269 979 366.5 1016 c 128,-1,19
 464 1053 464 1053 583 1053 c 0,0,1
583 214 m 0,20,21
 690 214 690 214 740.5 289.5 c 128,-1,22
 791 365 791 365 791 519 c 256,23,24
 791 673 791 673 740.5 748 c 128,-1,25
 690 823 690 823 583 823 c 0,26,27
 473 823 473 823 422 748 c 128,-1,28
 371 673 371 673 371 519 c 256,29,30
 371 365 371 365 422 289.5 c 128,-1,31
 473 214 473 214 583 214 c 0,20,21
EndSplineSet
Substitution2: "'ordn' Ordinals in Latin lookup 29 subtable" _158
Substitution2: "'sups' +BBIENQRABEUEPQQ4BDkA +BDgEPQQ0BDUEOgRB lookup 25 subtable" _158
EndChar

StartChar: p
Encoding: 112 112 80
Width: 1150
Flags: W
AnchorPoint: "+BBEENQQ3BEsEPARPBD0EPQQ+BDUA--3" 553 1120 basechar 0
AnchorPoint: "+BBEENQQ3BEsEPARPBD0EPQQ+BDUA--1" 534 -421 basechar 0
LayerCount: 2
Fore
SplineSet
415 282 m 1,0,1
 450 244 450 244 491 228 c 128,-1,2
 532 212 532 212 577 212 c 0,3,4
 620 212 620 212 656 229 c 128,-1,5
 692 246 692 246 718.5 283.5 c 128,-1,6
 745 321 745 321 760 381 c 128,-1,7
 775 441 775 441 775 527 c 0,8,9
 775 609 775 609 763 665 c 128,-1,10
 751 721 751 721 729.5 755.5 c 128,-1,11
 708 790 708 790 678 805 c 128,-1,12
 648 820 648 820 611 820 c 0,13,14
 543 820 543 820 499 795 c 128,-1,15
 455 770 455 770 415 722 c 1,16,-1
 415 282 l 1,0,1
396 909 m 1,17,18
 457 974 457 974 534.5 1015.5 c 128,-1,19
 612 1057 612 1057 719 1057 c 0,20,21
 800 1057 800 1057 869 1021 c 128,-1,22
 938 985 938 985 988 917 c 128,-1,23
 1038 849 1038 849 1066.5 750.5 c 128,-1,24
 1095 652 1095 652 1095 527 c 0,25,26
 1095 410 1095 410 1062.5 311 c 128,-1,27
 1030 212 1030 212 971.5 139 c 128,-1,28
 913 66 913 66 831.5 25 c 128,-1,29
 750 -16 750 -16 651 -16 c 0,30,31
 570 -16 570 -16 515 7 c 128,-1,32
 460 30 460 30 415 69 c 1,33,-1
 415 -329 l 1,34,-1
 105 -329 l 1,35,-1
 105 1037 l 1,36,-1
 297 1037 l 2,37,38
 355 1037 355 1037 373 985 c 2,39,-1
 396 909 l 1,17,18
EndSplineSet
Substitution2: "'ordn' Ordinals in Latin lookup 29 subtable" _159
Substitution2: "'sups' +BBIENQRABEUEPQQ4BDkA +BDgEPQQ0BDUEOgRB lookup 25 subtable" _159
EndChar

StartChar: q
Encoding: 113 113 81
Width: 1149
Flags: W
AnchorPoint: "+BBEENQQ3BEsEPARPBD0EPQQ+BDUA--3" 608 1120 basechar 0
AnchorPoint: "+BBEENQQ3BEsEPARPBD0EPQQ+BDUA--1" 601 -421 basechar 0
LayerCount: 2
Fore
SplineSet
734 759 m 1,0,1
 699 797 699 797 658 813 c 128,-1,2
 617 829 617 829 572 829 c 0,3,4
 529 829 529 829 493 812 c 128,-1,5
 457 795 457 795 430.5 757.5 c 128,-1,6
 404 720 404 720 389 660 c 128,-1,7
 374 600 374 600 374 515 c 0,8,9
 374 433 374 433 386 377 c 128,-1,10
 398 321 398 321 419.5 286.5 c 128,-1,11
 441 252 441 252 471 237 c 128,-1,12
 501 222 501 222 538 222 c 0,13,14
 572 222 572 222 599.5 228.5 c 128,-1,15
 627 235 627 235 650 247 c 128,-1,16
 673 259 673 259 693.5 277.5 c 128,-1,17
 714 296 714 296 734 320 c 1,18,-1
 734 759 l 1,0,1
1044 1037 m 1,19,-1
 1044 -329 l 1,20,-1
 734 -329 l 1,21,-1
 734 113 l 1,22,23
 675 55 675 55 602 19.5 c 128,-1,24
 529 -16 529 -16 430 -16 c 0,25,26
 349 -16 349 -16 280 20 c 128,-1,27
 211 56 211 56 161 124 c 128,-1,28
 111 192 111 192 82.5 290.5 c 128,-1,29
 54 389 54 389 54 515 c 0,30,31
 54 631 54 631 86 730.5 c 128,-1,32
 118 830 118 830 176.5 902.5 c 128,-1,33
 235 975 235 975 317 1016 c 128,-1,34
 399 1057 399 1057 498 1057 c 0,35,36
 545 1057 545 1057 583 1049 c 128,-1,37
 621 1041 621 1041 652.5 1026 c 128,-1,38
 684 1011 684 1011 711 990 c 128,-1,39
 738 969 738 969 763 944 c 1,40,-1
 776 985 l 2,41,42
 794 1037 794 1037 852 1037 c 2,43,-1
 1044 1037 l 1,19,-1
EndSplineSet
Substitution2: "'ordn' Ordinals in Latin lookup 29 subtable" _160
Substitution2: "'sups' +BBIENQRABEUEPQQ4BDkA +BDgEPQQ0BDUEOgRB lookup 25 subtable" _160
EndChar

StartChar: r
Encoding: 114 114 82
Width: 763
Flags: W
AnchorPoint: "+BBEENQQ3BEsEPARPBD0EPQQ+BDUA--3" 423 1120 basechar 0
AnchorPoint: "+BBEENQQ3BEsEPARPBD0EPQQ+BDUA--1" 265 -70 basechar 0
LayerCount: 2
Fore
SplineSet
395 877 m 1,0,1
 443 961 443 961 505.5 1009 c 128,-1,2
 568 1057 568 1057 649 1057 c 0,3,4
 719 1057 719 1057 763 1024 c 1,5,-1
 743 796 l 2,6,7
 738 774 738 774 726.5 766 c 128,-1,8
 715 758 715 758 695 758 c 0,9,10
 687 758 687 758 674 759 c 128,-1,11
 661 760 661 760 647 761.5 c 128,-1,12
 633 763 633 763 618.5 764.5 c 128,-1,13
 604 766 604 766 592 766 c 0,14,15
 524 766 524 766 483.5 730 c 128,-1,16
 443 694 443 694 415 630 c 1,17,-1
 415 0 l 1,18,-1
 105 0 l 1,19,-1
 105 1037 l 1,20,-1
 289 1037 l 2,21,22
 312 1037 312 1037 327.5 1033 c 128,-1,23
 343 1029 343 1029 353.5 1020.5 c 128,-1,24
 364 1012 364 1012 369.5 998 c 128,-1,25
 375 984 375 984 379 964 c 2,26,-1
 395 877 l 1,0,1
EndSplineSet
Substitution2: "'ordn' Ordinals in Latin lookup 29 subtable" _161
Substitution2: "'sups' +BBIENQRABEUEPQQ4BDkA +BDgEPQQ0BDUEOgRB lookup 25 subtable" _161
EndChar

StartChar: s
Encoding: 115 115 83
Width: 891
Flags: W
AnchorPoint: "+BBEENQQ3BEsEPARPBD0EPQQ+BDUA--3" 462 1120 basechar 0
AnchorPoint: "+BBEENQQ3BEsEPARPBD0EPQQ+BDUA--1" 426 -70 basechar 0
LayerCount: 2
Fore
SplineSet
764 810 m 2,0,1
 752 791 752 791 738.5 783 c 128,-1,2
 725 775 725 775 704 775 c 0,3,4
 682 775 682 775 660 784.5 c 128,-1,5
 638 794 638 794 612.5 805 c 128,-1,6
 587 816 587 816 555 825.5 c 128,-1,7
 523 835 523 835 482 835 c 0,8,9
 423 835 423 835 391.5 812.5 c 128,-1,10
 360 790 360 790 360 750 c 0,11,12
 360 721 360 721 380.5 702 c 128,-1,13
 401 683 401 683 435 668.5 c 128,-1,14
 469 654 469 654 512 641 c 128,-1,15
 555 628 555 628 600 612 c 128,-1,16
 645 596 645 596 688 574.5 c 128,-1,17
 731 553 731 553 765 521.5 c 128,-1,18
 799 490 799 490 819.5 445 c 128,-1,19
 840 400 840 400 840 337 c 0,20,21
 840 260 840 260 812 195 c 128,-1,22
 784 130 784 130 728.5 83 c 128,-1,23
 673 36 673 36 591.5 10 c 128,-1,24
 510 -16 510 -16 404 -16 c 0,25,26
 351 -16 351 -16 298 -6 c 128,-1,27
 245 4 245 4 195.5 21 c 128,-1,28
 146 38 146 38 104 61.5 c 128,-1,29
 62 85 62 85 32 112 c 1,30,-1
 104 226 l 2,31,32
 116 246 116 246 134.5 257.5 c 128,-1,33
 153 269 153 269 182 269 c 0,34,35
 209 269 209 269 230.5 257 c 128,-1,36
 252 245 252 245 277 231 c 128,-1,37
 302 217 302 217 335.5 205 c 128,-1,38
 369 193 369 193 420 193 c 0,39,40
 456 193 456 193 481 200.5 c 128,-1,41
 506 208 506 208 521 221 c 128,-1,42
 536 234 536 234 543 250 c 128,-1,43
 550 266 550 266 550 283 c 0,44,45
 550 314 550 314 529 334 c 128,-1,46
 508 354 508 354 474 368.5 c 128,-1,47
 440 383 440 383 396.5 395.5 c 128,-1,48
 353 408 353 408 308 424 c 128,-1,49
 263 440 263 440 219.5 462.5 c 128,-1,50
 176 485 176 485 142 519.5 c 128,-1,51
 108 554 108 554 87 604 c 128,-1,52
 66 654 66 654 66 725 c 0,53,54
 66 791 66 791 91.5 850.5 c 128,-1,55
 117 910 117 910 168 955 c 128,-1,56
 219 1000 219 1000 296 1026.5 c 128,-1,57
 373 1053 373 1053 476 1053 c 0,58,59
 532 1053 532 1053 584.5 1043 c 128,-1,60
 637 1033 637 1033 683 1015 c 128,-1,61
 729 997 729 997 767 972.5 c 128,-1,62
 805 948 805 948 834 919 c 1,63,-1
 764 810 l 2,0,1
EndSplineSet
Substitution2: "'ordn' Ordinals in Latin lookup 29 subtable" _162
Substitution2: "'sups' +BBIENQRABEUEPQQ4BDkA +BDgEPQQ0BDUEOgRB lookup 25 subtable" _162
EndChar

StartChar: _120
Encoding: 65569 -1 84
Width: 1668
Flags: W
LayerCount: 2
Fore
SplineSet
764 810 m 2,0,1
 752 791 752 791 738.5 783 c 128,-1,2
 725 775 725 775 704 775 c 0,3,4
 682 775 682 775 660 784.5 c 128,-1,5
 638 794 638 794 612.5 805 c 128,-1,6
 587 816 587 816 555 825.5 c 128,-1,7
 523 835 523 835 482 835 c 0,8,9
 423 835 423 835 391.5 812.5 c 128,-1,10
 360 790 360 790 360 750 c 0,11,12
 360 721 360 721 380.5 702 c 128,-1,13
 401 683 401 683 435 668.5 c 128,-1,14
 469 654 469 654 512 641 c 128,-1,15
 555 628 555 628 600 612 c 128,-1,16
 645 596 645 596 688 574.5 c 128,-1,17
 731 553 731 553 765 521.5 c 128,-1,18
 799 490 799 490 819.5 445 c 128,-1,19
 840 400 840 400 840 337 c 0,20,21
 840 260 840 260 812 195 c 128,-1,22
 784 130 784 130 728.5 83 c 128,-1,23
 673 36 673 36 591.5 10 c 128,-1,24
 510 -16 510 -16 404 -16 c 0,25,26
 351 -16 351 -16 298 -6 c 128,-1,27
 245 4 245 4 195.5 21 c 128,-1,28
 146 38 146 38 104 61.5 c 128,-1,29
 62 85 62 85 32 112 c 1,30,-1
 104 226 l 2,31,32
 116 246 116 246 134.5 257.5 c 128,-1,33
 153 269 153 269 182 269 c 0,34,35
 209 269 209 269 230.5 257 c 128,-1,36
 252 245 252 245 277 231 c 128,-1,37
 302 217 302 217 335.5 205 c 128,-1,38
 369 193 369 193 420 193 c 0,39,40
 456 193 456 193 481 200.5 c 128,-1,41
 506 208 506 208 521 221 c 128,-1,42
 536 234 536 234 543 250 c 128,-1,43
 550 266 550 266 550 283 c 0,44,45
 550 314 550 314 529 334 c 128,-1,46
 508 354 508 354 474 368.5 c 128,-1,47
 440 383 440 383 396.5 395.5 c 128,-1,48
 353 408 353 408 308 424 c 128,-1,49
 263 440 263 440 219.5 462.5 c 128,-1,50
 176 485 176 485 142 519.5 c 128,-1,51
 108 554 108 554 87 604 c 128,-1,52
 66 654 66 654 66 725 c 0,53,54
 66 791 66 791 91.5 850.5 c 128,-1,55
 117 910 117 910 168 955 c 128,-1,56
 219 1000 219 1000 296 1026.5 c 128,-1,57
 373 1053 373 1053 476 1053 c 0,58,59
 503 1053 503 1053 529.5 1050.5 c 128,-1,60
 556 1048 556 1048 582 1043 c 1,61,62
 560 1110 560 1110 560 1183 c 0,63,64
 560 1259 560 1259 583 1329 c 128,-1,65
 606 1399 606 1399 655.5 1452.5 c 128,-1,66
 705 1506 705 1506 783.5 1537.5 c 128,-1,67
 862 1569 862 1569 974 1569 c 0,68,69
 1082 1569 1082 1569 1159 1539 c 128,-1,70
 1236 1509 1236 1509 1285.5 1459.5 c 128,-1,71
 1335 1410 1335 1410 1358.5 1347.5 c 128,-1,72
 1382 1285 1382 1285 1382 1221 c 2,73,-1
 1382 1035 l 1,74,-1
 1639 1035 l 1,75,-1
 1639 823 l 1,76,-1
 1382 823 l 1,77,-1
 1382 308 l 2,78,79
 1382 272 1382 272 1399.5 248.5 c 128,-1,80
 1417 225 1417 225 1450 225 c 0,81,82
 1467 225 1467 225 1478.5 228.5 c 128,-1,83
 1490 232 1490 232 1498.5 236.5 c 128,-1,84
 1507 241 1507 241 1514.5 244.5 c 128,-1,85
 1522 248 1522 248 1532 248 c 0,86,87
 1546 248 1546 248 1554.5 241.5 c 128,-1,88
 1563 235 1563 235 1572 221 c 2,89,-1
 1666 74 l 1,90,91
 1606 29 1606 29 1531 6.5 c 128,-1,92
 1456 -16 1456 -16 1376 -16 c 0,93,94
 1302 -16 1302 -16 1245.5 5.5 c 128,-1,95
 1189 27 1189 27 1150.5 66.5 c 128,-1,96
 1112 106 1112 106 1092 162 c 128,-1,97
 1072 218 1072 218 1072 287 c 2,98,-1
 1072 823 l 1,99,-1
 984 823 l 2,100,101
 960 823 960 823 943 838.5 c 128,-1,102
 926 854 926 854 926 884 c 2,103,-1
 926 1005 l 1,104,-1
 1111 1041 l 1,105,106
 1123 1068 1123 1068 1134 1099 c 128,-1,107
 1145 1130 1145 1130 1153.5 1160.5 c 128,-1,108
 1162 1191 1162 1191 1167 1220.5 c 128,-1,109
 1172 1250 1172 1250 1172 1276 c 0,110,111
 1172 1309 1172 1309 1162.5 1340.5 c 128,-1,112
 1153 1372 1153 1372 1130.5 1396 c 128,-1,113
 1108 1420 1108 1420 1070 1435 c 128,-1,114
 1032 1450 1032 1450 974 1450 c 0,115,116
 905 1450 905 1450 854 1429.5 c 128,-1,117
 803 1409 803 1409 769.5 1373.5 c 128,-1,118
 736 1338 736 1338 720 1289.5 c 128,-1,119
 704 1241 704 1241 704 1185 c 0,120,121
 704 1122 704 1122 730.5 1058 c 128,-1,122
 757 994 757 994 812 938 c 0,123,124
 824 929 824 929 834 919 c 1,125,-1
 764 810 l 2,0,1
EndSplineSet
Ligature2: "'dlig' Discretionary Ligatures in Latin lookup 32 subtable" s t
EndChar

StartChar: _121
Encoding: 65570 -1 85
Width: 1670
Flags: W
LayerCount: 2
Fore
SplineSet
764 810 m 2,0,1
 752 791 752 791 738.5 783 c 128,-1,2
 725 775 725 775 704 775 c 0,3,4
 682 775 682 775 660 784.5 c 128,-1,5
 638 794 638 794 612.5 805 c 128,-1,6
 587 816 587 816 555 825.5 c 128,-1,7
 523 835 523 835 482 835 c 0,8,9
 423 835 423 835 391.5 812.5 c 128,-1,10
 360 790 360 790 360 750 c 0,11,12
 360 721 360 721 380.5 702 c 128,-1,13
 401 683 401 683 435 668.5 c 128,-1,14
 469 654 469 654 512 641 c 128,-1,15
 555 628 555 628 600 612 c 128,-1,16
 645 596 645 596 688 574.5 c 128,-1,17
 731 553 731 553 765 521.5 c 128,-1,18
 799 490 799 490 819.5 445 c 128,-1,19
 840 400 840 400 840 337 c 0,20,21
 840 270 840 270 818.5 212 c 128,-1,22
 797 154 797 154 755.5 109 c 128,-1,23
 714 64 714 64 652.5 34 c 128,-1,24
 591 4 591 4 510 -8 c 1,25,-1
 499 -50 l 1,26,27
 547 -62 547 -62 578.5 -78 c 128,-1,28
 610 -94 610 -94 628.5 -113.5 c 128,-1,29
 647 -133 647 -133 655 -156 c 128,-1,30
 663 -179 663 -179 663 -204 c 0,31,32
 663 -239 663 -239 643.5 -267 c 128,-1,33
 624 -295 624 -295 589 -315 c 128,-1,34
 554 -335 554 -335 504.5 -345.5 c 128,-1,35
 455 -356 455 -356 395 -356 c 0,36,37
 354 -356 354 -356 319.5 -352 c 128,-1,38
 285 -348 285 -348 247 -340 c 1,39,-1
 275 -247 l 2,40,41
 281 -220 281 -220 309 -220 c 0,42,43
 324 -220 324 -220 338 -223.5 c 128,-1,44
 352 -227 352 -227 373 -227 c 0,45,46
 399 -227 399 -227 410 -218 c 128,-1,47
 421 -209 421 -209 421 -198 c 0,48,49
 421 -176 421 -176 390.5 -166 c 128,-1,50
 360 -156 360 -156 287 -145 c 1,51,-1
 333 -11 l 1,52,53
 289 -6 289 -6 245.5 5.5 c 128,-1,54
 202 17 202 17 163 33 c 128,-1,55
 124 49 124 49 90.5 69 c 128,-1,56
 57 89 57 89 32 112 c 1,57,-1
 104 226 l 2,58,59
 116 246 116 246 134.5 257.5 c 128,-1,60
 153 269 153 269 182 269 c 0,61,62
 209 269 209 269 230.5 257 c 128,-1,63
 252 245 252 245 277 231 c 128,-1,64
 302 217 302 217 335.5 205 c 128,-1,65
 369 193 369 193 420 193 c 0,66,67
 456 193 456 193 481 200.5 c 128,-1,68
 506 208 506 208 521 221 c 128,-1,69
 536 234 536 234 543 250 c 128,-1,70
 550 266 550 266 550 283 c 0,71,72
 550 314 550 314 529 334 c 128,-1,73
 508 354 508 354 474 368.5 c 128,-1,74
 440 383 440 383 396.5 395.5 c 128,-1,75
 353 408 353 408 308 424 c 128,-1,76
 263 440 263 440 219.5 462.5 c 128,-1,77
 176 485 176 485 142 519.5 c 128,-1,78
 108 554 108 554 87 604 c 128,-1,79
 66 654 66 654 66 725 c 0,80,81
 66 791 66 791 91.5 850.5 c 128,-1,82
 117 910 117 910 168 955 c 128,-1,83
 219 1000 219 1000 296 1026.5 c 128,-1,84
 373 1053 373 1053 476 1053 c 0,85,86
 503 1053 503 1053 529.5 1050.5 c 128,-1,87
 556 1048 556 1048 582 1043 c 1,88,89
 560 1110 560 1110 560 1183 c 0,90,91
 560 1259 560 1259 583 1329 c 128,-1,92
 606 1399 606 1399 655.5 1452.5 c 128,-1,93
 705 1506 705 1506 783.5 1537.5 c 128,-1,94
 862 1569 862 1569 974 1569 c 0,95,96
 1082 1569 1082 1569 1159 1539 c 128,-1,97
 1236 1509 1236 1509 1285.5 1459.5 c 128,-1,98
 1335 1410 1335 1410 1358.5 1347.5 c 128,-1,99
 1382 1285 1382 1285 1382 1221 c 2,100,-1
 1382 1035 l 1,101,-1
 1639 1035 l 1,102,-1
 1639 823 l 1,103,-1
 1382 823 l 1,104,-1
 1382 308 l 2,105,106
 1382 272 1382 272 1399.5 248.5 c 128,-1,107
 1417 225 1417 225 1450 225 c 0,108,109
 1467 225 1467 225 1478.5 228.5 c 128,-1,110
 1490 232 1490 232 1498.5 236.5 c 128,-1,111
 1507 241 1507 241 1514.5 244.5 c 128,-1,112
 1522 248 1522 248 1532 248 c 0,113,114
 1546 248 1546 248 1554.5 241.5 c 128,-1,115
 1563 235 1563 235 1572 221 c 2,116,-1
 1666 74 l 1,117,118
 1606 29 1606 29 1531 6.5 c 128,-1,119
 1456 -16 1456 -16 1376 -16 c 0,120,121
 1302 -16 1302 -16 1245.5 5.5 c 128,-1,122
 1189 27 1189 27 1150.5 66.5 c 128,-1,123
 1112 106 1112 106 1092 162 c 128,-1,124
 1072 218 1072 218 1072 287 c 2,125,-1
 1072 823 l 1,126,-1
 984 823 l 2,127,128
 960 823 960 823 943 838.5 c 128,-1,129
 926 854 926 854 926 884 c 2,130,-1
 926 1005 l 1,131,-1
 1111 1041 l 1,132,133
 1123 1068 1123 1068 1134 1099 c 128,-1,134
 1145 1130 1145 1130 1153.5 1160.5 c 128,-1,135
 1162 1191 1162 1191 1167 1220.5 c 128,-1,136
 1172 1250 1172 1250 1172 1276 c 0,137,138
 1172 1309 1172 1309 1162.5 1340.5 c 128,-1,139
 1153 1372 1153 1372 1130.5 1396 c 128,-1,140
 1108 1420 1108 1420 1070 1435 c 128,-1,141
 1032 1450 1032 1450 974 1450 c 0,142,143
 905 1450 905 1450 854 1429.5 c 128,-1,144
 803 1409 803 1409 769.5 1373.5 c 128,-1,145
 736 1338 736 1338 720 1289.5 c 128,-1,146
 704 1241 704 1241 704 1185 c 0,147,148
 704 1122 704 1122 730.5 1058 c 128,-1,149
 757 994 757 994 812 938 c 0,150,151
 824 929 824 929 834 919 c 1,152,-1
 764 810 l 2,0,1
EndSplineSet
EndChar

StartChar: t
Encoding: 116 116 86
Width: 768
Flags: W
AnchorPoint: "+BBEENQQ3BEsEPARPBD0EPQQ+BDUA--3" 371 1120 basechar 0
AnchorPoint: "+BBEENQQ3BEsEPARPBD0EPQQ+BDUA--1" 467 -70 basechar 0
LayerCount: 2
Fore
SplineSet
476 -16 m 0,0,1
 402 -16 402 -16 345.5 5.5 c 128,-1,2
 289 27 289 27 250.5 66.5 c 128,-1,3
 212 106 212 106 192 162 c 128,-1,4
 172 218 172 218 172 287 c 2,5,-1
 172 823 l 1,6,-1
 84 823 l 2,7,8
 60 823 60 823 43 838.5 c 128,-1,9
 26 854 26 854 26 884 c 2,10,-1
 26 1005 l 1,11,-1
 191 1037 l 1,12,-1
 252 1290 l 2,13,14
 264 1338 264 1338 320 1338 c 2,15,-1
 482 1338 l 1,16,-1
 482 1035 l 1,17,-1
 739 1035 l 1,18,-1
 739 823 l 1,19,-1
 482 823 l 1,20,-1
 482 308 l 2,21,22
 482 272 482 272 499.5 248.5 c 128,-1,23
 517 225 517 225 550 225 c 0,24,25
 567 225 567 225 578.5 228.5 c 128,-1,26
 590 232 590 232 598.5 236.5 c 128,-1,27
 607 241 607 241 614.5 244.5 c 128,-1,28
 622 248 622 248 632 248 c 0,29,30
 646 248 646 248 654.5 241.5 c 128,-1,31
 663 235 663 235 672 221 c 2,32,-1
 766 74 l 1,33,34
 706 29 706 29 631 6.5 c 128,-1,35
 556 -16 556 -16 476 -16 c 0,0,1
EndSplineSet
Substitution2: "'ordn' Ordinals in Latin lookup 29 subtable" _163
Substitution2: "'sups' +BBIENQRABEUEPQQ4BDkA +BDgEPQQ0BDUEOgRB lookup 25 subtable" _163
EndChar

StartChar: _127
Encoding: 65571 -1 87
Width: 1434
Flags: W
LayerCount: 2
Fore
SplineSet
882 0 m 1,0,-1
 882 823 l 1,1,-1
 482 823 l 1,2,-1
 482 308 l 2,3,4
 482 272 482 272 499.5 248.5 c 128,-1,5
 517 225 517 225 550 225 c 0,6,7
 567 225 567 225 578.5 228.5 c 128,-1,8
 590 232 590 232 598.5 236.5 c 128,-1,9
 607 241 607 241 614.5 244.5 c 128,-1,10
 622 248 622 248 632 248 c 0,11,12
 646 248 646 248 654.5 241.5 c 128,-1,13
 663 235 663 235 672 221 c 2,14,-1
 766 74 l 1,15,16
 706 29 706 29 631 6.5 c 128,-1,17
 556 -16 556 -16 476 -16 c 0,18,19
 402 -16 402 -16 345.5 5.5 c 128,-1,20
 289 27 289 27 250.5 66.5 c 128,-1,21
 212 106 212 106 192 162 c 128,-1,22
 172 218 172 218 172 287 c 2,23,-1
 172 823 l 1,24,-1
 84 823 l 2,25,26
 60 823 60 823 43 838.5 c 128,-1,27
 26 854 26 854 26 884 c 2,28,-1
 26 1005 l 1,29,-1
 191 1037 l 1,30,-1
 252 1290 l 2,31,32
 264 1338 264 1338 320 1338 c 2,33,-1
 482 1338 l 1,34,-1
 482 1035 l 1,35,-1
 882 1035 l 1,36,-1
 882 1094 l 2,37,38
 882 1183 882 1183 910.5 1255 c 128,-1,39
 939 1327 939 1327 992.5 1378 c 128,-1,40
 1046 1429 1046 1429 1123 1457 c 128,-1,41
 1200 1485 1200 1485 1298 1485 c 0,42,43
 1336 1485 1336 1485 1368 1480.5 c 128,-1,44
 1400 1476 1400 1476 1435 1466 c 1,45,-1
 1429 1315 l 2,46,47
 1428 1299 1428 1299 1421 1288.5 c 128,-1,48
 1414 1278 1414 1278 1402.5 1271.5 c 128,-1,49
 1391 1265 1391 1265 1378 1262 c 128,-1,50
 1365 1259 1365 1259 1352 1259 c 0,51,52
 1311 1259 1311 1259 1279 1251 c 128,-1,53
 1247 1243 1247 1243 1225.5 1222.5 c 128,-1,54
 1204 1202 1204 1202 1193 1168.5 c 128,-1,55
 1182 1135 1182 1135 1182 1084 c 2,56,-1
 1182 1035 l 1,57,-1
 1425 1035 l 1,58,-1
 1425 823 l 1,59,-1
 1192 823 l 1,60,-1
 1192 0 l 1,61,-1
 882 0 l 1,0,-1
EndSplineSet
Ligature2: "'liga' Standard Ligatures in Latin lookup 31 subtable" t f
EndChar

StartChar: _128
Encoding: 65572 -1 88
Width: 1340
Flags: W
LayerCount: 2
Fore
SplineSet
1070 1141 m 0,0,1
 1032 1141 1032 1141 999 1155.5 c 128,-1,2
 966 1170 966 1170 940.5 1194.5 c 128,-1,3
 915 1219 915 1219 900.5 1251.5 c 128,-1,4
 886 1284 886 1284 886 1321 c 0,5,6
 886 1359 886 1359 900.5 1392 c 128,-1,7
 915 1425 915 1425 940.5 1450 c 128,-1,8
 966 1475 966 1475 999 1489 c 128,-1,9
 1032 1503 1032 1503 1070 1503 c 0,10,11
 1109 1503 1109 1503 1143.5 1489 c 128,-1,12
 1178 1475 1178 1475 1204 1450 c 128,-1,13
 1230 1425 1230 1425 1245 1392 c 128,-1,14
 1260 1359 1260 1359 1260 1321 c 0,15,16
 1260 1284 1260 1284 1245 1251.5 c 128,-1,17
 1230 1219 1230 1219 1204 1194.5 c 128,-1,18
 1178 1170 1178 1170 1143.5 1155.5 c 128,-1,19
 1109 1141 1109 1141 1070 1141 c 0,0,1
1292 -297 m 1,20,21
 1257 -318 1257 -318 1205 -332.5 c 128,-1,22
 1153 -347 1153 -347 1094 -347 c 0,23,24
 987 -347 987 -347 931.5 -305 c 128,-1,25
 876 -263 876 -263 876 -198 c 0,26,27
 876 -147 876 -147 910 -96 c 128,-1,28
 944 -45 944 -45 1019 0 c 1,29,-1
 918 0 l 1,30,-1
 918 823 l 1,31,-1
 484 823 l 1,32,-1
 484 308 l 2,33,34
 484 272 484 272 501.5 248.5 c 128,-1,35
 519 225 519 225 552 225 c 0,36,37
 569 225 569 225 580.5 228.5 c 128,-1,38
 592 232 592 232 600.5 236.5 c 128,-1,39
 609 241 609 241 616.5 244.5 c 128,-1,40
 624 248 624 248 634 248 c 0,41,42
 648 248 648 248 656.5 241.5 c 128,-1,43
 665 235 665 235 674 221 c 2,44,-1
 768 74 l 1,45,46
 708 29 708 29 633 6.5 c 128,-1,47
 558 -16 558 -16 478 -16 c 0,48,49
 404 -16 404 -16 347.5 5.5 c 128,-1,50
 291 27 291 27 252.5 66.5 c 128,-1,51
 214 106 214 106 194 162 c 128,-1,52
 174 218 174 218 174 287 c 2,53,-1
 174 823 l 1,54,-1
 86 823 l 2,55,56
 62 823 62 823 45 838.5 c 128,-1,57
 28 854 28 854 28 884 c 2,58,-1
 28 1005 l 1,59,-1
 193 1038 l 1,60,-1
 254 1290 l 2,61,62
 266 1338 266 1338 322 1338 c 2,63,-1
 484 1338 l 1,64,-1
 484 1035 l 1,65,-1
 1228 1035 l 1,66,-1
 1228 0 l 1,67,-1
 1200 0 l 1,68,69
 1161 -21 1161 -21 1133.5 -52.5 c 128,-1,70
 1106 -84 1106 -84 1106 -122 c 0,71,72
 1106 -146 1106 -146 1119.5 -160.5 c 128,-1,73
 1133 -175 1133 -175 1160 -175 c 0,74,75
 1175 -175 1175 -175 1184 -174 c 128,-1,76
 1193 -173 1193 -173 1199 -171.5 c 128,-1,77
 1205 -170 1205 -170 1209 -168.5 c 128,-1,78
 1213 -167 1213 -167 1218 -167 c 0,79,80
 1239 -167 1239 -167 1246 -186 c 2,81,-1
 1292 -297 l 1,20,21
EndSplineSet
Ligature2: "'liga' Standard Ligatures in Latin lookup 31 subtable" t iogonek
EndChar

StartChar: _129
Encoding: 65573 -1 89
Width: 1339
Flags: W
AnchorPoint: "+BBEENQQ3BEsEPARPBD0EPQQ+BDUA--3" 1081 1120 basechar 0
AnchorPoint: "+BBEENQQ3BEsEPARPBD0EPQQ+BDUA--1" 1080 -70 basechar 0
LayerCount: 2
Fore
SplineSet
1226 0 m 1,0,-1
 916 0 l 1,1,-1
 916 823 l 1,2,-1
 482 823 l 1,3,-1
 482 308 l 2,4,5
 482 272 482 272 499.5 248.5 c 128,-1,6
 517 225 517 225 550 225 c 0,7,8
 567 225 567 225 578.5 228.5 c 128,-1,9
 590 232 590 232 598.5 236.5 c 128,-1,10
 607 241 607 241 614.5 244.5 c 128,-1,11
 622 248 622 248 632 248 c 0,12,13
 646 248 646 248 654.5 241.5 c 128,-1,14
 663 235 663 235 672 221 c 2,15,-1
 766 74 l 1,16,17
 706 29 706 29 631 6.5 c 128,-1,18
 556 -16 556 -16 476 -16 c 0,19,20
 402 -16 402 -16 345.5 5.5 c 128,-1,21
 289 27 289 27 250.5 66.5 c 128,-1,22
 212 106 212 106 192 162 c 128,-1,23
 172 218 172 218 172 287 c 2,24,-1
 172 823 l 1,25,-1
 84 823 l 2,26,27
 60 823 60 823 43 838.5 c 128,-1,28
 26 854 26 854 26 884 c 2,29,-1
 26 1005 l 1,30,-1
 191 1038 l 1,31,-1
 252 1290 l 2,32,33
 264 1338 264 1338 320 1338 c 2,34,-1
 482 1338 l 1,35,-1
 482 1035 l 1,36,-1
 1226 1035 l 1,37,-1
 1226 0 l 1,0,-1
EndSplineSet
Ligature2: "'liga' Standard Ligatures in Latin lookup 31 subtable" t dotlessi
EndChar

StartChar: _130
Encoding: 65574 -1 90
Width: 1443
Flags: W
LayerCount: 2
Fore
SplineSet
476 -16 m 0,0,1
 402 -16 402 -16 345.5 5.5 c 128,-1,2
 289 27 289 27 250.5 66.5 c 128,-1,3
 212 106 212 106 192 162 c 128,-1,4
 172 218 172 218 172 287 c 2,5,-1
 172 823 l 1,6,-1
 84 823 l 2,7,8
 60 823 60 823 43 838.5 c 128,-1,9
 26 854 26 854 26 884 c 2,10,-1
 26 1005 l 1,11,-1
 191 1037 l 1,12,-1
 252 1290 l 2,13,14
 264 1338 264 1338 320 1338 c 2,15,-1
 482 1338 l 1,16,-1
 482 1035 l 1,17,-1
 865 1035 l 1,18,-1
 927 1290 l 2,19,20
 939 1338 939 1338 995 1338 c 2,21,-1
 1157 1338 l 1,22,-1
 1157 1035 l 1,23,-1
 1414 1035 l 1,24,-1
 1414 823 l 1,25,-1
 1157 823 l 1,26,-1
 1157 308 l 2,27,28
 1157 272 1157 272 1174.5 248.5 c 128,-1,29
 1192 225 1192 225 1225 225 c 0,30,31
 1242 225 1242 225 1253.5 228.5 c 128,-1,32
 1265 232 1265 232 1273.5 236.5 c 128,-1,33
 1282 241 1282 241 1289.5 244.5 c 128,-1,34
 1297 248 1297 248 1307 248 c 0,35,36
 1321 248 1321 248 1329.5 241.5 c 128,-1,37
 1338 235 1338 235 1347 221 c 2,38,-1
 1441 74 l 1,39,40
 1381 29 1381 29 1306 6.5 c 128,-1,41
 1231 -16 1231 -16 1151 -16 c 0,42,43
 1077 -16 1077 -16 1020.5 5.5 c 128,-1,44
 964 27 964 27 925.5 66.5 c 128,-1,45
 887 106 887 106 867 162 c 128,-1,46
 847 218 847 218 847 287 c 2,47,-1
 847 823 l 1,48,-1
 482 823 l 1,49,-1
 482 308 l 2,50,51
 482 272 482 272 499.5 248.5 c 128,-1,52
 517 225 517 225 550 225 c 0,53,54
 567 225 567 225 578.5 228.5 c 128,-1,55
 590 232 590 232 598.5 236.5 c 128,-1,56
 607 241 607 241 614.5 244.5 c 128,-1,57
 622 248 622 248 632 248 c 0,58,59
 646 248 646 248 654.5 241.5 c 128,-1,60
 663 235 663 235 672 221 c 2,61,-1
 766 74 l 1,62,63
 706 29 706 29 631 6.5 c 128,-1,64
 556 -16 556 -16 476 -16 c 0,0,1
EndSplineSet
Ligature2: "'liga' Standard Ligatures in Latin lookup 31 subtable" t t
EndChar

StartChar: _131
Encoding: 65575 -1 91
Width: 2109
Flags: W
LayerCount: 2
Fore
SplineSet
2104 1315 m 2,0,1
 2103 1299 2103 1299 2096 1288.5 c 128,-1,2
 2089 1278 2089 1278 2077.5 1271.5 c 128,-1,3
 2066 1265 2066 1265 2053 1262 c 128,-1,4
 2040 1259 2040 1259 2027 1259 c 0,5,6
 1986 1259 1986 1259 1954 1251 c 128,-1,7
 1922 1243 1922 1243 1900.5 1222.5 c 128,-1,8
 1879 1202 1879 1202 1868 1168.5 c 128,-1,9
 1857 1135 1857 1135 1857 1084 c 2,10,-1
 1857 1035 l 1,11,-1
 2100 1035 l 1,12,-1
 2100 823 l 1,13,-1
 1867 823 l 1,14,-1
 1867 0 l 1,15,-1
 1557 0 l 1,16,-1
 1557 823 l 1,17,-1
 1157 823 l 1,18,-1
 1157 308 l 2,19,20
 1157 272 1157 272 1174.5 248.5 c 128,-1,21
 1192 225 1192 225 1225 225 c 0,22,23
 1242 225 1242 225 1253.5 228.5 c 128,-1,24
 1265 232 1265 232 1273.5 236.5 c 128,-1,25
 1282 241 1282 241 1289.5 244.5 c 128,-1,26
 1297 248 1297 248 1307 248 c 0,27,28
 1321 248 1321 248 1329.5 241.5 c 128,-1,29
 1338 235 1338 235 1347 221 c 2,30,-1
 1441 74 l 1,31,32
 1381 29 1381 29 1306 6.5 c 128,-1,33
 1231 -16 1231 -16 1151 -16 c 0,34,35
 1077 -16 1077 -16 1020.5 5.5 c 128,-1,36
 964 27 964 27 925.5 66.5 c 128,-1,37
 887 106 887 106 867 162 c 128,-1,38
 847 218 847 218 847 287 c 2,39,-1
 847 823 l 1,40,-1
 482 823 l 1,41,-1
 482 308 l 2,42,43
 482 272 482 272 499.5 248.5 c 128,-1,44
 517 225 517 225 550 225 c 0,45,46
 567 225 567 225 578.5 228.5 c 128,-1,47
 590 232 590 232 598.5 236.5 c 128,-1,48
 607 241 607 241 614.5 244.5 c 128,-1,49
 622 248 622 248 632 248 c 0,50,51
 646 248 646 248 654.5 241.5 c 128,-1,52
 663 235 663 235 672 221 c 2,53,-1
 766 74 l 1,54,55
 706 29 706 29 631 6.5 c 128,-1,56
 556 -16 556 -16 476 -16 c 0,57,58
 402 -16 402 -16 345.5 5.5 c 128,-1,59
 289 27 289 27 250.5 66.5 c 128,-1,60
 212 106 212 106 192 162 c 128,-1,61
 172 218 172 218 172 287 c 2,62,-1
 172 823 l 1,63,-1
 84 823 l 2,64,65
 60 823 60 823 43 838.5 c 128,-1,66
 26 854 26 854 26 884 c 2,67,-1
 26 1005 l 1,68,-1
 191 1038 l 1,69,-1
 252 1290 l 2,70,71
 264 1338 264 1338 320 1338 c 2,72,-1
 482 1338 l 1,73,-1
 482 1035 l 1,74,-1
 865 1035 l 1,75,-1
 927 1290 l 2,76,77
 939 1338 939 1338 995 1338 c 2,78,-1
 1157 1338 l 1,79,-1
 1157 1035 l 1,80,-1
 1557 1035 l 1,81,-1
 1557 1094 l 2,82,83
 1557 1183 1557 1183 1585.5 1255 c 128,-1,84
 1614 1327 1614 1327 1667.5 1378 c 128,-1,85
 1721 1429 1721 1429 1798 1457 c 128,-1,86
 1875 1485 1875 1485 1973 1485 c 0,87,88
 2011 1485 2011 1485 2043 1480.5 c 128,-1,89
 2075 1476 2075 1476 2110 1466 c 1,90,-1
 2104 1315 l 2,0,1
EndSplineSet
Ligature2: "'liga' Standard Ligatures in Latin lookup 31 subtable" t t f
EndChar

StartChar: _132
Encoding: 65576 -1 92
Width: 1995
Flags: W
LayerCount: 2
Fore
SplineSet
1725 1141 m 0,0,1
 1687 1141 1687 1141 1654 1155.5 c 128,-1,2
 1621 1170 1621 1170 1595.5 1194.5 c 128,-1,3
 1570 1219 1570 1219 1555.5 1251.5 c 128,-1,4
 1541 1284 1541 1284 1541 1321 c 0,5,6
 1541 1359 1541 1359 1555.5 1392 c 128,-1,7
 1570 1425 1570 1425 1595.5 1450 c 128,-1,8
 1621 1475 1621 1475 1654 1489 c 128,-1,9
 1687 1503 1687 1503 1725 1503 c 0,10,11
 1764 1503 1764 1503 1798.5 1489 c 128,-1,12
 1833 1475 1833 1475 1859 1450 c 128,-1,13
 1885 1425 1885 1425 1900 1392 c 128,-1,14
 1915 1359 1915 1359 1915 1321 c 0,15,16
 1915 1284 1915 1284 1900 1251.5 c 128,-1,17
 1885 1219 1885 1219 1859 1194.5 c 128,-1,18
 1833 1170 1833 1170 1798.5 1155.5 c 128,-1,19
 1764 1141 1764 1141 1725 1141 c 0,0,1
1950 -297 m 1,20,21
 1915 -318 1915 -318 1863 -332.5 c 128,-1,22
 1811 -347 1811 -347 1752 -347 c 0,23,24
 1645 -347 1645 -347 1589.5 -305 c 128,-1,25
 1534 -263 1534 -263 1534 -198 c 0,26,27
 1534 -147 1534 -147 1568 -96 c 128,-1,28
 1602 -45 1602 -45 1677 0 c 1,29,-1
 1573 0 l 1,30,-1
 1573 823 l 1,31,-1
 1159 823 l 1,32,-1
 1159 308 l 2,33,34
 1159 272 1159 272 1176.5 248.5 c 128,-1,35
 1194 225 1194 225 1227 225 c 0,36,37
 1244 225 1244 225 1255.5 228.5 c 128,-1,38
 1267 232 1267 232 1275.5 236.5 c 128,-1,39
 1284 241 1284 241 1291.5 244.5 c 128,-1,40
 1299 248 1299 248 1309 248 c 0,41,42
 1323 248 1323 248 1331.5 241.5 c 128,-1,43
 1340 235 1340 235 1349 221 c 2,44,-1
 1443 74 l 1,45,46
 1383 29 1383 29 1308 6.5 c 128,-1,47
 1233 -16 1233 -16 1153 -16 c 0,48,49
 1079 -16 1079 -16 1022.5 5.5 c 128,-1,50
 966 27 966 27 927.5 66.5 c 128,-1,51
 889 106 889 106 869 162 c 128,-1,52
 849 218 849 218 849 287 c 2,53,-1
 849 823 l 1,54,-1
 484 823 l 1,55,-1
 484 308 l 2,56,57
 484 272 484 272 501.5 248.5 c 128,-1,58
 519 225 519 225 552 225 c 0,59,60
 569 225 569 225 580.5 228.5 c 128,-1,61
 592 232 592 232 600.5 236.5 c 128,-1,62
 609 241 609 241 616.5 244.5 c 128,-1,63
 624 248 624 248 634 248 c 0,64,65
 648 248 648 248 656.5 241.5 c 128,-1,66
 665 235 665 235 674 221 c 2,67,-1
 768 74 l 1,68,69
 708 29 708 29 633 6.5 c 128,-1,70
 558 -16 558 -16 478 -16 c 0,71,72
 404 -16 404 -16 347.5 5.5 c 128,-1,73
 291 27 291 27 252.5 66.5 c 128,-1,74
 214 106 214 106 194 162 c 128,-1,75
 174 218 174 218 174 287 c 2,76,-1
 174 823 l 1,77,-1
 86 823 l 2,78,79
 62 823 62 823 45 838.5 c 128,-1,80
 28 854 28 854 28 884 c 2,81,-1
 28 1005 l 1,82,-1
 193 1038 l 1,83,-1
 254 1290 l 2,84,85
 266 1338 266 1338 322 1338 c 2,86,-1
 484 1338 l 1,87,-1
 484 1035 l 1,88,-1
 867 1035 l 1,89,-1
 929 1290 l 2,90,91
 941 1338 941 1338 997 1338 c 2,92,-1
 1159 1338 l 1,93,-1
 1159 1035 l 1,94,-1
 1883 1035 l 1,95,-1
 1883 0 l 1,96,-1
 1858 0 l 1,97,98
 1819 -21 1819 -21 1791.5 -52.5 c 128,-1,99
 1764 -84 1764 -84 1764 -122 c 0,100,101
 1764 -146 1764 -146 1777.5 -160.5 c 128,-1,102
 1791 -175 1791 -175 1818 -175 c 0,103,104
 1833 -175 1833 -175 1842 -174 c 128,-1,105
 1851 -173 1851 -173 1857 -171.5 c 128,-1,106
 1863 -170 1863 -170 1867 -168.5 c 128,-1,107
 1871 -167 1871 -167 1876 -167 c 0,108,109
 1897 -167 1897 -167 1904 -186 c 2,110,-1
 1950 -297 l 1,20,21
EndSplineSet
Ligature2: "'liga' Standard Ligatures in Latin lookup 31 subtable" t t iogonek
EndChar

StartChar: _133
Encoding: 65577 -1 93
Width: 1994
Flags: W
AnchorPoint: "+BBEENQQ3BEsEPARPBD0EPQQ+BDUA--3" 1730 1120 basechar 0
AnchorPoint: "+BBEENQQ3BEsEPARPBD0EPQQ+BDUA--1" 1732 -70 basechar 0
LayerCount: 2
Fore
SplineSet
1881 0 m 1,0,-1
 1571 0 l 1,1,-1
 1571 823 l 1,2,-1
 1157 823 l 1,3,-1
 1157 308 l 2,4,5
 1157 272 1157 272 1174.5 248.5 c 128,-1,6
 1192 225 1192 225 1225 225 c 0,7,8
 1242 225 1242 225 1253.5 228.5 c 128,-1,9
 1265 232 1265 232 1273.5 236.5 c 128,-1,10
 1282 241 1282 241 1289.5 244.5 c 128,-1,11
 1297 248 1297 248 1307 248 c 0,12,13
 1321 248 1321 248 1329.5 241.5 c 128,-1,14
 1338 235 1338 235 1347 221 c 2,15,-1
 1441 74 l 1,16,17
 1381 29 1381 29 1306 6.5 c 128,-1,18
 1231 -16 1231 -16 1151 -16 c 0,19,20
 1077 -16 1077 -16 1020.5 5.5 c 128,-1,21
 964 27 964 27 925.5 66.5 c 128,-1,22
 887 106 887 106 867 162 c 128,-1,23
 847 218 847 218 847 287 c 2,24,-1
 847 823 l 1,25,-1
 482 823 l 1,26,-1
 482 308 l 2,27,28
 482 272 482 272 499.5 248.5 c 128,-1,29
 517 225 517 225 550 225 c 0,30,31
 567 225 567 225 578.5 228.5 c 128,-1,32
 590 232 590 232 598.5 236.5 c 128,-1,33
 607 241 607 241 614.5 244.5 c 128,-1,34
 622 248 622 248 632 248 c 0,35,36
 646 248 646 248 654.5 241.5 c 128,-1,37
 663 235 663 235 672 221 c 2,38,-1
 766 74 l 1,39,40
 706 29 706 29 631 6.5 c 128,-1,41
 556 -16 556 -16 476 -16 c 0,42,43
 402 -16 402 -16 345.5 5.5 c 128,-1,44
 289 27 289 27 250.5 66.5 c 128,-1,45
 212 106 212 106 192 162 c 128,-1,46
 172 218 172 218 172 287 c 2,47,-1
 172 823 l 1,48,-1
 84 823 l 2,49,50
 60 823 60 823 43 838.5 c 128,-1,51
 26 854 26 854 26 884 c 2,52,-1
 26 1005 l 1,53,-1
 191 1038 l 1,54,-1
 252 1290 l 2,55,56
 264 1338 264 1338 320 1338 c 2,57,-1
 482 1338 l 1,58,-1
 482 1035 l 1,59,-1
 865 1035 l 1,60,-1
 927 1290 l 2,61,62
 939 1338 939 1338 995 1338 c 2,63,-1
 1157 1338 l 1,64,-1
 1157 1035 l 1,65,-1
 1881 1035 l 1,66,-1
 1881 0 l 1,0,-1
EndSplineSet
Ligature2: "'liga' Standard Ligatures in Latin lookup 31 subtable" t t dotlessi
EndChar

StartChar: u
Encoding: 117 117 94
Width: 1140
Flags: W
AnchorPoint: "+BBEENQQ3BEsEPARPBD0EPQQ+BDUA--3" 570 1120 basechar 0
AnchorPoint: "+BBEENQQ3BEsEPARPBD0EPQQ+BDUA--1" 599 -70 basechar 0
LayerCount: 2
Fore
SplineSet
1035 1037 m 1,0,-1
 1035 0 l 1,1,-1
 843 0 l 2,2,3
 785 0 785 0 767 52 c 2,4,-1
 749 112 l 1,5,6
 719 83 719 83 687 59.5 c 128,-1,7
 655 36 655 36 618.5 19.5 c 128,-1,8
 582 3 582 3 539.5 -6.5 c 128,-1,9
 497 -16 497 -16 447 -16 c 0,10,11
 362 -16 362 -16 296.5 13.5 c 128,-1,12
 231 43 231 43 186 96 c 128,-1,13
 141 149 141 149 118 221 c 128,-1,14
 95 293 95 293 95 379 c 2,15,-1
 95 1037 l 1,16,-1
 405 1037 l 1,17,-1
 405 379 l 2,18,19
 405 302 405 302 440 260 c 128,-1,20
 475 218 475 218 543 218 c 0,21,22
 594 218 594 218 638.5 239.5 c 128,-1,23
 683 261 683 261 725 298 c 1,24,-1
 725 1037 l 1,25,-1
 1035 1037 l 1,0,-1
EndSplineSet
Substitution2: "'ordn' Ordinals in Latin lookup 29 subtable" _164
Substitution2: "'sups' +BBIENQRABEUEPQQ4BDkA +BDgEPQQ0BDUEOgRB lookup 25 subtable" _164
EndChar

StartChar: v
Encoding: 118 118 95
Width: 1078
Flags: W
AnchorPoint: "+BBEENQQ3BEsEPARPBD0EPQQ+BDUA--3" 539 1120 basechar 0
AnchorPoint: "+BBEENQQ3BEsEPARPBD0EPQQ+BDUA--1" 539 -70 basechar 0
LayerCount: 2
Fore
SplineSet
1082 1037 m 1,0,-1
 680 0 l 1,1,-1
 398 0 l 1,2,-1
 -4 1037 l 1,3,-1
 254 1037 l 2,4,5
 287 1037 287 1037 309.5 1021.5 c 128,-1,6
 332 1006 332 1006 340 983 c 2,7,-1
 484 518 l 2,8,9
 503 461 503 461 517.5 407 c 128,-1,10
 532 353 532 353 543 299 c 1,11,12
 565 407 565 407 604 518 c 2,13,-1
 754 983 l 2,14,15
 762 1006 762 1006 784 1021.5 c 128,-1,16
 806 1037 806 1037 836 1037 c 2,17,-1
 1082 1037 l 1,0,-1
EndSplineSet
Substitution2: "'ordn' Ordinals in Latin lookup 29 subtable" _165
Substitution2: "'sups' +BBIENQRABEUEPQQ4BDkA +BDgEPQQ0BDUEOgRB lookup 25 subtable" _165
EndChar

StartChar: w
Encoding: 119 119 96
Width: 1636
Flags: W
AnchorPoint: "+BBEENQQ3BEsEPARPBD0EPQQ+BDUA--3" 819 1120 basechar 0
AnchorPoint: "+BBEENQQ3BEsEPARPBD0EPQQ+BDUA--1" 818 -70 basechar 0
LayerCount: 2
Fore
SplineSet
1631 1037 m 1,0,-1
 1309 0 l 1,1,-1
 1057 0 l 2,2,3
 1037 0 1037 0 1023 12 c 128,-1,4
 1009 24 1009 24 1001 52 c 2,5,-1
 853 569 l 2,6,7
 842 604 842 604 833.5 638 c 128,-1,8
 825 672 825 672 818 707 c 1,9,10
 811 672 811 672 802.5 637 c 128,-1,11
 794 602 794 602 783 567 c 2,12,-1
 633 52 l 2,13,14
 618 0 618 0 567 0 c 2,15,-1
 327 0 l 1,16,-1
 5 1037 l 1,17,-1
 253 1037 l 2,18,19
 286 1037 286 1037 308.5 1021.5 c 128,-1,20
 331 1006 331 1006 339 983 c 2,21,-1
 443 518 l 2,22,23
 456 465 456 465 466 415.5 c 128,-1,24
 476 366 476 366 484 316 c 1,25,26
 497 366 497 366 511.5 415.5 c 128,-1,27
 526 465 526 465 543 518 c 2,28,-1
 673 984 l 2,29,30
 681 1007 681 1007 703 1022.5 c 128,-1,31
 725 1038 725 1038 755 1038 c 2,32,-1
 893 1038 l 2,33,34
 926 1038 926 1038 948.5 1022.5 c 128,-1,35
 971 1007 971 1007 979 984 c 2,36,-1
 1103 518 l 2,37,38
 1118 465 1118 465 1132.5 415 c 128,-1,39
 1147 365 1147 365 1159 314 c 1,40,41
 1167 364 1167 364 1178 414 c 128,-1,42
 1189 464 1189 464 1203 518 c 2,43,-1
 1313 983 l 2,44,45
 1321 1006 1321 1006 1343 1021.5 c 128,-1,46
 1365 1037 1365 1037 1395 1037 c 2,47,-1
 1631 1037 l 1,0,-1
EndSplineSet
Substitution2: "'ordn' Ordinals in Latin lookup 29 subtable" _166
Substitution2: "'sups' +BBIENQRABEUEPQQ4BDkA +BDgEPQQ0BDUEOgRB lookup 25 subtable" _166
EndChar

StartChar: x
Encoding: 120 120 97
Width: 1088
Flags: W
AnchorPoint: "+BBEENQQ3BEsEPARPBD0EPQQ+BDUA--3" 542 1120 basechar 0
AnchorPoint: "+BBEENQQ3BEsEPARPBD0EPQQ+BDUA--1" 545 -70 basechar 0
LayerCount: 2
Fore
SplineSet
1097 0 m 1,0,-1
 799 0 l 2,1,2
 766 0 766 0 745.5 16 c 128,-1,3
 725 32 725 32 713 54 c 2,4,-1
 528 372 l 1,5,6
 523 355 523 355 516 340 c 128,-1,7
 509 325 509 325 501 312 c 2,8,-1
 349 54 l 2,9,10
 335 34 335 34 316 17 c 128,-1,11
 297 0 297 0 267 0 c 2,12,-1
 -9 0 l 1,13,-1
 339 536 l 1,14,-1
 5 1037 l 1,15,-1
 303 1037 l 2,16,17
 336 1037 336 1037 351.5 1028.5 c 128,-1,18
 367 1020 367 1020 379 1000 c 2,19,-1
 564 693 l 1,20,21
 570 711 570 711 579 728.5 c 128,-1,22
 588 746 588 746 599 764 c 2,23,-1
 731 995 l 2,24,25
 745 1017 745 1017 760.5 1027 c 128,-1,26
 776 1037 776 1037 799 1037 c 2,27,-1
 1083 1037 l 1,28,-1
 749 550 l 1,29,-1
 1097 0 l 1,0,-1
EndSplineSet
Substitution2: "'ordn' Ordinals in Latin lookup 29 subtable" _167
Substitution2: "'sups' +BBIENQRABEUEPQQ4BDkA +BDgEPQQ0BDUEOgRB lookup 25 subtable" _167
EndChar

StartChar: y
Encoding: 121 121 98
Width: 1076
Flags: W
AnchorPoint: "+BBEENQQ3BEsEPARPBD0EPQQ+BDUA--3" 562 1120 basechar 0
AnchorPoint: "+BBEENQQ3BEsEPARPBD0EPQQ+BDUA--1" 858 -70 basechar 0
LayerCount: 2
Fore
SplineSet
1090 1037 m 1,0,-1
 536 -269 l 2,1,2
 522 -300 522 -300 502 -314.5 c 128,-1,3
 482 -329 482 -329 438 -329 c 2,4,-1
 206 -329 l 1,5,-1
 406 91 l 1,6,-1
 -8 1037 l 1,7,-1
 266 1037 l 2,8,9
 302 1037 302 1037 321.5 1021 c 128,-1,10
 341 1005 341 1005 350 983 c 2,11,-1
 520 536 l 2,12,13
 544 475 544 475 559 411 c 1,14,15
 570 443 570 443 581 475 c 128,-1,16
 592 507 592 507 604 538 c 2,17,-1
 758 983 l 2,18,19
 767 1006 767 1006 790 1021.5 c 128,-1,20
 813 1037 813 1037 840 1037 c 2,21,-1
 1090 1037 l 1,0,-1
EndSplineSet
Substitution2: "'ordn' Ordinals in Latin lookup 29 subtable" _168
Substitution2: "'sups' +BBIENQRABEUEPQQ4BDkA +BDgEPQQ0BDUEOgRB lookup 25 subtable" _168
EndChar

StartChar: z
Encoding: 122 122 99
Width: 932
Flags: W
AnchorPoint: "+BBEENQQ3BEsEPARPBD0EPQQ+BDUA--3" 490 1120 basechar 0
AnchorPoint: "+BBEENQQ3BEsEPARPBD0EPQQ+BDUA--1" 462 -70 basechar 0
LayerCount: 2
Fore
SplineSet
876 913 m 2,0,1
 876 881 876 881 865 851 c 128,-1,2
 854 821 854 821 836 802 c 2,3,-1
 403 230 l 1,4,-1
 866 230 l 1,5,-1
 866 0 l 1,6,-1
 46 0 l 1,7,-1
 46 126 l 2,8,9
 46 145 46 145 56 174 c 128,-1,10
 66 203 66 203 86 228 c 2,11,-1
 523 807 l 1,12,-1
 74 807 l 1,13,-1
 74 1037 l 1,14,-1
 876 1037 l 1,15,-1
 876 913 l 2,0,1
EndSplineSet
Substitution2: "'ordn' Ordinals in Latin lookup 29 subtable" _169
Substitution2: "'sups' +BBIENQRABEUEPQQ4BDkA +BDgEPQQ0BDUEOgRB lookup 25 subtable" _169
EndChar

StartChar: ordfeminine
Encoding: 170 170 100
Width: 734
Flags: W
AnchorPoint: "+BBEENQQ3BEsEPARPBD0EPQQ+BDUA--3" 358 1525 basechar 0
AnchorPoint: "+BBEENQQ3BEsEPARPBD0EPQQ+BDUA--1" 367 -70 basechar 0
AnchorPoint: "+BBEENQQ3BEsEPARPBD0EPQQ+BDUA--0" 358 1525 basechar 0
LayerCount: 2
Fore
SplineSet
423 1084 m 1,0,1
 376 1082 376 1082 347 1076 c 128,-1,2
 318 1070 318 1070 302 1061.5 c 128,-1,3
 286 1053 286 1053 280.5 1042.5 c 128,-1,4
 275 1032 275 1032 275 1020 c 0,5,6
 275 997 275 997 287 988.5 c 128,-1,7
 299 980 299 980 329 980 c 0,8,9
 356 980 356 980 377.5 988.5 c 128,-1,10
 399 997 399 997 423 1020 c 1,11,-1
 423 1084 l 1,0,1
93 1379 m 1,12,13
 152 1432 152 1432 224 1455.5 c 128,-1,14
 296 1479 296 1479 379 1479 c 0,15,16
 438 1479 438 1479 486 1460 c 128,-1,17
 534 1441 534 1441 568 1407 c 128,-1,18
 602 1373 602 1373 620.5 1327.5 c 128,-1,19
 639 1282 639 1282 639 1229 c 2,20,-1
 639 842 l 1,21,-1
 535 842 l 2,22,23
 505 842 505 842 489.5 850 c 128,-1,24
 474 858 474 858 461 884 c 2,25,-1
 449 911 l 1,26,27
 426 891 426 891 405 877 c 128,-1,28
 384 863 384 863 362 853 c 128,-1,29
 340 843 340 843 314.5 838.5 c 128,-1,30
 289 834 289 834 257 834 c 0,31,32
 166 834 166 834 114.5 880 c 128,-1,33
 63 926 63 926 63 1010 c 0,34,35
 63 1042 63 1042 78.5 1076.5 c 128,-1,36
 94 1111 94 1111 134.5 1140.5 c 128,-1,37
 175 1170 175 1170 244.5 1190 c 128,-1,38
 314 1210 314 1210 423 1213 c 1,39,-1
 423 1229 l 2,40,41
 423 1275 423 1275 403.5 1291.5 c 128,-1,42
 384 1308 384 1308 351 1308 c 0,43,44
 321 1308 321 1308 302 1302 c 128,-1,45
 283 1296 283 1296 267.5 1289 c 128,-1,46
 252 1282 252 1282 236 1276 c 128,-1,47
 220 1270 220 1270 195 1270 c 0,48,49
 172 1270 172 1270 157 1283 c 128,-1,50
 142 1296 142 1296 131 1310 c 2,51,-1
 93 1379 l 1,12,13
EndSplineSet
Substitution2: "'case' +BCAENQQzBDgEQQRCBEAEPgQ3BDAEMgQ4BEEEOAQ8BEsENQAA +BEQEPgRABDwESwAA lookup 2 subtable" _143
EndChar

StartChar: ordmasculine
Encoding: 186 186 101
Width: 798
Flags: W
AnchorPoint: "+BBEENQQ3BEsEPARPBD0EPQQ+BDUA--3" 399 1525 basechar 0
AnchorPoint: "+BBEENQQ3BEsEPARPBD0EPQQ+BDUA--1" 399 -70 basechar 0
AnchorPoint: "+BBEENQQ3BEsEPARPBD0EPQQ+BDUA--0" 399 1525 basechar 0
LayerCount: 2
Fore
SplineSet
401 1477 m 0,0,1
 476 1477 476 1477 539 1455 c 128,-1,2
 602 1433 602 1433 647 1391.5 c 128,-1,3
 692 1350 692 1350 717.5 1290.5 c 128,-1,4
 743 1231 743 1231 743 1156 c 0,5,6
 743 1080 743 1080 717.5 1019.5 c 128,-1,7
 692 959 692 959 647 917 c 128,-1,8
 602 875 602 875 539 852.5 c 128,-1,9
 476 830 476 830 401 830 c 0,10,11
 325 830 325 830 261.5 852.5 c 128,-1,12
 198 875 198 875 152 917 c 128,-1,13
 106 959 106 959 80.5 1019.5 c 128,-1,14
 55 1080 55 1080 55 1156 c 0,15,16
 55 1231 55 1231 80.5 1290.5 c 128,-1,17
 106 1350 106 1350 152 1391.5 c 128,-1,18
 198 1433 198 1433 261.5 1455 c 128,-1,19
 325 1477 325 1477 401 1477 c 0,0,1
401 1004 m 0,20,21
 452 1004 452 1004 476.5 1038.5 c 128,-1,22
 501 1073 501 1073 501 1154 c 256,23,24
 501 1235 501 1235 476.5 1269 c 128,-1,25
 452 1303 452 1303 401 1303 c 0,26,27
 345 1303 345 1303 321 1269 c 128,-1,28
 297 1235 297 1235 297 1154 c 256,29,30
 297 1073 297 1073 321 1038.5 c 128,-1,31
 345 1004 345 1004 401 1004 c 0,20,21
EndSplineSet
EndChar

StartChar: _143
Encoding: 65578 -1 102
Width: 814
Flags: W
AnchorPoint: "+BBEENQQ3BEsEPARPBD0EPQQ+BDUA--3" 202 1120 basechar 0
LayerCount: 2
Fore
SplineSet
449 1083 m 1,0,-1
 422 1177 l 2,1,2
 413 1198 413 1198 407 1228 c 1,3,4
 403 1213 403 1213 399.5 1200 c 128,-1,5
 396 1187 396 1187 391 1176 c 2,6,-1
 365 1083 l 1,7,-1
 449 1083 l 1,0,-1
738 842 m 1,8,-1
 568 842 l 2,9,10
 544 842 544 842 528.5 853.5 c 128,-1,11
 513 865 513 865 505 883 c 2,12,-1
 491 933 l 1,13,-1
 322 933 l 1,14,-1
 308 883 l 2,15,16
 303 867 303 867 286.5 854.5 c 128,-1,17
 270 842 270 842 247 842 c 2,18,-1
 75 842 l 1,19,-1
 308 1457 l 1,20,-1
 506 1457 l 1,21,-1
 738 842 l 1,8,-1
EndSplineSet
EndChar

StartChar: _144
Encoding: 65579 -1 103
Width: 590
Flags: W
LayerCount: 2
Fore
SplineSet
326 1118 m 1,0,1
 293 1116 293 1116 274.5 1111.5 c 128,-1,2
 256 1107 256 1107 246.5 1101.5 c 128,-1,3
 237 1096 237 1096 234.5 1089 c 128,-1,4
 232 1082 232 1082 232 1076 c 0,5,6
 232 1062 232 1062 238 1057 c 128,-1,7
 244 1052 244 1052 266 1052 c 0,8,9
 283 1052 283 1052 296.5 1057 c 128,-1,10
 310 1062 310 1062 326 1076 c 1,11,-1
 326 1118 l 1,0,1
50 1383 m 1,12,13
 102 1426 102 1426 168 1447 c 128,-1,14
 234 1468 234 1468 306 1468 c 0,15,16
 358 1468 358 1468 400 1451 c 128,-1,17
 442 1434 442 1434 472 1404.5 c 128,-1,18
 502 1375 502 1375 518.5 1334.5 c 128,-1,19
 535 1294 535 1294 535 1248 c 2,20,-1
 535 919 l 1,21,-1
 435 919 l 2,22,23
 406 919 406 919 390.5 926.5 c 128,-1,24
 375 934 375 934 364 960 c 2,25,-1
 356 974 l 1,26,27
 336 958 336 958 318.5 946.5 c 128,-1,28
 301 935 301 935 282.5 927 c 128,-1,29
 264 919 264 919 243.5 915 c 128,-1,30
 223 911 223 911 197 911 c 0,31,32
 113 911 113 911 70 951.5 c 128,-1,33
 27 992 27 992 27 1065 c 0,34,35
 27 1091 27 1091 39 1121.5 c 128,-1,36
 51 1152 51 1152 84 1178 c 128,-1,37
 117 1204 117 1204 175 1222.5 c 128,-1,38
 233 1241 233 1241 326 1243 c 1,39,-1
 326 1248 l 2,40,41
 326 1281 326 1281 313 1292 c 128,-1,42
 300 1303 300 1303 278 1303 c 0,43,44
 255 1303 255 1303 241 1299 c 128,-1,45
 227 1295 227 1295 215 1290.5 c 128,-1,46
 203 1286 203 1286 189 1282 c 128,-1,47
 175 1278 175 1278 151 1278 c 0,48,49
 129 1278 129 1278 113.5 1289 c 128,-1,50
 98 1300 98 1300 89 1315 c 2,51,-1
 50 1383 l 1,12,13
EndSplineSet
EndChar

StartChar: _145
Encoding: 65580 -1 104
Width: 642
Flags: W
LayerCount: 2
Fore
SplineSet
277 1082 m 1,0,1
 289 1074 289 1074 302 1071.5 c 128,-1,2
 315 1069 315 1069 326 1069 c 0,3,4
 335 1069 335 1069 345.5 1073.5 c 128,-1,5
 356 1078 356 1078 364.5 1091 c 128,-1,6
 373 1104 373 1104 378.5 1128 c 128,-1,7
 384 1152 384 1152 384 1192 c 0,8,9
 384 1226 384 1226 380.5 1247.5 c 128,-1,10
 377 1269 377 1269 370.5 1281.5 c 128,-1,11
 364 1294 364 1294 355 1298.5 c 128,-1,12
 346 1303 346 1303 336 1303 c 0,13,14
 317 1303 317 1303 304.5 1297 c 128,-1,15
 292 1291 292 1291 277 1277 c 1,16,-1
 277 1082 l 1,0,1
277 1416 m 1,17,18
 304 1439 304 1439 337.5 1452 c 128,-1,19
 371 1465 371 1465 419 1465 c 0,20,21
 457 1465 457 1465 491.5 1446 c 128,-1,22
 526 1427 526 1427 551.5 1392 c 128,-1,23
 577 1357 577 1357 592 1306 c 128,-1,24
 607 1255 607 1255 607 1192 c 0,25,26
 607 1131 607 1131 589.5 1079.5 c 128,-1,27
 572 1028 572 1028 541.5 990.5 c 128,-1,28
 511 953 511 953 469 932 c 128,-1,29
 427 911 427 911 379 911 c 0,30,31
 356 911 356 911 339 915.5 c 128,-1,32
 322 920 322 920 308 928.5 c 128,-1,33
 294 937 294 937 282 947.5 c 128,-1,34
 270 958 270 958 258 970 c 1,35,-1
 256 957 l 2,36,37
 251 934 251 934 238.5 926.5 c 128,-1,38
 226 919 226 919 206 919 c 2,39,-1
 62 919 l 1,40,-1
 62 1690 l 1,41,-1
 277 1690 l 1,42,-1
 277 1416 l 1,17,18
EndSplineSet
EndChar

StartChar: _146
Encoding: 65581 -1 105
Width: 551
Flags: W
LayerCount: 2
Fore
SplineSet
470 1300 m 2,0,1
 460 1289 460 1289 451.5 1282 c 128,-1,2
 443 1275 443 1275 426 1275 c 0,3,4
 411 1275 411 1275 401 1280 c 128,-1,5
 391 1285 391 1285 381.5 1291 c 128,-1,6
 372 1297 372 1297 359.5 1302 c 128,-1,7
 347 1307 347 1307 328 1307 c 0,8,9
 285 1307 285 1307 269 1276.5 c 128,-1,10
 253 1246 253 1246 253 1189 c 0,11,12
 253 1131 253 1131 272.5 1100 c 128,-1,13
 292 1069 292 1069 328 1069 c 0,14,15
 350 1069 350 1069 362 1075 c 128,-1,16
 374 1081 374 1081 382.5 1088 c 128,-1,17
 391 1095 391 1095 400.5 1101 c 128,-1,18
 410 1107 410 1107 428 1107 c 0,19,20
 454 1107 454 1107 466 1088 c 2,21,-1
 529 1011 l 1,22,23
 498 976 498 976 466 956.5 c 128,-1,24
 434 937 434 937 403 926.5 c 128,-1,25
 372 916 372 916 342.5 913.5 c 128,-1,26
 313 911 313 911 287 911 c 0,27,28
 238 911 238 911 192.5 929.5 c 128,-1,29
 147 948 147 948 111.5 983.5 c 128,-1,30
 76 1019 76 1019 54.5 1071 c 128,-1,31
 33 1123 33 1123 33 1189 c 0,32,33
 33 1246 33 1246 50.5 1296 c 128,-1,34
 68 1346 68 1346 103.5 1383.5 c 128,-1,35
 139 1421 139 1421 191.5 1443 c 128,-1,36
 244 1465 244 1465 313 1465 c 256,37,38
 382 1465 382 1465 433.5 1443.5 c 128,-1,39
 485 1422 485 1422 527 1377 c 1,40,-1
 470 1300 l 2,0,1
EndSplineSet
EndChar

StartChar: _147
Encoding: 65582 -1 106
Width: 642
Flags: W
LayerCount: 2
Fore
SplineSet
365 1297 m 1,0,1
 353 1305 353 1305 340 1307.5 c 128,-1,2
 327 1310 327 1310 316 1310 c 0,3,4
 306 1310 306 1310 295.5 1305.5 c 128,-1,5
 285 1301 285 1301 276.5 1288 c 128,-1,6
 268 1275 268 1275 262.5 1250 c 128,-1,7
 257 1225 257 1225 257 1185 c 0,8,9
 257 1152 257 1152 261 1130.5 c 128,-1,10
 265 1109 265 1109 272 1097 c 128,-1,11
 279 1085 279 1085 289 1080.5 c 128,-1,12
 299 1076 299 1076 312 1076 c 0,13,14
 330 1076 330 1076 342 1081.5 c 128,-1,15
 354 1087 354 1087 365 1098 c 1,16,-1
 365 1297 l 1,0,1
580 1690 m 1,17,-1
 580 919 l 1,18,-1
 445 919 l 2,19,20
 406 919 406 919 394 953 c 2,21,-1
 385 981 l 1,22,23
 355 951 355 951 317.5 931 c 128,-1,24
 280 911 280 911 223 911 c 0,25,26
 185 911 185 911 151 930 c 128,-1,27
 117 949 117 949 91.5 985 c 128,-1,28
 66 1021 66 1021 51 1071.5 c 128,-1,29
 36 1122 36 1122 36 1185 c 0,30,31
 36 1246 36 1246 53 1298 c 128,-1,32
 70 1350 70 1350 100.5 1388 c 128,-1,33
 131 1426 131 1426 173 1447 c 128,-1,34
 215 1468 215 1468 264 1468 c 0,35,36
 299 1468 299 1468 322.5 1459.5 c 128,-1,37
 346 1451 346 1451 365 1437 c 1,38,-1
 365 1690 l 1,39,-1
 580 1690 l 1,17,-1
EndSplineSet
EndChar

StartChar: _148
Encoding: 65583 -1 107
Width: 603
Flags: W
LayerCount: 2
Fore
SplineSet
372 1258 m 1,0,1
 372 1265 372 1265 370.5 1275 c 128,-1,2
 369 1285 369 1285 363.5 1294.5 c 128,-1,3
 358 1304 358 1304 346 1310.5 c 128,-1,4
 334 1317 334 1317 313 1317 c 0,5,6
 261 1317 261 1317 249 1258 c 1,7,-1
 372 1258 l 1,0,1
566 1011 m 1,8,9
 535 976 535 976 502.5 956.5 c 128,-1,10
 470 937 470 937 437.5 926.5 c 128,-1,11
 405 916 405 916 374.5 913.5 c 128,-1,12
 344 911 344 911 318 911 c 0,13,14
 261 911 261 911 209.5 929 c 128,-1,15
 158 947 158 947 119 983 c 128,-1,16
 80 1019 80 1019 56.5 1073.5 c 128,-1,17
 33 1128 33 1128 33 1200 c 0,18,19
 33 1252 33 1252 52 1300 c 128,-1,20
 71 1348 71 1348 107 1384.5 c 128,-1,21
 143 1421 143 1421 194 1443 c 128,-1,22
 245 1465 245 1465 309 1465 c 0,23,24
 366 1465 366 1465 413 1448 c 128,-1,25
 460 1431 460 1431 493.5 1398.5 c 128,-1,26
 527 1366 527 1366 545.5 1319.5 c 128,-1,27
 564 1273 564 1273 564 1213 c 0,28,29
 564 1165 564 1165 555 1149.5 c 128,-1,30
 546 1134 546 1134 517 1134 c 2,31,-1
 252 1134 l 1,32,33
 262 1099 262 1099 284 1085.5 c 128,-1,34
 306 1072 306 1072 338 1072 c 0,35,36
 360 1072 360 1072 375.5 1077.5 c 128,-1,37
 391 1083 391 1083 404.5 1089.5 c 128,-1,38
 418 1096 418 1096 432 1101.5 c 128,-1,39
 446 1107 446 1107 465 1107 c 0,40,41
 491 1107 491 1107 503 1088 c 2,42,-1
 566 1011 l 1,8,9
EndSplineSet
EndChar

StartChar: _149
Encoding: 65584 -1 108
Width: 434
Flags: W
LayerCount: 2
Fore
SplineSet
411 1572 m 2,0,1
 410 1552 410 1552 399.5 1541 c 128,-1,2
 389 1530 389 1530 369 1530 c 0,3,4
 338 1530 338 1530 322.5 1518.5 c 128,-1,5
 307 1507 307 1507 307 1468 c 2,6,-1
 307 1464 l 1,7,-1
 409 1464 l 1,8,-1
 409 1317 l 1,9,-1
 314 1317 l 1,10,-1
 314 919 l 1,11,-1
 99 919 l 1,12,-1
 99 1323 l 1,13,-1
 84 1328 l 2,14,15
 61 1333 61 1333 46 1344.5 c 128,-1,16
 31 1356 31 1356 31 1379 c 2,17,-1
 31 1464 l 1,18,-1
 99 1464 l 1,19,-1
 99 1476 l 2,20,21
 99 1522 99 1522 115 1560.5 c 128,-1,22
 131 1599 131 1599 162 1627 c 128,-1,23
 193 1655 193 1655 238 1671 c 128,-1,24
 283 1687 283 1687 340 1687 c 0,25,26
 361 1687 361 1687 378 1685 c 128,-1,27
 395 1683 395 1683 415 1679 c 1,28,-1
 411 1572 l 2,0,1
EndSplineSet
EndChar

StartChar: _150
Encoding: 65585 -1 109
Width: 604
Flags: W
LayerCount: 2
Fore
SplineSet
276 1246 m 0,0,1
 301 1246 301 1246 309 1256 c 128,-1,2
 317 1266 317 1266 317 1283 c 0,3,4
 317 1302 317 1302 309.5 1312 c 128,-1,5
 302 1322 302 1322 276 1322 c 256,6,7
 250 1322 250 1322 242 1312 c 128,-1,8
 234 1302 234 1302 234 1283 c 0,9,10
 234 1267 234 1267 242 1256.5 c 128,-1,11
 250 1246 250 1246 276 1246 c 0,0,1
362 912 m 0,12,13
 362 922 362 922 350 926 c 128,-1,14
 338 930 338 930 318.5 931 c 128,-1,15
 299 932 299 932 274 931.5 c 128,-1,16
 249 931 249 931 222 933 c 1,17,18
 213 924 213 924 213 914 c 0,19,20
 213 908 213 908 214 901.5 c 128,-1,21
 215 895 215 895 222 890.5 c 128,-1,22
 229 886 229 886 243.5 883 c 128,-1,23
 258 880 258 880 284 880 c 256,24,25
 310 880 310 880 325.5 883 c 128,-1,26
 341 886 341 886 349 891 c 128,-1,27
 357 896 357 896 359.5 901.5 c 128,-1,28
 362 907 362 907 362 912 c 0,12,13
571 1444 m 1,29,-1
 571 1364 l 2,30,31
 571 1347 571 1347 561.5 1337 c 128,-1,32
 552 1327 552 1327 529 1322 c 2,33,-1
 504 1314 l 1,34,35
 505 1309 505 1309 505.5 1303 c 128,-1,36
 506 1297 506 1297 506 1291 c 0,37,38
 506 1250 506 1250 488 1217.5 c 128,-1,39
 470 1185 470 1185 438.5 1162 c 128,-1,40
 407 1139 407 1139 365 1127 c 128,-1,41
 323 1115 323 1115 276 1115 c 0,42,43
 268 1115 268 1115 261 1115 c 128,-1,44
 254 1115 254 1115 246 1116 c 0,45,46
 244 1114 244 1114 244 1110 c 0,47,48
 244 1098 244 1098 267.5 1096.5 c 128,-1,49
 291 1095 291 1095 326 1094.5 c 128,-1,50
 361 1094 361 1094 402 1091 c 128,-1,51
 443 1088 443 1088 478 1073.5 c 128,-1,52
 513 1059 513 1059 536.5 1029 c 128,-1,53
 560 999 560 999 560 945 c 0,54,55
 560 907 560 907 542 871 c 128,-1,56
 524 835 524 835 488.5 806.5 c 128,-1,57
 453 778 453 778 400.5 760.5 c 128,-1,58
 348 743 348 743 280 743 c 0,59,60
 214 743 214 743 166.5 755 c 128,-1,61
 119 767 119 767 88 786.5 c 128,-1,62
 57 806 57 806 42.5 831 c 128,-1,63
 28 856 28 856 28 882 c 0,64,65
 28 914 28 914 45 935 c 128,-1,66
 62 956 62 956 93 968 c 1,67,68
 78 982 78 982 69 1001 c 128,-1,69
 60 1020 60 1020 60 1048 c 0,70,71
 60 1074 60 1074 77 1101.5 c 128,-1,72
 94 1129 94 1129 134 1147 c 1,73,74
 90 1170 90 1170 64.5 1206 c 128,-1,75
 39 1242 39 1242 39 1291 c 0,76,77
 39 1333 39 1333 57.5 1365.5 c 128,-1,78
 76 1398 76 1398 108.5 1420.5 c 128,-1,79
 141 1443 141 1443 184 1455 c 128,-1,80
 227 1467 227 1467 276 1467 c 0,81,82
 342 1467 342 1467 397 1444 c 1,83,-1
 571 1444 l 1,29,-1
EndSplineSet
EndChar

StartChar: _151
Encoding: 65586 -1 110
Width: 639
Flags: W
LayerCount: 2
Fore
SplineSet
278 1428 m 1,0,1
 301 1445 301 1445 329.5 1455 c 128,-1,2
 358 1465 358 1465 398 1465 c 0,3,4
 441 1465 441 1465 475.5 1449 c 128,-1,5
 510 1433 510 1433 533.5 1405 c 128,-1,6
 557 1377 557 1377 569.5 1339.5 c 128,-1,7
 582 1302 582 1302 582 1259 c 2,8,-1
 582 919 l 1,9,-1
 367 919 l 1,10,-1
 367 1259 l 2,11,12
 367 1303 367 1303 330 1303 c 0,13,14
 316 1303 316 1303 303 1298.5 c 128,-1,15
 290 1294 290 1294 278 1286 c 1,16,-1
 278 919 l 1,17,-1
 63 919 l 1,18,-1
 63 1690 l 1,19,-1
 278 1690 l 1,20,-1
 278 1428 l 1,0,1
EndSplineSet
EndChar

StartChar: _152
Encoding: 65587 -1 111
Width: 334
Flags: W
LayerCount: 2
Fore
SplineSet
274 1419 m 1,0,-1
 274 919 l 1,1,-1
 60 919 l 1,2,-1
 60 1419 l 1,3,-1
 274 1419 l 1,0,-1
292 1585 m 256,4,5
 292 1561 292 1561 282 1539.5 c 128,-1,6
 272 1518 272 1518 255.5 1502.5 c 128,-1,7
 239 1487 239 1487 216 1477.5 c 128,-1,8
 193 1468 193 1468 168 1468 c 0,9,10
 144 1468 144 1468 122 1477.5 c 128,-1,11
 100 1487 100 1487 84 1502.5 c 128,-1,12
 68 1518 68 1518 58.5 1539.5 c 128,-1,13
 49 1561 49 1561 49 1585 c 256,14,15
 49 1609 49 1609 58.5 1630.5 c 128,-1,16
 68 1652 68 1652 84 1668 c 128,-1,17
 100 1684 100 1684 122 1693.5 c 128,-1,18
 144 1703 144 1703 168 1703 c 0,19,20
 193 1703 193 1703 216 1693.5 c 128,-1,21
 239 1684 239 1684 255.5 1668 c 128,-1,22
 272 1652 272 1652 282 1630.5 c 128,-1,23
 292 1609 292 1609 292 1585 c 256,4,5
EndSplineSet
EndChar

StartChar: _153
Encoding: 65588 -1 112
Width: 335
Flags: W
LayerCount: 2
Fore
SplineSet
275 1419 m 1,0,-1
 275 953 l 2,1,2
 275 910 275 910 264.5 872 c 128,-1,3
 254 834 254 834 229 805 c 128,-1,4
 204 776 204 776 162 759 c 128,-1,5
 120 742 120 742 56 742 c 0,6,7
 35 742 35 742 15.5 744 c 128,-1,8
 -4 746 -4 746 -25 751 c 1,9,-1
 -18 864 l 2,10,11
 -19 875 -19 875 -13.5 885 c 128,-1,12
 -8 895 -8 895 10 895 c 0,13,14
 27 895 27 895 37 896.5 c 128,-1,15
 47 898 47 898 52 904 c 128,-1,16
 57 910 57 910 58.5 921.5 c 128,-1,17
 60 933 60 933 60 953 c 2,18,-1
 60 1419 l 1,19,-1
 275 1419 l 1,0,-1
291 1585 m 256,20,21
 291 1561 291 1561 281.5 1539.5 c 128,-1,22
 272 1518 272 1518 255 1502.5 c 128,-1,23
 238 1487 238 1487 215.5 1477.5 c 128,-1,24
 193 1468 193 1468 168 1468 c 0,25,26
 144 1468 144 1468 122 1477.5 c 128,-1,27
 100 1487 100 1487 84 1502.5 c 128,-1,28
 68 1518 68 1518 58.5 1539.5 c 128,-1,29
 49 1561 49 1561 49 1585 c 256,30,31
 49 1609 49 1609 58.5 1630.5 c 128,-1,32
 68 1652 68 1652 84 1668 c 128,-1,33
 100 1684 100 1684 122 1693.5 c 128,-1,34
 144 1703 144 1703 168 1703 c 0,35,36
 193 1703 193 1703 215.5 1693.5 c 128,-1,37
 238 1684 238 1684 255 1668 c 128,-1,38
 272 1652 272 1652 281.5 1630.5 c 128,-1,39
 291 1609 291 1609 291 1585 c 256,20,21
EndSplineSet
EndChar

StartChar: _154
Encoding: 65589 -1 113
Width: 677
Flags: W
LayerCount: 2
Fore
SplineSet
651 919 m 1,0,-1
 456 919 l 2,1,2
 433 919 433 919 414 926.5 c 128,-1,3
 395 934 395 934 390 954 c 2,4,-1
 349 1118 l 2,5,6
 345 1133 345 1133 336 1136.5 c 128,-1,7
 327 1140 327 1140 312 1140 c 2,8,-1
 278 1140 l 1,9,-1
 278 919 l 1,10,-1
 63 919 l 1,11,-1
 63 1690 l 1,12,-1
 278 1690 l 1,13,-1
 278 1277 l 1,14,-1
 301 1277 l 2,15,16
 319 1277 319 1277 329 1282 c 128,-1,17
 339 1287 339 1287 344 1301 c 2,18,-1
 389 1424 l 2,19,20
 396 1442 396 1442 413 1449.5 c 128,-1,21
 430 1457 430 1457 453 1457 c 2,22,-1
 650 1457 l 1,23,-1
 560 1283 l 2,24,25
 540 1245 540 1245 500 1224 c 1,26,27
 532 1208 532 1208 548 1169 c 2,28,-1
 651 919 l 1,0,-1
EndSplineSet
EndChar

StartChar: _155
Encoding: 65590 -1 114
Width: 340
Flags: W
LayerCount: 2
Fore
SplineSet
277 1690 m 1,0,-1
 277 919 l 1,1,-1
 63 919 l 1,2,-1
 63 1690 l 1,3,-1
 277 1690 l 1,0,-1
EndSplineSet
EndChar

StartChar: _156
Encoding: 65591 -1 115
Width: 938
Flags: W
LayerCount: 2
Fore
SplineSet
248 1404 m 1,0,1
 261 1416 261 1416 275 1427.5 c 128,-1,2
 289 1439 289 1439 305.5 1447 c 128,-1,3
 322 1455 322 1455 341.5 1460 c 128,-1,4
 361 1465 361 1465 386 1465 c 0,5,6
 431 1465 431 1465 461.5 1443 c 128,-1,7
 492 1421 492 1421 509 1385 c 1,8,9
 538 1429 538 1429 585.5 1447 c 128,-1,10
 633 1465 633 1465 681 1465 c 0,11,12
 781 1465 781 1465 831 1411 c 128,-1,13
 881 1357 881 1357 881 1259 c 2,14,-1
 881 919 l 1,15,-1
 667 919 l 1,16,-1
 667 1259 l 2,17,18
 667 1283 667 1283 657 1293 c 128,-1,19
 647 1303 647 1303 624 1303 c 0,20,21
 604 1303 604 1303 593 1291 c 128,-1,22
 582 1279 582 1279 582 1259 c 2,23,-1
 582 919 l 1,24,-1
 367 919 l 1,25,-1
 367 1259 l 2,26,27
 367 1282 367 1282 357 1292.5 c 128,-1,28
 347 1303 347 1303 321 1303 c 0,29,30
 298 1303 298 1303 278 1289 c 1,31,-1
 278 919 l 1,32,-1
 63 919 l 1,33,-1
 63 1457 l 1,34,-1
 198 1457 l 2,35,36
 235 1457 235 1457 244 1421 c 2,37,-1
 248 1404 l 1,0,1
EndSplineSet
EndChar

StartChar: _158
Encoding: 65592 -1 117
Width: 644
Flags: W
LayerCount: 2
Fore
SplineSet
323 1465 m 256,0,1
 386 1465 386 1465 438.5 1446 c 128,-1,2
 491 1427 491 1427 529.5 1391.5 c 128,-1,3
 568 1356 568 1356 589.5 1304.5 c 128,-1,4
 611 1253 611 1253 611 1189 c 0,5,6
 611 1124 611 1124 589.5 1072.5 c 128,-1,7
 568 1021 568 1021 529.5 985 c 128,-1,8
 491 949 491 949 438.5 930 c 128,-1,9
 386 911 386 911 323 911 c 256,10,11
 260 911 260 911 207 930 c 128,-1,12
 154 949 154 949 115 985 c 128,-1,13
 76 1021 76 1021 54.5 1072.5 c 128,-1,14
 33 1124 33 1124 33 1189 c 0,15,16
 33 1253 33 1253 54.5 1304.5 c 128,-1,17
 76 1356 76 1356 115 1391.5 c 128,-1,18
 154 1427 154 1427 207 1446 c 128,-1,19
 260 1465 260 1465 323 1465 c 256,0,1
323 1070 m 0,20,21
 358 1070 358 1070 373.5 1096.5 c 128,-1,22
 389 1123 389 1123 389 1188 c 0,23,24
 389 1254 389 1254 373.5 1280 c 128,-1,25
 358 1306 358 1306 323 1306 c 0,26,27
 286 1306 286 1306 270 1280 c 128,-1,28
 254 1254 254 1254 254 1188 c 0,29,30
 254 1123 254 1123 270 1096.5 c 128,-1,31
 286 1070 286 1070 323 1070 c 0,20,21
EndSplineSet
EndChar

StartChar: _159
Encoding: 65593 -1 118
Width: 643
Flags: W
LayerCount: 2
Fore
SplineSet
278 1082 m 1,0,1
 290 1074 290 1074 303 1071.5 c 128,-1,2
 316 1069 316 1069 327 1069 c 0,3,4
 337 1069 337 1069 347.5 1073.5 c 128,-1,5
 358 1078 358 1078 366.5 1091 c 128,-1,6
 375 1104 375 1104 380.5 1128 c 128,-1,7
 386 1152 386 1152 386 1192 c 0,8,9
 386 1226 386 1226 382 1247.5 c 128,-1,10
 378 1269 378 1269 372 1281.5 c 128,-1,11
 366 1294 366 1294 358.5 1298.5 c 128,-1,12
 351 1303 351 1303 343 1303 c 0,13,14
 317 1303 317 1303 303.5 1297 c 128,-1,15
 290 1291 290 1291 278 1278 c 1,16,-1
 278 1082 l 1,0,1
256 1395 m 1,17,18
 286 1427 286 1427 324.5 1447.5 c 128,-1,19
 363 1468 363 1468 420 1468 c 0,20,21
 458 1468 458 1468 492.5 1448.5 c 128,-1,22
 527 1429 527 1429 552.5 1393 c 128,-1,23
 578 1357 578 1357 593 1306 c 128,-1,24
 608 1255 608 1255 608 1192 c 0,25,26
 608 1131 608 1131 590.5 1079.5 c 128,-1,27
 573 1028 573 1028 542 990.5 c 128,-1,28
 511 953 511 953 469.5 932 c 128,-1,29
 428 911 428 911 379 911 c 0,30,31
 344 911 344 911 320.5 919.5 c 128,-1,32
 297 928 297 928 278 942 c 1,33,-1
 278 759 l 1,34,-1
 63 759 l 1,35,-1
 63 1457 l 1,36,-1
 198 1457 l 2,37,38
 217 1457 217 1457 230.5 1449 c 128,-1,39
 244 1441 244 1441 249 1423 c 2,40,-1
 256 1395 l 1,17,18
EndSplineSet
EndChar

StartChar: _160
Encoding: 65594 -1 119
Width: 642
Flags: W
LayerCount: 2
Fore
SplineSet
364 1297 m 1,0,1
 351 1305 351 1305 338.5 1307.5 c 128,-1,2
 326 1310 326 1310 315 1310 c 0,3,4
 303 1310 303 1310 292 1304.5 c 128,-1,5
 281 1299 281 1299 273 1285 c 128,-1,6
 265 1271 265 1271 260.5 1247 c 128,-1,7
 256 1223 256 1223 256 1185 c 0,8,9
 256 1152 256 1152 260.5 1130.5 c 128,-1,10
 265 1109 265 1109 272 1097 c 128,-1,11
 279 1085 279 1085 287.5 1080.5 c 128,-1,12
 296 1076 296 1076 304 1076 c 0,13,14
 325 1076 325 1076 338 1082.5 c 128,-1,15
 351 1089 351 1089 364 1102 c 1,16,-1
 364 1297 l 1,0,1
579 1457 m 1,17,-1
 579 759 l 1,18,-1
 364 759 l 1,19,-1
 364 963 l 1,20,21
 337 940 337 940 303.5 925.5 c 128,-1,22
 270 911 270 911 222 911 c 0,23,24
 184 911 184 911 150 930 c 128,-1,25
 116 949 116 949 90.5 985 c 128,-1,26
 65 1021 65 1021 50 1071.5 c 128,-1,27
 35 1122 35 1122 35 1185 c 0,28,29
 35 1246 35 1246 52 1298 c 128,-1,30
 69 1350 69 1350 99.5 1388 c 128,-1,31
 130 1426 130 1426 172 1447 c 128,-1,32
 214 1468 214 1468 263 1468 c 0,33,34
 310 1468 310 1468 338 1452.5 c 128,-1,35
 366 1437 366 1437 390 1416 c 1,36,-1
 393 1423 l 2,37,38
 406 1457 406 1457 444 1457 c 2,39,-1
 579 1457 l 1,17,-1
EndSplineSet
EndChar

StartChar: _161
Encoding: 65595 -1 120
Width: 447
Flags: W
LayerCount: 2
Fore
SplineSet
258 1383 m 1,0,1
 283 1422 283 1422 312.5 1445 c 128,-1,2
 342 1468 342 1468 377 1468 c 0,3,4
 397 1468 397 1468 410.5 1462.5 c 128,-1,5
 424 1457 424 1457 435 1449 c 1,6,-1
 421 1289 l 2,7,8
 418 1274 418 1274 410 1268.5 c 128,-1,9
 402 1263 402 1263 389 1263 c 0,10,11
 379 1263 379 1263 361.5 1264.5 c 128,-1,12
 344 1266 344 1266 336 1266 c 0,13,14
 314 1266 314 1266 301 1256.5 c 128,-1,15
 288 1247 288 1247 278 1230 c 1,16,-1
 278 919 l 1,17,-1
 63 919 l 1,18,-1
 63 1457 l 1,19,-1
 192 1457 l 2,20,21
 224 1457 224 1457 235 1446.5 c 128,-1,22
 246 1436 246 1436 253 1408 c 2,23,-1
 258 1383 l 1,0,1
EndSplineSet
EndChar

StartChar: _162
Encoding: 65596 -1 121
Width: 513
Flags: W
LayerCount: 2
Fore
SplineSet
427 1313 m 2,0,1
 419 1301 419 1301 410 1295.5 c 128,-1,2
 401 1290 401 1290 387 1290 c 256,3,4
 373 1290 373 1290 360.5 1294 c 128,-1,5
 348 1298 348 1298 335.5 1302.5 c 128,-1,6
 323 1307 323 1307 310 1311 c 128,-1,7
 297 1315 297 1315 281 1315 c 0,8,9
 264 1315 264 1315 257.5 1312.5 c 128,-1,10
 251 1310 251 1310 251 1300 c 0,11,12
 251 1287 251 1287 267.5 1279.5 c 128,-1,13
 284 1272 284 1272 309 1265 c 128,-1,14
 334 1258 334 1258 362.5 1248 c 128,-1,15
 391 1238 391 1238 416 1220 c 128,-1,16
 441 1202 441 1202 457.5 1174 c 128,-1,17
 474 1146 474 1146 474 1103 c 0,18,19
 474 1061 474 1061 458.5 1025.5 c 128,-1,20
 443 990 443 990 412.5 964.5 c 128,-1,21
 382 939 382 939 336 925 c 128,-1,22
 290 911 290 911 230 911 c 0,23,24
 203 911 203 911 173.5 916.5 c 128,-1,25
 144 922 144 922 116.5 931 c 128,-1,26
 89 940 89 940 65 952 c 128,-1,27
 41 964 41 964 26 978 c 1,28,-1
 76 1059 l 2,29,30
 84 1073 84 1073 96.5 1080 c 128,-1,31
 109 1087 109 1087 129 1087 c 0,32,33
 147 1087 147 1087 158.5 1082 c 128,-1,34
 170 1077 170 1077 181 1071 c 128,-1,35
 192 1065 192 1065 205.5 1060 c 128,-1,36
 219 1055 219 1055 241 1055 c 0,37,38
 264 1055 264 1055 268.5 1059.5 c 128,-1,39
 273 1064 273 1064 273 1066 c 0,40,41
 273 1080 273 1080 256.5 1087 c 128,-1,42
 240 1094 240 1094 214.5 1100.5 c 128,-1,43
 189 1107 189 1107 160 1117 c 128,-1,44
 131 1127 131 1127 105.5 1146.5 c 128,-1,45
 80 1166 80 1166 63.5 1198 c 128,-1,46
 47 1230 47 1230 47 1282 c 0,47,48
 47 1319 47 1319 60.5 1352.5 c 128,-1,49
 74 1386 74 1386 102.5 1411 c 128,-1,50
 131 1436 131 1436 174 1450.5 c 128,-1,51
 217 1465 217 1465 277 1465 c 0,52,53
 340 1465 340 1465 393.5 1442.5 c 128,-1,54
 447 1420 447 1420 476 1389 c 1,55,-1
 427 1313 l 2,0,1
EndSplineSet
EndChar

StartChar: _163
Encoding: 65597 -1 122
Width: 468
Flags: W
LayerCount: 2
Fore
SplineSet
442 957 m 1,0,1
 405 933 405 933 362.5 922 c 128,-1,2
 320 911 320 911 275 911 c 0,3,4
 231 911 231 911 198 924 c 128,-1,5
 165 937 165 937 142.5 960 c 128,-1,6
 120 983 120 983 108.5 1015 c 128,-1,7
 97 1047 97 1047 97 1085 c 2,8,-1
 97 1317 l 1,9,-1
 67 1317 l 2,10,11
 51 1317 51 1317 40 1328 c 128,-1,12
 29 1339 29 1339 29 1359 c 2,13,-1
 29 1443 l 1,14,-1
 116 1466 l 1,15,-1
 152 1565 l 2,16,17
 160 1597 160 1597 198 1597 c 2,18,-1
 311 1597 l 1,19,-1
 311 1464 l 1,20,-1
 427 1464 l 1,21,-1
 427 1317 l 1,22,-1
 311 1317 l 1,23,-1
 311 1100 l 2,24,25
 311 1095 311 1095 314 1087 c 128,-1,26
 317 1079 317 1079 327 1079 c 0,27,28
 335 1079 335 1079 336.5 1078.5 c 128,-1,29
 338 1078 338 1078 349 1078 c 0,30,31
 358 1078 358 1078 363.5 1074 c 128,-1,32
 369 1070 369 1070 376 1060 c 2,33,-1
 442 957 l 1,0,1
EndSplineSet
EndChar

StartChar: _164
Encoding: 65598 -1 123
Width: 637
Flags: W
LayerCount: 2
Fore
SplineSet
575 1457 m 1,0,-1
 575 919 l 1,1,-1
 440 919 l 2,2,3
 405 919 405 919 389 953 c 2,4,-1
 383 968 l 1,5,6
 355 943 355 943 322.5 927 c 128,-1,7
 290 911 290 911 240 911 c 0,8,9
 196 911 196 911 162 927 c 128,-1,10
 128 943 128 943 104.5 970.5 c 128,-1,11
 81 998 81 998 68.5 1035.5 c 128,-1,12
 56 1073 56 1073 56 1116 c 2,13,-1
 56 1457 l 1,14,-1
 270 1457 l 1,15,-1
 270 1116 l 2,16,17
 270 1096 270 1096 280.5 1085 c 128,-1,18
 291 1074 291 1074 308 1074 c 0,19,20
 322 1074 322 1074 335 1078.5 c 128,-1,21
 348 1083 348 1083 360 1091 c 1,22,-1
 360 1457 l 1,23,-1
 575 1457 l 1,0,-1
EndSplineSet
EndChar

StartChar: _165
Encoding: 65599 -1 124
Width: 584
Flags: W
LayerCount: 2
Fore
SplineSet
589 1457 m 1,0,-1
 389 919 l 1,1,-1
 193 919 l 1,2,-1
 -6 1457 l 1,3,-1
 174 1457 l 2,4,5
 196 1457 196 1457 212 1448 c 128,-1,6
 228 1439 228 1439 232 1422 c 2,7,-1
 262 1272 l 2,8,9
 271 1231 271 1231 279 1193.5 c 128,-1,10
 287 1156 287 1156 294 1118 c 1,11,12
 302 1156 302 1156 310.5 1194 c 128,-1,13
 319 1232 319 1232 330 1274 c 2,14,-1
 362 1422 l 2,15,16
 366 1438 366 1438 381.5 1447.5 c 128,-1,17
 397 1457 397 1457 417 1457 c 2,18,-1
 589 1457 l 1,0,-1
EndSplineSet
EndChar

StartChar: _166
Encoding: 65600 -1 125
Width: 903
Flags: W
LayerCount: 2
Fore
SplineSet
14 1457 m 1,0,-1
 192 1457 l 2,1,2
 214 1457 214 1457 230.5 1446.5 c 128,-1,3
 247 1436 247 1436 251 1412 c 2,4,-1
 268 1276 l 2,5,6
 273 1241 273 1241 279 1208.5 c 128,-1,7
 285 1176 285 1176 291 1144 c 1,8,9
 298 1176 298 1176 306 1208.5 c 128,-1,10
 314 1241 314 1241 324 1276 c 2,11,-1
 356 1413 l 2,12,13
 362 1434 362 1434 378 1445 c 128,-1,14
 394 1456 394 1456 414 1456 c 2,15,-1
 500 1456 l 2,16,17
 523 1456 523 1456 539.5 1445 c 128,-1,18
 556 1434 556 1434 562 1411 c 2,19,-1
 591 1276 l 2,20,21
 599 1243 599 1243 606 1211.5 c 128,-1,22
 613 1180 613 1180 619 1150 c 1,23,-1
 644 1275 l 1,24,-1
 667 1414 l 2,25,26
 671 1436 671 1436 687 1446.5 c 128,-1,27
 703 1457 703 1457 723 1457 c 2,28,-1
 892 1457 l 1,29,-1
 726 919 l 1,30,-1
 555 919 l 2,31,32
 528 919 528 919 518 955 c 2,33,-1
 473 1137 l 2,34,35
 467 1158 467 1158 462.5 1179 c 128,-1,36
 458 1200 458 1200 453 1221 c 1,37,38
 449 1199 449 1199 444 1178 c 128,-1,39
 439 1157 439 1157 433 1135 c 2,40,-1
 387 955 l 2,41,42
 376 919 376 919 343 919 c 2,43,-1
 175 919 l 1,44,-1
 14 1457 l 1,0,-1
EndSplineSet
EndChar

StartChar: _167
Encoding: 65601 -1 126
Width: 647
Flags: W
LayerCount: 2
Fore
SplineSet
638 919 m 1,0,-1
 431 919 l 2,1,2
 409 919 409 919 395.5 930 c 128,-1,3
 382 941 382 941 374 955 c 2,4,-1
 308 1080 l 1,5,6
 305 1070 305 1070 301.5 1061.5 c 128,-1,7
 298 1053 298 1053 294 1045 c 2,8,-1
 254 955 l 2,9,10
 247 941 247 941 233 930 c 128,-1,11
 219 919 219 919 199 919 c 2,12,-1
 8 919 l 1,13,-1
 181 1198 l 1,14,-1
 15 1457 l 1,15,-1
 222 1457 l 2,16,17
 244 1457 244 1457 254 1452.5 c 128,-1,18
 264 1448 264 1448 272 1434 c 2,19,-1
 342 1309 l 1,20,21
 350 1334 350 1334 360 1356 c 2,22,-1
 389 1430 l 2,23,24
 396 1445 396 1445 407.5 1451 c 128,-1,25
 419 1457 419 1457 434 1457 c 2,26,-1
 631 1457 l 1,27,-1
 465 1208 l 1,28,-1
 638 919 l 1,0,-1
EndSplineSet
EndChar

StartChar: _168
Encoding: 65602 -1 127
Width: 585
Flags: W
LayerCount: 2
Fore
SplineSet
594 1457 m 1,0,-1
 324 811 l 2,1,2
 310 780 310 780 296 769.5 c 128,-1,3
 282 759 282 759 253 759 c 2,4,-1
 91 759 l 1,5,-1
 199 981 l 1,6,-1
 -9 1457 l 1,7,-1
 183 1457 l 2,8,9
 206 1457 206 1457 219.5 1446.5 c 128,-1,10
 233 1436 233 1436 238 1422 c 2,11,-1
 280 1285 l 2,12,13
 295 1244 295 1244 304 1204 c 1,14,15
 311 1226 311 1226 317.5 1247 c 128,-1,16
 324 1268 324 1268 332 1289 c 2,17,-1
 372 1422 l 2,18,19
 377 1437 377 1437 392.5 1447 c 128,-1,20
 408 1457 408 1457 427 1457 c 2,21,-1
 594 1457 l 1,0,-1
EndSplineSet
EndChar

StartChar: _169
Encoding: 65603 -1 128
Width: 528
Flags: W
LayerCount: 2
Fore
SplineSet
482 1371 m 2,0,1
 482 1324 482 1324 450 1287 c 2,2,-1
 287 1079 l 1,3,-1
 481 1079 l 1,4,-1
 481 919 l 1,5,-1
 40 919 l 1,6,-1
 40 1008 l 2,7,8
 40 1021 40 1021 47.5 1042 c 128,-1,9
 55 1063 55 1063 75 1085 c 2,10,-1
 239 1298 l 1,11,-1
 53 1298 l 1,12,-1
 53 1457 l 1,13,-1
 482 1457 l 1,14,-1
 482 1371 l 2,0,1
EndSplineSet
EndChar

StartChar: grave
Encoding: 96 96 129
Width: 800
Flags: W
LayerCount: 2
Fore
SplineSet
322 1473 m 2,0,1
 369 1473 369 1473 392 1457.5 c 128,-1,2
 415 1442 415 1442 432 1413 c 2,3,-1
 568 1168 l 1,4,-1
 392 1168 l 2,5,6
 357 1168 357 1168 336 1177.5 c 128,-1,7
 315 1187 315 1187 292 1210 c 2,8,-1
 32 1473 l 1,9,-1
 322 1473 l 2,0,1
EndSplineSet
Substitution2: "'case' +BCAENQQzBDgEQQRCBEAEPgQ3BDAEMgQ4BEEEOAQ8BEsENQAA +BEQEPgRABDwESwAA lookup 2 subtable" _171
EndChar

StartChar: _171
Encoding: 65604 -1 130
Width: 800
Flags: W
LayerCount: 2
Fore
SplineSet
269 1867 m 2,0,1
 292 1867 292 1867 309 1865.5 c 128,-1,2
 326 1864 326 1864 339.5 1859.5 c 128,-1,3
 353 1855 353 1855 364.5 1846 c 128,-1,4
 376 1837 376 1837 389 1821 c 2,5,-1
 598 1551 l 1,6,-1
 372 1551 l 2,7,8
 354 1551 354 1551 341 1551.5 c 128,-1,9
 328 1552 328 1552 316.5 1555 c 128,-1,10
 305 1558 305 1558 294.5 1563.5 c 128,-1,11
 284 1569 284 1569 272 1580 c 2,12,-1
 -53 1867 l 1,13,-1
 269 1867 l 2,0,1
EndSplineSet
EndChar

StartChar: acute
Encoding: 180 180 131
Width: 800
Flags: W
LayerCount: 2
Fore
SplineSet
796 1473 m 1,0,-1
 536 1210 l 2,1,2
 513 1187 513 1187 492 1177.5 c 128,-1,3
 471 1168 471 1168 436 1168 c 2,4,-1
 250 1168 l 1,5,-1
 386 1413 l 2,6,7
 403 1442 403 1442 426 1457.5 c 128,-1,8
 449 1473 449 1473 496 1473 c 2,9,-1
 796 1473 l 1,0,-1
EndSplineSet
Substitution2: "'case' +BCAENQQzBDgEQQRCBEAEPgQ3BDAEMgQ4BEEEOAQ8BEsENQAA +BEQEPgRABDwESwAA lookup 2 subtable" _173
EndChar

StartChar: _173
Encoding: 65605 -1 132
Width: 800
Flags: W
LayerCount: 2
Fore
SplineSet
879 1867 m 1,0,-1
 556 1582 l 2,1,2
 544 1571 544 1571 533 1565 c 128,-1,3
 522 1559 522 1559 510 1556 c 128,-1,4
 498 1553 498 1553 484.5 1552 c 128,-1,5
 471 1551 471 1551 454 1551 c 2,6,-1
 228 1551 l 1,7,-1
 417 1821 l 2,8,9
 429 1837 429 1837 440.5 1846.5 c 128,-1,10
 452 1856 452 1856 465.5 1860.5 c 128,-1,11
 479 1865 479 1865 496.5 1866 c 128,-1,12
 514 1867 514 1867 537 1867 c 2,13,-1
 879 1867 l 1,0,-1
EndSplineSet
EndChar

StartChar: circumflex
Encoding: 710 710 133
Width: 800
Flags: W
AnchorPoint: "+BBEENQQ3BEsEPARPBD0EPQQ+BDUA--1" 400 -70 basechar 0
LayerCount: 2
Fore
SplineSet
780 1168 m 1,0,-1
 574 1168 l 2,1,2
 556 1168 556 1168 539 1173.5 c 128,-1,3
 522 1179 522 1179 505 1196 c 2,4,-1
 430 1279 l 2,5,6
 424 1285 424 1285 417.5 1292 c 128,-1,7
 411 1299 411 1299 405 1307 c 1,8,9
 399 1299 399 1299 392.5 1292 c 128,-1,10
 386 1285 386 1285 380 1279 c 2,11,-1
 303 1196 l 2,12,13
 288 1182 288 1182 270 1175 c 128,-1,14
 252 1168 252 1168 234 1168 c 2,15,-1
 20 1168 l 1,16,-1
 254 1457 l 1,17,-1
 546 1457 l 1,18,-1
 780 1168 l 1,0,-1
EndSplineSet
Substitution2: "'case' +BCAENQQzBDgEQQRCBEAEPgQ3BDAEMgQ4BEEEOAQ8BEsENQAA +BEQEPgRABDwESwAA lookup 2 subtable" _175
EndChar

StartChar: _175
Encoding: 65606 -1 134
Width: 800
Flags: W
LayerCount: 2
Fore
SplineSet
790 1551 m 1,0,-1
 566 1551 l 2,1,2
 548 1551 548 1551 522 1557.5 c 128,-1,3
 496 1564 496 1564 468 1597 c 1,4,-1
 418 1675 l 2,5,6
 413 1682 413 1682 408.5 1688 c 128,-1,7
 404 1694 404 1694 400 1701 c 1,8,9
 396 1694 396 1694 391.5 1688 c 128,-1,10
 387 1682 387 1682 382 1675 c 2,11,-1
 332 1597 l 1,12,13
 304 1564 304 1564 278 1557.5 c 128,-1,14
 252 1551 252 1551 234 1551 c 2,15,-1
 20 1551 l 1,16,-1
 264 1829 l 1,17,-1
 546 1829 l 1,18,-1
 790 1551 l 1,0,-1
EndSplineSet
EndChar

StartChar: caron
Encoding: 711 711 135
Width: 800
Flags: W
AnchorPoint: "+BBEENQQ3BEsEPARPBD0EPQQ+BDUA--1" 400 -70 basechar 0
LayerCount: 2
Fore
SplineSet
780 1457 m 1,0,-1
 546 1168 l 1,1,-1
 254 1168 l 1,2,-1
 20 1457 l 1,3,-1
 234 1457 l 2,4,5
 252 1457 252 1457 268.5 1451.5 c 128,-1,6
 285 1446 285 1446 294 1438 c 2,7,-1
 378 1347 l 2,8,9
 384 1341 384 1341 390.5 1333.5 c 128,-1,10
 397 1326 397 1326 404 1317 c 1,11,12
 411 1325 411 1325 417 1332.5 c 128,-1,13
 423 1340 423 1340 430 1347 c 2,14,-1
 514 1438 l 2,15,16
 523 1444 523 1444 539.5 1450.5 c 128,-1,17
 556 1457 556 1457 574 1457 c 2,18,-1
 780 1457 l 1,0,-1
EndSplineSet
Substitution2: "'case' +BCAENQQzBDgEQQRCBEAEPgQ3BDAEMgQ4BEEEOAQ8BEsENQAA +BEQEPgRABDwESwAA lookup 2 subtable" _177
EndChar

StartChar: _177
Encoding: 65607 -1 136
Width: 800
Flags: W
LayerCount: 2
Fore
SplineSet
790 1829 m 1,0,-1
 546 1551 l 1,1,-1
 254 1551 l 1,2,-1
 10 1829 l 1,3,-1
 234 1829 l 2,4,5
 243 1829 243 1829 254.5 1828.5 c 128,-1,6
 266 1828 266 1828 278 1824.5 c 128,-1,7
 290 1821 290 1821 301.5 1814 c 128,-1,8
 313 1807 313 1807 323 1794 c 2,9,-1
 382 1705 l 2,10,11
 387 1698 387 1698 391.5 1691.5 c 128,-1,12
 396 1685 396 1685 400 1679 c 1,13,14
 404 1685 404 1685 408.5 1691.5 c 128,-1,15
 413 1698 413 1698 418 1705 c 2,16,-1
 476 1793 l 2,17,18
 486 1806 486 1806 498 1813.5 c 128,-1,19
 510 1821 510 1821 522 1824.5 c 128,-1,20
 534 1828 534 1828 545.5 1828.5 c 128,-1,21
 557 1829 557 1829 566 1829 c 2,22,-1
 790 1829 l 1,0,-1
EndSplineSet
EndChar

StartChar: uni0315
Encoding: 789 789 137
Width: 0
Flags: W
LayerCount: 2
Fore
SplineSet
524 1499 m 2,0,1
 540 1499 540 1499 550 1495 c 128,-1,2
 560 1491 560 1491 564.5 1484.5 c 128,-1,3
 569 1478 569 1478 570.5 1471 c 128,-1,4
 572 1464 572 1464 572 1458 c 0,5,6
 572 1450 572 1450 568.5 1435 c 128,-1,7
 565 1420 565 1420 553.5 1391 c 128,-1,8
 542 1362 542 1362 520.5 1313.5 c 128,-1,9
 499 1265 499 1265 464 1189 c 0,10,11
 447 1156 447 1156 422 1146.5 c 128,-1,12
 397 1137 397 1137 358 1137 c 2,13,-1
 248 1137 l 1,14,-1
 314 1499 l 1,15,-1
 524 1499 l 2,0,1
EndSplineSet
EndChar

StartChar: tilde
Encoding: 732 732 138
Width: 800
Flags: W
LayerCount: 2
Fore
SplineSet
504 1387 m 0,0,1
 528 1387 528 1387 543 1399.5 c 128,-1,2
 558 1412 558 1412 558 1453 c 1,3,-1
 746 1453 l 1,4,5
 746 1390 746 1390 728.5 1339.5 c 128,-1,6
 711 1289 711 1289 680 1253.5 c 128,-1,7
 649 1218 649 1218 607 1199 c 128,-1,8
 565 1180 565 1180 516 1180 c 0,9,10
 479 1180 479 1180 447 1191.5 c 128,-1,11
 415 1203 415 1203 387.5 1217 c 128,-1,12
 360 1231 360 1231 337.5 1242.5 c 128,-1,13
 315 1254 315 1254 298 1254 c 0,14,15
 274 1254 274 1254 260 1240.5 c 128,-1,16
 246 1227 246 1227 246 1186 c 1,17,-1
 56 1186 l 1,18,19
 56 1249 56 1249 74 1299.5 c 128,-1,20
 92 1350 92 1350 123 1386 c 128,-1,21
 154 1422 154 1422 196 1441.5 c 128,-1,22
 238 1461 238 1461 286 1461 c 0,23,24
 323 1461 323 1461 355.5 1449.5 c 128,-1,25
 388 1438 388 1438 415 1424 c 128,-1,26
 442 1410 442 1410 464.5 1398.5 c 128,-1,27
 487 1387 487 1387 504 1387 c 0,0,1
EndSplineSet
Substitution2: "'case' +BCAENQQzBDgEQQRCBEAEPgQ3BDAEMgQ4BEEEOAQ8BEsENQAA +BEQEPgRABDwESwAA lookup 2 subtable" _180
EndChar

StartChar: _180
Encoding: 65608 -1 139
Width: 800
Flags: W
LayerCount: 2
Fore
SplineSet
524 1729 m 0,0,1
 546 1729 546 1729 561 1737.5 c 128,-1,2
 576 1746 576 1746 585.5 1759.5 c 128,-1,3
 595 1773 595 1773 599.5 1788.5 c 128,-1,4
 604 1804 604 1804 604 1818 c 1,5,-1
 792 1818 l 1,6,7
 792 1763 792 1763 777 1712 c 128,-1,8
 762 1661 762 1661 733 1621.5 c 128,-1,9
 704 1582 704 1582 661 1558.5 c 128,-1,10
 618 1535 618 1535 562 1535 c 256,11,12
 506 1535 506 1535 466.5 1550 c 128,-1,13
 427 1565 427 1565 396.5 1583.5 c 128,-1,14
 366 1602 366 1602 341 1617 c 128,-1,15
 316 1632 316 1632 290 1632 c 0,16,17
 268 1632 268 1632 253 1623 c 128,-1,18
 238 1614 238 1614 229 1600.5 c 128,-1,19
 220 1587 220 1587 216 1571 c 128,-1,20
 212 1555 212 1555 212 1541 c 1,21,-1
 22 1541 l 1,22,23
 22 1596 22 1596 37 1647 c 128,-1,24
 52 1698 52 1698 81.5 1738 c 128,-1,25
 111 1778 111 1778 153.5 1802 c 128,-1,26
 196 1826 196 1826 252 1826 c 256,27,28
 308 1826 308 1826 348 1811 c 128,-1,29
 388 1796 388 1796 418 1777.5 c 128,-1,30
 448 1759 448 1759 473 1744 c 128,-1,31
 498 1729 498 1729 524 1729 c 0,0,1
EndSplineSet
EndChar

StartChar: dieresis
Encoding: 168 168 140
Width: 800
Flags: W
AnchorPoint: "+BBEENQQ3BEsEPARPBD0EPQQ+BDUA--3" 400 1457 basechar 0
LayerCount: 2
Fore
SplineSet
348 1295 m 0,0,1
 348 1263 348 1263 335 1235 c 128,-1,2
 322 1207 322 1207 299.5 1186.5 c 128,-1,3
 277 1166 277 1166 247.5 1154 c 128,-1,4
 218 1142 218 1142 184 1142 c 0,5,6
 152 1142 152 1142 123.5 1154 c 128,-1,7
 95 1166 95 1166 73.5 1186.5 c 128,-1,8
 52 1207 52 1207 39 1235 c 128,-1,9
 26 1263 26 1263 26 1295 c 0,10,11
 26 1328 26 1328 39 1357 c 128,-1,12
 52 1386 52 1386 73.5 1407.5 c 128,-1,13
 95 1429 95 1429 123.5 1441.5 c 128,-1,14
 152 1454 152 1454 184 1454 c 0,15,16
 218 1454 218 1454 247.5 1441.5 c 128,-1,17
 277 1429 277 1429 299.5 1407.5 c 128,-1,18
 322 1386 322 1386 335 1357 c 128,-1,19
 348 1328 348 1328 348 1295 c 0,0,1
774 1295 m 0,20,21
 774 1263 774 1263 761.5 1235 c 128,-1,22
 749 1207 749 1207 727 1186.5 c 128,-1,23
 705 1166 705 1166 675.5 1154 c 128,-1,24
 646 1142 646 1142 612 1142 c 0,25,26
 579 1142 579 1142 550 1154 c 128,-1,27
 521 1166 521 1166 499 1186.5 c 128,-1,28
 477 1207 477 1207 464.5 1235 c 128,-1,29
 452 1263 452 1263 452 1295 c 0,30,31
 452 1328 452 1328 464.5 1357 c 128,-1,32
 477 1386 477 1386 499 1407.5 c 128,-1,33
 521 1429 521 1429 550 1441.5 c 128,-1,34
 579 1454 579 1454 612 1454 c 0,35,36
 646 1454 646 1454 675.5 1441.5 c 128,-1,37
 705 1429 705 1429 727 1407.5 c 128,-1,38
 749 1386 749 1386 761.5 1357 c 128,-1,39
 774 1328 774 1328 774 1295 c 0,20,21
EndSplineSet
Substitution2: "'case' +BCAENQQzBDgEQQRCBEAEPgQ3BDAEMgQ4BEEEOAQ8BEsENQAA +BEQEPgRABDwESwAA lookup 2 subtable" _182
EndChar

StartChar: _182
Encoding: 65609 -1 141
Width: 800
Flags: W
LayerCount: 2
Fore
SplineSet
326 1668 m 0,0,1
 326 1636 326 1636 313.5 1609 c 128,-1,2
 301 1582 301 1582 279 1561.5 c 128,-1,3
 257 1541 257 1541 228 1529.5 c 128,-1,4
 199 1518 199 1518 166 1518 c 0,5,6
 136 1518 136 1518 108.5 1529.5 c 128,-1,7
 81 1541 81 1541 60 1561.5 c 128,-1,8
 39 1582 39 1582 26.5 1609 c 128,-1,9
 14 1636 14 1636 14 1668 c 0,10,11
 14 1699 14 1699 26.5 1727 c 128,-1,12
 39 1755 39 1755 60 1776 c 128,-1,13
 81 1797 81 1797 108.5 1809 c 128,-1,14
 136 1821 136 1821 166 1821 c 0,15,16
 199 1821 199 1821 228 1809 c 128,-1,17
 257 1797 257 1797 279 1776 c 128,-1,18
 301 1755 301 1755 313.5 1727 c 128,-1,19
 326 1699 326 1699 326 1668 c 0,0,1
786 1668 m 0,20,21
 786 1636 786 1636 773.5 1609 c 128,-1,22
 761 1582 761 1582 740 1561.5 c 128,-1,23
 719 1541 719 1541 690.5 1529.5 c 128,-1,24
 662 1518 662 1518 630 1518 c 256,25,26
 598 1518 598 1518 569.5 1529.5 c 128,-1,27
 541 1541 541 1541 520 1561.5 c 128,-1,28
 499 1582 499 1582 486.5 1609 c 128,-1,29
 474 1636 474 1636 474 1668 c 0,30,31
 474 1699 474 1699 486.5 1727 c 128,-1,32
 499 1755 499 1755 520 1776 c 128,-1,33
 541 1797 541 1797 569.5 1809 c 128,-1,34
 598 1821 598 1821 630 1821 c 256,35,36
 662 1821 662 1821 690.5 1809 c 128,-1,37
 719 1797 719 1797 740 1776 c 128,-1,38
 761 1755 761 1755 773.5 1727 c 128,-1,39
 786 1699 786 1699 786 1668 c 0,20,21
EndSplineSet
EndChar

StartChar: macron
Encoding: 175 175 142
AltUni2: 0002c9.ffffffff.0
Width: 800
Flags: W
LayerCount: 2
Fore
SplineSet
90 1391 m 1,0,-1
 710 1391 l 1,1,-1
 710 1201 l 1,2,-1
 90 1201 l 1,3,-1
 90 1391 l 1,0,-1
EndSplineSet
Substitution2: "'case' +BCAENQQzBDgEQQRCBEAEPgQ3BDAEMgQ4BEEEOAQ8BEsENQAA +BEQEPgRABDwESwAA lookup 2 subtable" _184
EndChar

StartChar: _184
Encoding: 65610 -1 143
Width: 800
Flags: W
LayerCount: 2
Fore
SplineSet
80 1726 m 1,0,-1
 720 1726 l 1,1,-1
 720 1556 l 1,2,-1
 80 1556 l 1,3,-1
 80 1726 l 1,0,-1
EndSplineSet
EndChar

